M48
; DRILL file {KiCad 9.0.7} date 2026-02-28T09:51:32-0800
; FORMAT={2:4/ absolute / inch / suppress leading zeros}
; #@! TF.CreationDate,2026-02-28T09:51:32-08:00
; #@! TF.GenerationSoftware,Kicad,Pcbnew,9.0.7
; #@! TF.FileFunction,MixedPlating,1,2
FMAT,2
INCH,TZ
; #@! TA.AperFunction,Plated,PTH,ViaDrill
T1C0.0118
; #@! TA.AperFunction,Plated,PTH,ComponentDrill
T2C0.0295
; #@! TA.AperFunction,Plated,PTH,ComponentDrill
T3C0.0315
; #@! TA.AperFunction,Plated,PTH,ComponentDrill
T4C0.0394
; #@! TA.AperFunction,Plated,PTH,ComponentDrill
T5C0.0512
; #@! TA.AperFunction,NonPlated,NPTH,ComponentDrill
T6C0.0866
%
G90
G05
T1
X48346Y-33071
X50315Y-42913
X58504Y-39134
T2
X46457Y-36220
X46457Y-37008
X46457Y-40551
X46457Y-41339
X51260Y-27008
X51260Y-27795
X51260Y-28583
X51260Y-29370
X51260Y-30157
X66535Y-28740
X66535Y-29528
X66535Y-30315
X66535Y-31102
X66535Y-35827
X66535Y-36614
X66535Y-37402
X66535Y-38189
X66535Y-38976
X66535Y-41732
X66535Y-42520
X66535Y-43307
X66535Y-44094
X66535Y-44882
T3
X46575Y-27953
X48543Y-27953
X54252Y-28480
X54252Y-29480
X54252Y-30480
X54252Y-31480
X54252Y-32480
X54252Y-33480
X54252Y-34480
X54252Y-35480
X54252Y-36480
X54252Y-37480
X54252Y-38480
X54252Y-39480
X54252Y-40480
X54252Y-41480
X54252Y-42480
X54252Y-43480
X54252Y-44480
X54252Y-45480
X54252Y-46480
X63252Y-28480
X63252Y-29480
X63252Y-30480
X63252Y-31480
X63252Y-32480
X63252Y-33480
X63252Y-34480
X63252Y-35480
X63252Y-36480
X63252Y-37480
X63252Y-38480
X63252Y-39480
X63252Y-40480
X63252Y-41480
X63252Y-42480
X63252Y-43480
X63252Y-44480
X63252Y-45479
X63252Y-46479
T4
X66535Y-33465
X68504Y-33465
T5
X49299Y-38661
X49339Y-40906
X51299Y-38661
X51339Y-40906
T6
X44882Y-26378
X44882Y-47638
X68504Y-26378
X68504Y-47638
M30
