%TF.GenerationSoftware,KiCad,Pcbnew,9.0.7*%
%TF.CreationDate,2026-02-28T09:49:52-08:00*%
%TF.ProjectId,object_detector,6f626a65-6374-45f6-9465-746563746f72,rev?*%
%TF.SameCoordinates,Original*%
%TF.FileFunction,Soldermask,Bot*%
%TF.FilePolarity,Negative*%
%FSLAX46Y46*%
G04 Gerber Fmt 4.6, Leading zero omitted, Abs format (unit mm)*
G04 Created by KiCad (PCBNEW 9.0.7) date 2026-02-28 09:49:52*
%MOMM*%
%LPD*%
G01*
G04 APERTURE LIST*
G04 Aperture macros list*
%AMRoundRect*
0 Rectangle with rounded corners*
0 $1 Rounding radius*
0 $2 $3 $4 $5 $6 $7 $8 $9 X,Y pos of 4 corners*
0 Add a 4 corners polygon primitive as box body*
4,1,4,$2,$3,$4,$5,$6,$7,$8,$9,$2,$3,0*
0 Add four circle primitives for the rounded corners*
1,1,$1+$1,$2,$3*
1,1,$1+$1,$4,$5*
1,1,$1+$1,$6,$7*
1,1,$1+$1,$8,$9*
0 Add four rect primitives between the rounded corners*
20,1,$1+$1,$2,$3,$4,$5,0*
20,1,$1+$1,$4,$5,$6,$7,0*
20,1,$1+$1,$6,$7,$8,$9,0*
20,1,$1+$1,$8,$9,$2,$3,0*%
G04 Aperture macros list end*
%ADD10C,2.200000*%
%ADD11R,2.000000X1.200000*%
%ADD12O,2.000000X1.200000*%
%ADD13RoundRect,0.250000X-0.625000X0.350000X-0.625000X-0.350000X0.625000X-0.350000X0.625000X0.350000X0*%
%ADD14O,1.750000X1.200000*%
%ADD15R,1.700000X1.700000*%
%ADD16C,1.600000*%
%ADD17RoundRect,0.250000X0.625000X-0.350000X0.625000X0.350000X-0.625000X0.350000X-0.625000X-0.350000X0*%
%ADD18RoundRect,0.650000X0.650000X0.650000X-0.650000X0.650000X-0.650000X-0.650000X0.650000X-0.650000X0*%
%ADD19C,2.600000*%
%ADD20RoundRect,0.650000X-0.650000X-0.650000X0.650000X-0.650000X0.650000X0.650000X-0.650000X0.650000X0*%
%ADD21RoundRect,0.250000X0.650000X-0.412500X0.650000X0.412500X-0.650000X0.412500X-0.650000X-0.412500X0*%
%ADD22RoundRect,0.250000X-0.650000X0.325000X-0.650000X-0.325000X0.650000X-0.325000X0.650000X0.325000X0*%
%ADD23RoundRect,0.250000X-0.400000X-0.625000X0.400000X-0.625000X0.400000X0.625000X-0.400000X0.625000X0*%
G04 APERTURE END LIST*
D10*
%TO.C,H2*%
X174000000Y-67000000D03*
%TD*%
D11*
%TO.C,U2*%
X137800000Y-72340000D03*
D12*
X137800000Y-74880000D03*
X137800000Y-77420000D03*
X137800000Y-79960000D03*
X137800000Y-82500000D03*
X137800000Y-85040000D03*
X137800000Y-87580000D03*
X137800000Y-90120000D03*
X137800000Y-92660000D03*
X137800000Y-95200000D03*
X137800000Y-97740000D03*
X137800000Y-100280000D03*
X137800000Y-102820000D03*
X137800000Y-105360000D03*
X137800000Y-107900000D03*
X137800000Y-110440000D03*
X137800000Y-112980000D03*
X137800000Y-115520000D03*
X137800000Y-118060000D03*
X160660000Y-118057280D03*
X160660000Y-115517280D03*
X160660000Y-112980000D03*
X160660000Y-110440000D03*
X160660000Y-107900000D03*
X160660000Y-105360000D03*
X160660000Y-102820000D03*
X160660000Y-100280000D03*
X160660000Y-97740000D03*
X160660000Y-95200000D03*
X160660000Y-92660000D03*
X160660000Y-90120000D03*
X160660000Y-87580000D03*
X160660000Y-85040000D03*
X160660000Y-82500000D03*
X160660000Y-79960000D03*
X160660000Y-77420000D03*
X160660000Y-74880000D03*
X160660000Y-72340000D03*
%TD*%
D13*
%TO.C,Speaker*%
X118000000Y-92000000D03*
D14*
X118000000Y-94000000D03*
%TD*%
D10*
%TO.C,H1*%
X114000000Y-67000000D03*
%TD*%
%TO.C,H4*%
X174000000Y-121000000D03*
%TD*%
D13*
%TO.C,BUTTONS*%
X169000000Y-91000000D03*
D14*
X169000000Y-93000000D03*
X169000000Y-95000000D03*
X169000000Y-97000000D03*
X169000000Y-99000000D03*
%TD*%
D13*
%TO.C,DISPLAY*%
X169000000Y-73000000D03*
D14*
X169000000Y-75000000D03*
X169000000Y-77000000D03*
X169000000Y-79000000D03*
%TD*%
D15*
%TO.C,SDA*%
X169000000Y-85000000D03*
%TD*%
%TO.C,SCL*%
X174000000Y-85000000D03*
%TD*%
D16*
%TO.C,C3*%
X118300000Y-71000000D03*
X123300000Y-71000000D03*
%TD*%
D17*
%TO.C,SENSOR*%
X130200000Y-76600000D03*
D14*
X130200000Y-74600000D03*
X130200000Y-72600000D03*
X130200000Y-70600000D03*
X130200000Y-68600000D03*
%TD*%
D10*
%TO.C,H3*%
X114000000Y-121000000D03*
%TD*%
D13*
%TO.C,\u0085*%
X118000000Y-103000000D03*
D14*
X118000000Y-105000000D03*
%TD*%
D18*
%TO.C,DAC*%
X130400000Y-103900000D03*
D19*
X125320000Y-103900000D03*
%TD*%
D13*
%TO.C,AUX GPIO*%
X169000000Y-106000000D03*
D14*
X169000000Y-108000000D03*
X169000000Y-110000000D03*
X169000000Y-112000000D03*
X169000000Y-114000000D03*
%TD*%
D20*
%TO.C,SPK*%
X125220000Y-98200000D03*
D19*
X130300000Y-98200000D03*
%TD*%
D21*
%TO.C,C5*%
X164000000Y-76562500D03*
X164000000Y-73437500D03*
%TD*%
D22*
%TO.C,C7*%
X140700000Y-117750000D03*
X140700000Y-120700000D03*
%TD*%
D23*
%TO.C,R2*%
X140300000Y-95200000D03*
X143400000Y-95200000D03*
%TD*%
M02*
