%TF.GenerationSoftware,KiCad,Pcbnew,9.0.7*%
%TF.CreationDate,2026-02-28T09:48:18-08:00*%
%TF.ProjectId,object_detector,6f626a65-6374-45f6-9465-746563746f72,rev?*%
%TF.SameCoordinates,Original*%
%TF.FileFunction,Legend,Top*%
%TF.FilePolarity,Positive*%
%FSLAX46Y46*%
G04 Gerber Fmt 4.6, Leading zero omitted, Abs format (unit mm)*
G04 Created by KiCad (PCBNEW 9.0.7) date 2026-02-28 09:48:18*
%MOMM*%
%LPD*%
G01*
G04 APERTURE LIST*
%ADD10C,0.150000*%
%ADD11C,0.100000*%
%ADD12C,0.120000*%
G04 APERTURE END LIST*
D10*
X171625480Y-77297214D02*
X171768337Y-77344833D01*
X171768337Y-77344833D02*
X172006432Y-77344833D01*
X172006432Y-77344833D02*
X172101670Y-77297214D01*
X172101670Y-77297214D02*
X172149289Y-77249594D01*
X172149289Y-77249594D02*
X172196908Y-77154356D01*
X172196908Y-77154356D02*
X172196908Y-77059118D01*
X172196908Y-77059118D02*
X172149289Y-76963880D01*
X172149289Y-76963880D02*
X172101670Y-76916261D01*
X172101670Y-76916261D02*
X172006432Y-76868642D01*
X172006432Y-76868642D02*
X171815956Y-76821023D01*
X171815956Y-76821023D02*
X171720718Y-76773404D01*
X171720718Y-76773404D02*
X171673099Y-76725785D01*
X171673099Y-76725785D02*
X171625480Y-76630547D01*
X171625480Y-76630547D02*
X171625480Y-76535309D01*
X171625480Y-76535309D02*
X171673099Y-76440071D01*
X171673099Y-76440071D02*
X171720718Y-76392452D01*
X171720718Y-76392452D02*
X171815956Y-76344833D01*
X171815956Y-76344833D02*
X172054051Y-76344833D01*
X172054051Y-76344833D02*
X172196908Y-76392452D01*
X173196908Y-77249594D02*
X173149289Y-77297214D01*
X173149289Y-77297214D02*
X173006432Y-77344833D01*
X173006432Y-77344833D02*
X172911194Y-77344833D01*
X172911194Y-77344833D02*
X172768337Y-77297214D01*
X172768337Y-77297214D02*
X172673099Y-77201975D01*
X172673099Y-77201975D02*
X172625480Y-77106737D01*
X172625480Y-77106737D02*
X172577861Y-76916261D01*
X172577861Y-76916261D02*
X172577861Y-76773404D01*
X172577861Y-76773404D02*
X172625480Y-76582928D01*
X172625480Y-76582928D02*
X172673099Y-76487690D01*
X172673099Y-76487690D02*
X172768337Y-76392452D01*
X172768337Y-76392452D02*
X172911194Y-76344833D01*
X172911194Y-76344833D02*
X173006432Y-76344833D01*
X173006432Y-76344833D02*
X173149289Y-76392452D01*
X173149289Y-76392452D02*
X173196908Y-76440071D01*
X174101670Y-77344833D02*
X173625480Y-77344833D01*
X173625480Y-77344833D02*
X173625480Y-76344833D01*
X172052647Y-72350309D02*
X171576457Y-72350309D01*
X171576457Y-72350309D02*
X171528838Y-72826499D01*
X171528838Y-72826499D02*
X171576457Y-72778880D01*
X171576457Y-72778880D02*
X171671695Y-72731261D01*
X171671695Y-72731261D02*
X171909790Y-72731261D01*
X171909790Y-72731261D02*
X172005028Y-72778880D01*
X172005028Y-72778880D02*
X172052647Y-72826499D01*
X172052647Y-72826499D02*
X172100266Y-72921737D01*
X172100266Y-72921737D02*
X172100266Y-73159832D01*
X172100266Y-73159832D02*
X172052647Y-73255070D01*
X172052647Y-73255070D02*
X172005028Y-73302690D01*
X172005028Y-73302690D02*
X171909790Y-73350309D01*
X171909790Y-73350309D02*
X171671695Y-73350309D01*
X171671695Y-73350309D02*
X171576457Y-73302690D01*
X171576457Y-73302690D02*
X171528838Y-73255070D01*
X172385981Y-72350309D02*
X172719314Y-73350309D01*
X172719314Y-73350309D02*
X173052647Y-72350309D01*
X172083458Y-91357882D02*
X171750125Y-90881691D01*
X171512030Y-91357882D02*
X171512030Y-90357882D01*
X171512030Y-90357882D02*
X171892982Y-90357882D01*
X171892982Y-90357882D02*
X171988220Y-90405501D01*
X171988220Y-90405501D02*
X172035839Y-90453120D01*
X172035839Y-90453120D02*
X172083458Y-90548358D01*
X172083458Y-90548358D02*
X172083458Y-90691215D01*
X172083458Y-90691215D02*
X172035839Y-90786453D01*
X172035839Y-90786453D02*
X171988220Y-90834072D01*
X171988220Y-90834072D02*
X171892982Y-90881691D01*
X171892982Y-90881691D02*
X171512030Y-90881691D01*
X172892982Y-91310263D02*
X172797744Y-91357882D01*
X172797744Y-91357882D02*
X172607268Y-91357882D01*
X172607268Y-91357882D02*
X172512030Y-91310263D01*
X172512030Y-91310263D02*
X172464411Y-91215024D01*
X172464411Y-91215024D02*
X172464411Y-90834072D01*
X172464411Y-90834072D02*
X172512030Y-90738834D01*
X172512030Y-90738834D02*
X172607268Y-90691215D01*
X172607268Y-90691215D02*
X172797744Y-90691215D01*
X172797744Y-90691215D02*
X172892982Y-90738834D01*
X172892982Y-90738834D02*
X172940601Y-90834072D01*
X172940601Y-90834072D02*
X172940601Y-90929310D01*
X172940601Y-90929310D02*
X172464411Y-91024548D01*
X173321554Y-91310263D02*
X173416792Y-91357882D01*
X173416792Y-91357882D02*
X173607268Y-91357882D01*
X173607268Y-91357882D02*
X173702506Y-91310263D01*
X173702506Y-91310263D02*
X173750125Y-91215024D01*
X173750125Y-91215024D02*
X173750125Y-91167405D01*
X173750125Y-91167405D02*
X173702506Y-91072167D01*
X173702506Y-91072167D02*
X173607268Y-91024548D01*
X173607268Y-91024548D02*
X173464411Y-91024548D01*
X173464411Y-91024548D02*
X173369173Y-90976929D01*
X173369173Y-90976929D02*
X173321554Y-90881691D01*
X173321554Y-90881691D02*
X173321554Y-90834072D01*
X173321554Y-90834072D02*
X173369173Y-90738834D01*
X173369173Y-90738834D02*
X173464411Y-90691215D01*
X173464411Y-90691215D02*
X173607268Y-90691215D01*
X173607268Y-90691215D02*
X173702506Y-90738834D01*
X174559649Y-91310263D02*
X174464411Y-91357882D01*
X174464411Y-91357882D02*
X174273935Y-91357882D01*
X174273935Y-91357882D02*
X174178697Y-91310263D01*
X174178697Y-91310263D02*
X174131078Y-91215024D01*
X174131078Y-91215024D02*
X174131078Y-90834072D01*
X174131078Y-90834072D02*
X174178697Y-90738834D01*
X174178697Y-90738834D02*
X174273935Y-90691215D01*
X174273935Y-90691215D02*
X174464411Y-90691215D01*
X174464411Y-90691215D02*
X174559649Y-90738834D01*
X174559649Y-90738834D02*
X174607268Y-90834072D01*
X174607268Y-90834072D02*
X174607268Y-90929310D01*
X174607268Y-90929310D02*
X174131078Y-91024548D01*
X174892983Y-90691215D02*
X175273935Y-90691215D01*
X175035840Y-90357882D02*
X175035840Y-91215024D01*
X175035840Y-91215024D02*
X175083459Y-91310263D01*
X175083459Y-91310263D02*
X175178697Y-91357882D01*
X175178697Y-91357882D02*
X175273935Y-91357882D01*
X126128792Y-75861605D02*
X126366887Y-76861605D01*
X126366887Y-76861605D02*
X126557363Y-76147319D01*
X126557363Y-76147319D02*
X126747839Y-76861605D01*
X126747839Y-76861605D02*
X126985935Y-75861605D01*
X127890696Y-76861605D02*
X127319268Y-76861605D01*
X127604982Y-76861605D02*
X127604982Y-75861605D01*
X127604982Y-75861605D02*
X127509744Y-76004462D01*
X127509744Y-76004462D02*
X127414506Y-76099700D01*
X127414506Y-76099700D02*
X127319268Y-76147319D01*
X172100266Y-74395190D02*
X172005028Y-74347571D01*
X172005028Y-74347571D02*
X171862171Y-74347571D01*
X171862171Y-74347571D02*
X171719314Y-74395190D01*
X171719314Y-74395190D02*
X171624076Y-74490428D01*
X171624076Y-74490428D02*
X171576457Y-74585666D01*
X171576457Y-74585666D02*
X171528838Y-74776142D01*
X171528838Y-74776142D02*
X171528838Y-74918999D01*
X171528838Y-74918999D02*
X171576457Y-75109475D01*
X171576457Y-75109475D02*
X171624076Y-75204713D01*
X171624076Y-75204713D02*
X171719314Y-75299952D01*
X171719314Y-75299952D02*
X171862171Y-75347571D01*
X171862171Y-75347571D02*
X171957409Y-75347571D01*
X171957409Y-75347571D02*
X172100266Y-75299952D01*
X172100266Y-75299952D02*
X172147885Y-75252332D01*
X172147885Y-75252332D02*
X172147885Y-74918999D01*
X172147885Y-74918999D02*
X171957409Y-74918999D01*
X172576457Y-75347571D02*
X172576457Y-74347571D01*
X172576457Y-74347571D02*
X173147885Y-75347571D01*
X173147885Y-75347571D02*
X173147885Y-74347571D01*
X173624076Y-75347571D02*
X173624076Y-74347571D01*
X173624076Y-74347571D02*
X173862171Y-74347571D01*
X173862171Y-74347571D02*
X174005028Y-74395190D01*
X174005028Y-74395190D02*
X174100266Y-74490428D01*
X174100266Y-74490428D02*
X174147885Y-74585666D01*
X174147885Y-74585666D02*
X174195504Y-74776142D01*
X174195504Y-74776142D02*
X174195504Y-74918999D01*
X174195504Y-74918999D02*
X174147885Y-75109475D01*
X174147885Y-75109475D02*
X174100266Y-75204713D01*
X174100266Y-75204713D02*
X174005028Y-75299952D01*
X174005028Y-75299952D02*
X173862171Y-75347571D01*
X173862171Y-75347571D02*
X173624076Y-75347571D01*
X126032150Y-71867081D02*
X126270245Y-72867081D01*
X126270245Y-72867081D02*
X126460721Y-72152795D01*
X126460721Y-72152795D02*
X126651197Y-72867081D01*
X126651197Y-72867081D02*
X126889293Y-71867081D01*
X127175007Y-71867081D02*
X127794054Y-71867081D01*
X127794054Y-71867081D02*
X127460721Y-72248033D01*
X127460721Y-72248033D02*
X127603578Y-72248033D01*
X127603578Y-72248033D02*
X127698816Y-72295652D01*
X127698816Y-72295652D02*
X127746435Y-72343271D01*
X127746435Y-72343271D02*
X127794054Y-72438509D01*
X127794054Y-72438509D02*
X127794054Y-72676604D01*
X127794054Y-72676604D02*
X127746435Y-72771842D01*
X127746435Y-72771842D02*
X127698816Y-72819462D01*
X127698816Y-72819462D02*
X127603578Y-72867081D01*
X127603578Y-72867081D02*
X127317864Y-72867081D01*
X127317864Y-72867081D02*
X127222626Y-72819462D01*
X127222626Y-72819462D02*
X127175007Y-72771842D01*
X172108207Y-108419819D02*
X171774874Y-107943628D01*
X171536779Y-108419819D02*
X171536779Y-107419819D01*
X171536779Y-107419819D02*
X171917731Y-107419819D01*
X171917731Y-107419819D02*
X172012969Y-107467438D01*
X172012969Y-107467438D02*
X172060588Y-107515057D01*
X172060588Y-107515057D02*
X172108207Y-107610295D01*
X172108207Y-107610295D02*
X172108207Y-107753152D01*
X172108207Y-107753152D02*
X172060588Y-107848390D01*
X172060588Y-107848390D02*
X172012969Y-107896009D01*
X172012969Y-107896009D02*
X171917731Y-107943628D01*
X171917731Y-107943628D02*
X171536779Y-107943628D01*
X172441541Y-107419819D02*
X173108207Y-108419819D01*
X173108207Y-107419819D02*
X172441541Y-108419819D01*
X172060588Y-113467438D02*
X171965350Y-113419819D01*
X171965350Y-113419819D02*
X171822493Y-113419819D01*
X171822493Y-113419819D02*
X171679636Y-113467438D01*
X171679636Y-113467438D02*
X171584398Y-113562676D01*
X171584398Y-113562676D02*
X171536779Y-113657914D01*
X171536779Y-113657914D02*
X171489160Y-113848390D01*
X171489160Y-113848390D02*
X171489160Y-113991247D01*
X171489160Y-113991247D02*
X171536779Y-114181723D01*
X171536779Y-114181723D02*
X171584398Y-114276961D01*
X171584398Y-114276961D02*
X171679636Y-114372200D01*
X171679636Y-114372200D02*
X171822493Y-114419819D01*
X171822493Y-114419819D02*
X171917731Y-114419819D01*
X171917731Y-114419819D02*
X172060588Y-114372200D01*
X172060588Y-114372200D02*
X172108207Y-114324580D01*
X172108207Y-114324580D02*
X172108207Y-113991247D01*
X172108207Y-113991247D02*
X171917731Y-113991247D01*
X172536779Y-114419819D02*
X172536779Y-113419819D01*
X172536779Y-113419819D02*
X173108207Y-114419819D01*
X173108207Y-114419819D02*
X173108207Y-113419819D01*
X173584398Y-114419819D02*
X173584398Y-113419819D01*
X173584398Y-113419819D02*
X173822493Y-113419819D01*
X173822493Y-113419819D02*
X173965350Y-113467438D01*
X173965350Y-113467438D02*
X174060588Y-113562676D01*
X174060588Y-113562676D02*
X174108207Y-113657914D01*
X174108207Y-113657914D02*
X174155826Y-113848390D01*
X174155826Y-113848390D02*
X174155826Y-113991247D01*
X174155826Y-113991247D02*
X174108207Y-114181723D01*
X174108207Y-114181723D02*
X174060588Y-114276961D01*
X174060588Y-114276961D02*
X173965350Y-114372200D01*
X173965350Y-114372200D02*
X173822493Y-114419819D01*
X173822493Y-114419819D02*
X173584398Y-114419819D01*
X172087096Y-98448672D02*
X171991858Y-98401053D01*
X171991858Y-98401053D02*
X171849001Y-98401053D01*
X171849001Y-98401053D02*
X171706144Y-98448672D01*
X171706144Y-98448672D02*
X171610906Y-98543910D01*
X171610906Y-98543910D02*
X171563287Y-98639148D01*
X171563287Y-98639148D02*
X171515668Y-98829624D01*
X171515668Y-98829624D02*
X171515668Y-98972481D01*
X171515668Y-98972481D02*
X171563287Y-99162957D01*
X171563287Y-99162957D02*
X171610906Y-99258195D01*
X171610906Y-99258195D02*
X171706144Y-99353434D01*
X171706144Y-99353434D02*
X171849001Y-99401053D01*
X171849001Y-99401053D02*
X171944239Y-99401053D01*
X171944239Y-99401053D02*
X172087096Y-99353434D01*
X172087096Y-99353434D02*
X172134715Y-99305814D01*
X172134715Y-99305814D02*
X172134715Y-98972481D01*
X172134715Y-98972481D02*
X171944239Y-98972481D01*
X172563287Y-99401053D02*
X172563287Y-98401053D01*
X172563287Y-98401053D02*
X173134715Y-99401053D01*
X173134715Y-99401053D02*
X173134715Y-98401053D01*
X173610906Y-99401053D02*
X173610906Y-98401053D01*
X173610906Y-98401053D02*
X173849001Y-98401053D01*
X173849001Y-98401053D02*
X173991858Y-98448672D01*
X173991858Y-98448672D02*
X174087096Y-98543910D01*
X174087096Y-98543910D02*
X174134715Y-98639148D01*
X174134715Y-98639148D02*
X174182334Y-98829624D01*
X174182334Y-98829624D02*
X174182334Y-98972481D01*
X174182334Y-98972481D02*
X174134715Y-99162957D01*
X174134715Y-99162957D02*
X174087096Y-99258195D01*
X174087096Y-99258195D02*
X173991858Y-99353434D01*
X173991858Y-99353434D02*
X173849001Y-99401053D01*
X173849001Y-99401053D02*
X173610906Y-99401053D01*
X171586779Y-112369819D02*
X171586779Y-111369819D01*
X172253445Y-111369819D02*
X172443921Y-111369819D01*
X172443921Y-111369819D02*
X172539159Y-111417438D01*
X172539159Y-111417438D02*
X172634397Y-111512676D01*
X172634397Y-111512676D02*
X172682016Y-111703152D01*
X172682016Y-111703152D02*
X172682016Y-112036485D01*
X172682016Y-112036485D02*
X172634397Y-112226961D01*
X172634397Y-112226961D02*
X172539159Y-112322200D01*
X172539159Y-112322200D02*
X172443921Y-112369819D01*
X172443921Y-112369819D02*
X172253445Y-112369819D01*
X172253445Y-112369819D02*
X172158207Y-112322200D01*
X172158207Y-112322200D02*
X172062969Y-112226961D01*
X172062969Y-112226961D02*
X172015350Y-112036485D01*
X172015350Y-112036485D02*
X172015350Y-111703152D01*
X172015350Y-111703152D02*
X172062969Y-111512676D01*
X172062969Y-111512676D02*
X172158207Y-111417438D01*
X172158207Y-111417438D02*
X172253445Y-111369819D01*
X172872493Y-112465057D02*
X173634397Y-112465057D01*
X173824874Y-111465057D02*
X173872493Y-111417438D01*
X173872493Y-111417438D02*
X173967731Y-111369819D01*
X173967731Y-111369819D02*
X174205826Y-111369819D01*
X174205826Y-111369819D02*
X174301064Y-111417438D01*
X174301064Y-111417438D02*
X174348683Y-111465057D01*
X174348683Y-111465057D02*
X174396302Y-111560295D01*
X174396302Y-111560295D02*
X174396302Y-111655533D01*
X174396302Y-111655533D02*
X174348683Y-111798390D01*
X174348683Y-111798390D02*
X173777255Y-112369819D01*
X173777255Y-112369819D02*
X174396302Y-112369819D01*
X175253445Y-111369819D02*
X175062969Y-111369819D01*
X175062969Y-111369819D02*
X174967731Y-111417438D01*
X174967731Y-111417438D02*
X174920112Y-111465057D01*
X174920112Y-111465057D02*
X174824874Y-111607914D01*
X174824874Y-111607914D02*
X174777255Y-111798390D01*
X174777255Y-111798390D02*
X174777255Y-112179342D01*
X174777255Y-112179342D02*
X174824874Y-112274580D01*
X174824874Y-112274580D02*
X174872493Y-112322200D01*
X174872493Y-112322200D02*
X174967731Y-112369819D01*
X174967731Y-112369819D02*
X175158207Y-112369819D01*
X175158207Y-112369819D02*
X175253445Y-112322200D01*
X175253445Y-112322200D02*
X175301064Y-112274580D01*
X175301064Y-112274580D02*
X175348683Y-112179342D01*
X175348683Y-112179342D02*
X175348683Y-111941247D01*
X175348683Y-111941247D02*
X175301064Y-111846009D01*
X175301064Y-111846009D02*
X175253445Y-111798390D01*
X175253445Y-111798390D02*
X175158207Y-111750771D01*
X175158207Y-111750771D02*
X174967731Y-111750771D01*
X174967731Y-111750771D02*
X174872493Y-111798390D01*
X174872493Y-111798390D02*
X174824874Y-111846009D01*
X174824874Y-111846009D02*
X174777255Y-111941247D01*
X171813149Y-92799121D02*
X171956006Y-92846740D01*
X171956006Y-92846740D02*
X172003625Y-92894359D01*
X172003625Y-92894359D02*
X172051244Y-92989597D01*
X172051244Y-92989597D02*
X172051244Y-93132454D01*
X172051244Y-93132454D02*
X172003625Y-93227692D01*
X172003625Y-93227692D02*
X171956006Y-93275312D01*
X171956006Y-93275312D02*
X171860768Y-93322931D01*
X171860768Y-93322931D02*
X171479816Y-93322931D01*
X171479816Y-93322931D02*
X171479816Y-92322931D01*
X171479816Y-92322931D02*
X171813149Y-92322931D01*
X171813149Y-92322931D02*
X171908387Y-92370550D01*
X171908387Y-92370550D02*
X171956006Y-92418169D01*
X171956006Y-92418169D02*
X172003625Y-92513407D01*
X172003625Y-92513407D02*
X172003625Y-92608645D01*
X172003625Y-92608645D02*
X171956006Y-92703883D01*
X171956006Y-92703883D02*
X171908387Y-92751502D01*
X171908387Y-92751502D02*
X171813149Y-92799121D01*
X171813149Y-92799121D02*
X171479816Y-92799121D01*
X172479816Y-93322931D02*
X172479816Y-92656264D01*
X172479816Y-92846740D02*
X172527435Y-92751502D01*
X172527435Y-92751502D02*
X172575054Y-92703883D01*
X172575054Y-92703883D02*
X172670292Y-92656264D01*
X172670292Y-92656264D02*
X172765530Y-92656264D01*
X173098864Y-93322931D02*
X173098864Y-92656264D01*
X173098864Y-92322931D02*
X173051245Y-92370550D01*
X173051245Y-92370550D02*
X173098864Y-92418169D01*
X173098864Y-92418169D02*
X173146483Y-92370550D01*
X173146483Y-92370550D02*
X173098864Y-92322931D01*
X173098864Y-92322931D02*
X173098864Y-92418169D01*
X174003625Y-92656264D02*
X174003625Y-93465788D01*
X174003625Y-93465788D02*
X173956006Y-93561026D01*
X173956006Y-93561026D02*
X173908387Y-93608645D01*
X173908387Y-93608645D02*
X173813149Y-93656264D01*
X173813149Y-93656264D02*
X173670292Y-93656264D01*
X173670292Y-93656264D02*
X173575054Y-93608645D01*
X174003625Y-93275312D02*
X173908387Y-93322931D01*
X173908387Y-93322931D02*
X173717911Y-93322931D01*
X173717911Y-93322931D02*
X173622673Y-93275312D01*
X173622673Y-93275312D02*
X173575054Y-93227692D01*
X173575054Y-93227692D02*
X173527435Y-93132454D01*
X173527435Y-93132454D02*
X173527435Y-92846740D01*
X173527435Y-92846740D02*
X173575054Y-92751502D01*
X173575054Y-92751502D02*
X173622673Y-92703883D01*
X173622673Y-92703883D02*
X173717911Y-92656264D01*
X173717911Y-92656264D02*
X173908387Y-92656264D01*
X173908387Y-92656264D02*
X174003625Y-92703883D01*
X174479816Y-93322931D02*
X174479816Y-92322931D01*
X174908387Y-93322931D02*
X174908387Y-92799121D01*
X174908387Y-92799121D02*
X174860768Y-92703883D01*
X174860768Y-92703883D02*
X174765530Y-92656264D01*
X174765530Y-92656264D02*
X174622673Y-92656264D01*
X174622673Y-92656264D02*
X174527435Y-92703883D01*
X174527435Y-92703883D02*
X174479816Y-92751502D01*
X175241721Y-92656264D02*
X175622673Y-92656264D01*
X175384578Y-92322931D02*
X175384578Y-93180073D01*
X175384578Y-93180073D02*
X175432197Y-93275312D01*
X175432197Y-93275312D02*
X175527435Y-93322931D01*
X175527435Y-93322931D02*
X175622673Y-93322931D01*
X171586779Y-110419819D02*
X171586779Y-109419819D01*
X172253445Y-109419819D02*
X172443921Y-109419819D01*
X172443921Y-109419819D02*
X172539159Y-109467438D01*
X172539159Y-109467438D02*
X172634397Y-109562676D01*
X172634397Y-109562676D02*
X172682016Y-109753152D01*
X172682016Y-109753152D02*
X172682016Y-110086485D01*
X172682016Y-110086485D02*
X172634397Y-110276961D01*
X172634397Y-110276961D02*
X172539159Y-110372200D01*
X172539159Y-110372200D02*
X172443921Y-110419819D01*
X172443921Y-110419819D02*
X172253445Y-110419819D01*
X172253445Y-110419819D02*
X172158207Y-110372200D01*
X172158207Y-110372200D02*
X172062969Y-110276961D01*
X172062969Y-110276961D02*
X172015350Y-110086485D01*
X172015350Y-110086485D02*
X172015350Y-109753152D01*
X172015350Y-109753152D02*
X172062969Y-109562676D01*
X172062969Y-109562676D02*
X172158207Y-109467438D01*
X172158207Y-109467438D02*
X172253445Y-109419819D01*
X172872493Y-110515057D02*
X173634397Y-110515057D01*
X174396302Y-110419819D02*
X173824874Y-110419819D01*
X174110588Y-110419819D02*
X174110588Y-109419819D01*
X174110588Y-109419819D02*
X174015350Y-109562676D01*
X174015350Y-109562676D02*
X173920112Y-109657914D01*
X173920112Y-109657914D02*
X173824874Y-109705533D01*
X175253445Y-109419819D02*
X175062969Y-109419819D01*
X175062969Y-109419819D02*
X174967731Y-109467438D01*
X174967731Y-109467438D02*
X174920112Y-109515057D01*
X174920112Y-109515057D02*
X174824874Y-109657914D01*
X174824874Y-109657914D02*
X174777255Y-109848390D01*
X174777255Y-109848390D02*
X174777255Y-110229342D01*
X174777255Y-110229342D02*
X174824874Y-110324580D01*
X174824874Y-110324580D02*
X174872493Y-110372200D01*
X174872493Y-110372200D02*
X174967731Y-110419819D01*
X174967731Y-110419819D02*
X175158207Y-110419819D01*
X175158207Y-110419819D02*
X175253445Y-110372200D01*
X175253445Y-110372200D02*
X175301064Y-110324580D01*
X175301064Y-110324580D02*
X175348683Y-110229342D01*
X175348683Y-110229342D02*
X175348683Y-109991247D01*
X175348683Y-109991247D02*
X175301064Y-109896009D01*
X175301064Y-109896009D02*
X175253445Y-109848390D01*
X175253445Y-109848390D02*
X175158207Y-109800771D01*
X175158207Y-109800771D02*
X174967731Y-109800771D01*
X174967731Y-109800771D02*
X174872493Y-109848390D01*
X174872493Y-109848390D02*
X174824874Y-109896009D01*
X174824874Y-109896009D02*
X174777255Y-109991247D01*
X171433600Y-94320193D02*
X172005028Y-94320193D01*
X171719314Y-95320193D02*
X171719314Y-94320193D01*
X172338362Y-95320193D02*
X172338362Y-94653526D01*
X172338362Y-94320193D02*
X172290743Y-94367812D01*
X172290743Y-94367812D02*
X172338362Y-94415431D01*
X172338362Y-94415431D02*
X172385981Y-94367812D01*
X172385981Y-94367812D02*
X172338362Y-94320193D01*
X172338362Y-94320193D02*
X172338362Y-94415431D01*
X172814552Y-95320193D02*
X172814552Y-94653526D01*
X172814552Y-94748764D02*
X172862171Y-94701145D01*
X172862171Y-94701145D02*
X172957409Y-94653526D01*
X172957409Y-94653526D02*
X173100266Y-94653526D01*
X173100266Y-94653526D02*
X173195504Y-94701145D01*
X173195504Y-94701145D02*
X173243123Y-94796383D01*
X173243123Y-94796383D02*
X173243123Y-95320193D01*
X173243123Y-94796383D02*
X173290742Y-94701145D01*
X173290742Y-94701145D02*
X173385980Y-94653526D01*
X173385980Y-94653526D02*
X173528837Y-94653526D01*
X173528837Y-94653526D02*
X173624076Y-94701145D01*
X173624076Y-94701145D02*
X173671695Y-94796383D01*
X173671695Y-94796383D02*
X173671695Y-95320193D01*
X174528837Y-95272574D02*
X174433599Y-95320193D01*
X174433599Y-95320193D02*
X174243123Y-95320193D01*
X174243123Y-95320193D02*
X174147885Y-95272574D01*
X174147885Y-95272574D02*
X174100266Y-95177335D01*
X174100266Y-95177335D02*
X174100266Y-94796383D01*
X174100266Y-94796383D02*
X174147885Y-94701145D01*
X174147885Y-94701145D02*
X174243123Y-94653526D01*
X174243123Y-94653526D02*
X174433599Y-94653526D01*
X174433599Y-94653526D02*
X174528837Y-94701145D01*
X174528837Y-94701145D02*
X174576456Y-94796383D01*
X174576456Y-94796383D02*
X174576456Y-94891621D01*
X174576456Y-94891621D02*
X174100266Y-94986859D01*
X175005028Y-94939240D02*
X175766933Y-94939240D01*
X175385980Y-95320193D02*
X175385980Y-94558288D01*
X171487555Y-105348555D02*
X172058983Y-105348555D01*
X171773269Y-106348555D02*
X171773269Y-105348555D01*
X172297079Y-105348555D02*
X172963745Y-106348555D01*
X172963745Y-105348555D02*
X172297079Y-106348555D01*
X171561052Y-79294477D02*
X171703909Y-79342096D01*
X171703909Y-79342096D02*
X171942004Y-79342096D01*
X171942004Y-79342096D02*
X172037242Y-79294477D01*
X172037242Y-79294477D02*
X172084861Y-79246857D01*
X172084861Y-79246857D02*
X172132480Y-79151619D01*
X172132480Y-79151619D02*
X172132480Y-79056381D01*
X172132480Y-79056381D02*
X172084861Y-78961143D01*
X172084861Y-78961143D02*
X172037242Y-78913524D01*
X172037242Y-78913524D02*
X171942004Y-78865905D01*
X171942004Y-78865905D02*
X171751528Y-78818286D01*
X171751528Y-78818286D02*
X171656290Y-78770667D01*
X171656290Y-78770667D02*
X171608671Y-78723048D01*
X171608671Y-78723048D02*
X171561052Y-78627810D01*
X171561052Y-78627810D02*
X171561052Y-78532572D01*
X171561052Y-78532572D02*
X171608671Y-78437334D01*
X171608671Y-78437334D02*
X171656290Y-78389715D01*
X171656290Y-78389715D02*
X171751528Y-78342096D01*
X171751528Y-78342096D02*
X171989623Y-78342096D01*
X171989623Y-78342096D02*
X172132480Y-78389715D01*
X172561052Y-79342096D02*
X172561052Y-78342096D01*
X172561052Y-78342096D02*
X172799147Y-78342096D01*
X172799147Y-78342096D02*
X172942004Y-78389715D01*
X172942004Y-78389715D02*
X173037242Y-78484953D01*
X173037242Y-78484953D02*
X173084861Y-78580191D01*
X173084861Y-78580191D02*
X173132480Y-78770667D01*
X173132480Y-78770667D02*
X173132480Y-78913524D01*
X173132480Y-78913524D02*
X173084861Y-79104000D01*
X173084861Y-79104000D02*
X173037242Y-79199238D01*
X173037242Y-79199238D02*
X172942004Y-79294477D01*
X172942004Y-79294477D02*
X172799147Y-79342096D01*
X172799147Y-79342096D02*
X172561052Y-79342096D01*
X173513433Y-79056381D02*
X173989623Y-79056381D01*
X173418195Y-79342096D02*
X173751528Y-78342096D01*
X173751528Y-78342096D02*
X174084861Y-79342096D01*
X171465814Y-96349669D02*
X172037242Y-96349669D01*
X171751528Y-97349669D02*
X171751528Y-96349669D01*
X172370576Y-97349669D02*
X172370576Y-96683002D01*
X172370576Y-96349669D02*
X172322957Y-96397288D01*
X172322957Y-96397288D02*
X172370576Y-96444907D01*
X172370576Y-96444907D02*
X172418195Y-96397288D01*
X172418195Y-96397288D02*
X172370576Y-96349669D01*
X172370576Y-96349669D02*
X172370576Y-96444907D01*
X172846766Y-97349669D02*
X172846766Y-96683002D01*
X172846766Y-96778240D02*
X172894385Y-96730621D01*
X172894385Y-96730621D02*
X172989623Y-96683002D01*
X172989623Y-96683002D02*
X173132480Y-96683002D01*
X173132480Y-96683002D02*
X173227718Y-96730621D01*
X173227718Y-96730621D02*
X173275337Y-96825859D01*
X173275337Y-96825859D02*
X173275337Y-97349669D01*
X173275337Y-96825859D02*
X173322956Y-96730621D01*
X173322956Y-96730621D02*
X173418194Y-96683002D01*
X173418194Y-96683002D02*
X173561051Y-96683002D01*
X173561051Y-96683002D02*
X173656290Y-96730621D01*
X173656290Y-96730621D02*
X173703909Y-96825859D01*
X173703909Y-96825859D02*
X173703909Y-97349669D01*
X174561051Y-97302050D02*
X174465813Y-97349669D01*
X174465813Y-97349669D02*
X174275337Y-97349669D01*
X174275337Y-97349669D02*
X174180099Y-97302050D01*
X174180099Y-97302050D02*
X174132480Y-97206811D01*
X174132480Y-97206811D02*
X174132480Y-96825859D01*
X174132480Y-96825859D02*
X174180099Y-96730621D01*
X174180099Y-96730621D02*
X174275337Y-96683002D01*
X174275337Y-96683002D02*
X174465813Y-96683002D01*
X174465813Y-96683002D02*
X174561051Y-96730621D01*
X174561051Y-96730621D02*
X174608670Y-96825859D01*
X174608670Y-96825859D02*
X174608670Y-96921097D01*
X174608670Y-96921097D02*
X174132480Y-97016335D01*
X175037242Y-96968716D02*
X175799147Y-96968716D01*
X125652566Y-67855748D02*
X125557328Y-67808129D01*
X125557328Y-67808129D02*
X125414471Y-67808129D01*
X125414471Y-67808129D02*
X125271614Y-67855748D01*
X125271614Y-67855748D02*
X125176376Y-67950986D01*
X125176376Y-67950986D02*
X125128757Y-68046224D01*
X125128757Y-68046224D02*
X125081138Y-68236700D01*
X125081138Y-68236700D02*
X125081138Y-68379557D01*
X125081138Y-68379557D02*
X125128757Y-68570033D01*
X125128757Y-68570033D02*
X125176376Y-68665271D01*
X125176376Y-68665271D02*
X125271614Y-68760510D01*
X125271614Y-68760510D02*
X125414471Y-68808129D01*
X125414471Y-68808129D02*
X125509709Y-68808129D01*
X125509709Y-68808129D02*
X125652566Y-68760510D01*
X125652566Y-68760510D02*
X125700185Y-68712890D01*
X125700185Y-68712890D02*
X125700185Y-68379557D01*
X125700185Y-68379557D02*
X125509709Y-68379557D01*
X126128757Y-68808129D02*
X126128757Y-67808129D01*
X126128757Y-67808129D02*
X126700185Y-68808129D01*
X126700185Y-68808129D02*
X126700185Y-67808129D01*
X127176376Y-68808129D02*
X127176376Y-67808129D01*
X127176376Y-67808129D02*
X127414471Y-67808129D01*
X127414471Y-67808129D02*
X127557328Y-67855748D01*
X127557328Y-67855748D02*
X127652566Y-67950986D01*
X127652566Y-67950986D02*
X127700185Y-68046224D01*
X127700185Y-68046224D02*
X127747804Y-68236700D01*
X127747804Y-68236700D02*
X127747804Y-68379557D01*
X127747804Y-68379557D02*
X127700185Y-68570033D01*
X127700185Y-68570033D02*
X127652566Y-68665271D01*
X127652566Y-68665271D02*
X127557328Y-68760510D01*
X127557328Y-68760510D02*
X127414471Y-68808129D01*
X127414471Y-68808129D02*
X127176376Y-68808129D01*
X126032150Y-69902032D02*
X126270245Y-70902032D01*
X126270245Y-70902032D02*
X126460721Y-70187746D01*
X126460721Y-70187746D02*
X126651197Y-70902032D01*
X126651197Y-70902032D02*
X126889293Y-69902032D01*
X127698816Y-70235365D02*
X127698816Y-70902032D01*
X127460721Y-69854413D02*
X127222626Y-70568698D01*
X127222626Y-70568698D02*
X127841673Y-70568698D01*
X126032150Y-73864343D02*
X126270245Y-74864343D01*
X126270245Y-74864343D02*
X126460721Y-74150057D01*
X126460721Y-74150057D02*
X126651197Y-74864343D01*
X126651197Y-74864343D02*
X126889293Y-73864343D01*
X127222626Y-73959581D02*
X127270245Y-73911962D01*
X127270245Y-73911962D02*
X127365483Y-73864343D01*
X127365483Y-73864343D02*
X127603578Y-73864343D01*
X127603578Y-73864343D02*
X127698816Y-73911962D01*
X127698816Y-73911962D02*
X127746435Y-73959581D01*
X127746435Y-73959581D02*
X127794054Y-74054819D01*
X127794054Y-74054819D02*
X127794054Y-74150057D01*
X127794054Y-74150057D02*
X127746435Y-74292914D01*
X127746435Y-74292914D02*
X127175007Y-74864343D01*
X127175007Y-74864343D02*
X127794054Y-74864343D01*
D11*
G36*
X112137686Y-92629937D02*
G01*
X112158325Y-92583408D01*
X112178042Y-92565447D01*
X112200579Y-92556053D01*
X113060680Y-92554710D01*
X113921880Y-92554710D01*
X113961546Y-92551652D01*
X113995258Y-92563887D01*
X114025806Y-92592934D01*
X114043458Y-92629482D01*
X114041239Y-92662181D01*
X114018967Y-92695516D01*
X113775579Y-92983967D01*
X113521322Y-93288904D01*
X113519979Y-93500785D01*
X113519979Y-93714009D01*
X113519979Y-93755041D01*
X113519979Y-93801570D01*
X113514483Y-93842602D01*
X113495310Y-93878140D01*
X113458429Y-93900000D01*
X112848677Y-93900000D01*
X112814483Y-93900000D01*
X112773572Y-93900000D01*
X112738035Y-93895969D01*
X112702376Y-93883635D01*
X112680516Y-93861775D01*
X112665495Y-93823429D01*
X112664152Y-93547313D01*
X112662686Y-93271074D01*
X112509668Y-93100226D01*
X112392065Y-92964794D01*
X112303161Y-92863677D01*
X112199235Y-92746074D01*
X112161511Y-92688109D01*
X112137686Y-92629937D01*
G37*
G36*
X112151364Y-91862892D02*
G01*
X112160039Y-91824130D01*
X112188367Y-91784979D01*
X112325655Y-91685850D01*
X112473390Y-91604922D01*
X112632722Y-91541707D01*
X112805087Y-91496259D01*
X112992170Y-91469173D01*
X113033325Y-91469173D01*
X113082418Y-91465020D01*
X113117955Y-91455495D01*
X113332423Y-91483017D01*
X113525268Y-91530350D01*
X113699009Y-91596301D01*
X113760558Y-91627808D01*
X113826259Y-91660659D01*
X113886465Y-91696196D01*
X113946549Y-91739916D01*
X113993077Y-91786322D01*
X114032644Y-91846528D01*
X114023876Y-91899111D01*
X113998450Y-91928471D01*
X113960790Y-91941377D01*
X113915041Y-91936775D01*
X113872431Y-91915911D01*
X113837128Y-91883408D01*
X113676659Y-91783552D01*
X113505056Y-91711610D01*
X113320189Y-91666797D01*
X113119420Y-91649668D01*
X112918098Y-91661273D01*
X112731855Y-91700665D01*
X112558112Y-91767201D01*
X112394752Y-91861549D01*
X112331859Y-91912107D01*
X112258098Y-91944958D01*
X112221319Y-91948284D01*
X112189710Y-91936775D01*
X112166260Y-91910880D01*
X112151364Y-91862892D01*
G37*
G36*
X112353719Y-92088450D02*
G01*
X112359538Y-92058101D01*
X112377044Y-92032397D01*
X112515321Y-91936636D01*
X112658630Y-91866671D01*
X112808359Y-91820859D01*
X112966280Y-91798656D01*
X113092873Y-91786342D01*
X113221013Y-91791216D01*
X113351817Y-91813677D01*
X113479361Y-91851607D01*
X113600337Y-91903010D01*
X113715495Y-91968161D01*
X113755990Y-91983811D01*
X113781513Y-92010377D01*
X113794752Y-92050226D01*
X113791802Y-92105530D01*
X113764710Y-92148656D01*
X113734234Y-92167444D01*
X113700647Y-92168570D01*
X113659441Y-92150000D01*
X113541950Y-92074612D01*
X113417519Y-92018368D01*
X113284920Y-91980579D01*
X113142623Y-91961322D01*
X112999103Y-91961943D01*
X112863444Y-91982738D01*
X112734022Y-92023380D01*
X112609441Y-92084420D01*
X112541053Y-92130826D01*
X112464483Y-92165020D01*
X112425025Y-92171472D01*
X112392065Y-92160990D01*
X112368478Y-92135257D01*
X112353719Y-92088450D01*
G37*
G36*
X112627149Y-92323656D02*
G01*
X112638309Y-92278914D01*
X112664152Y-92249773D01*
X112788197Y-92187096D01*
X112919709Y-92146656D01*
X113060558Y-92128140D01*
X113202013Y-92133554D01*
X113334752Y-92164013D01*
X113461116Y-92219731D01*
X113500105Y-92232373D01*
X113527691Y-92256342D01*
X113545990Y-92293614D01*
X113550512Y-92348414D01*
X113529504Y-92390579D01*
X113493227Y-92411479D01*
X113440722Y-92407065D01*
X113351743Y-92357075D01*
X113255610Y-92323382D01*
X113150806Y-92305826D01*
X113044401Y-92305129D01*
X112943258Y-92321115D01*
X112845990Y-92353698D01*
X112784441Y-92387892D01*
X112713367Y-92404256D01*
X112680338Y-92402088D01*
X112654504Y-92387892D01*
X112635971Y-92362902D01*
X112627149Y-92323656D01*
G37*
G36*
X141873233Y-64646819D02*
G01*
X142094700Y-67227764D01*
X139412364Y-69507282D01*
X141873233Y-64646819D01*
G37*
G36*
X144275850Y-69661155D02*
G01*
X139400000Y-69661155D01*
X140965657Y-68326032D01*
X144275850Y-69661155D01*
G37*
G36*
X144438790Y-69614993D02*
G01*
X142343920Y-68768967D01*
X141983967Y-64730075D01*
X144438790Y-69614993D01*
G37*
G36*
X142230163Y-68725827D02*
G01*
X141054959Y-68255141D01*
X142110088Y-67350862D01*
X142230163Y-68725827D01*
G37*
G36*
X149177077Y-64725309D02*
G01*
X149228087Y-64745463D01*
X151128968Y-65840434D01*
X151176825Y-65877325D01*
X151224590Y-65942100D01*
X151212225Y-65951168D01*
X151227612Y-66052834D01*
X151227612Y-68249096D01*
X151193815Y-68372194D01*
X151157433Y-68426408D01*
X151113856Y-68461495D01*
X149225065Y-69562512D01*
X149101967Y-69590264D01*
X149029879Y-69582666D01*
X148978868Y-69562512D01*
X147080735Y-68461495D01*
X147007096Y-68387581D01*
X147016163Y-68384559D01*
X146988795Y-68322331D01*
X146979344Y-68249096D01*
X146979344Y-67150827D01*
X147551421Y-67150827D01*
X147574916Y-67426150D01*
X147644406Y-67684269D01*
X147760524Y-67929260D01*
X147916775Y-68151326D01*
X148104662Y-68340170D01*
X148326831Y-68498315D01*
X148571647Y-68614424D01*
X148829671Y-68683918D01*
X149104989Y-68707418D01*
X149384038Y-68684863D01*
X149643942Y-68614334D01*
X149889192Y-68495293D01*
X150111477Y-68335415D01*
X150298297Y-68146491D01*
X150452477Y-67926237D01*
X149944696Y-67627834D01*
X149794594Y-67827177D01*
X149594085Y-67984764D01*
X149439784Y-68059602D01*
X149277669Y-68103462D01*
X149104989Y-68116930D01*
X148852097Y-68085216D01*
X148628066Y-67992053D01*
X148425200Y-67833913D01*
X148267238Y-67630981D01*
X148173987Y-67405898D01*
X148142184Y-67150827D01*
X148173898Y-66897936D01*
X148267060Y-66673905D01*
X148425200Y-66471038D01*
X148628066Y-66312898D01*
X148852097Y-66219736D01*
X149104989Y-66188022D01*
X149359843Y-66221964D01*
X149594085Y-66323485D01*
X149794582Y-66480854D01*
X149944696Y-66680141D01*
X150455499Y-66385034D01*
X150301103Y-66162939D01*
X150113400Y-65973045D01*
X149889467Y-65812957D01*
X149642154Y-65693214D01*
X149382063Y-65621690D01*
X149104989Y-65597534D01*
X148792435Y-65626528D01*
X148509039Y-65711317D01*
X148248597Y-65851945D01*
X148006721Y-66052834D01*
X147805818Y-66294714D01*
X147665192Y-66555113D01*
X147580410Y-66838419D01*
X147551421Y-67150827D01*
X146979344Y-67150827D01*
X146979344Y-66055856D01*
X147010118Y-65935780D01*
X147046912Y-65881192D01*
X147093100Y-65843456D01*
X148984913Y-64745463D01*
X149104989Y-64717711D01*
X149177077Y-64725309D01*
G37*
G36*
X159440583Y-66929360D02*
G01*
X159512462Y-67036515D01*
X159535929Y-67157147D01*
X159512453Y-67277733D01*
X159440583Y-67384659D01*
X157278118Y-69544102D01*
X157170713Y-69618574D01*
X157050331Y-69642745D01*
X156930517Y-69618469D01*
X156825841Y-69544102D01*
X154657056Y-67372295D01*
X154583010Y-67270364D01*
X154558688Y-67151102D01*
X154582176Y-67030280D01*
X154654034Y-66923315D01*
X156143030Y-65434319D01*
X156702743Y-65994307D01*
X156672781Y-66101568D01*
X156674991Y-66215774D01*
X156709915Y-66323668D01*
X156776657Y-66412512D01*
X156890413Y-66498790D01*
X156890413Y-67858368D01*
X156776657Y-67944647D01*
X156695266Y-68067295D01*
X156671968Y-68215299D01*
X156704555Y-68363297D01*
X156789022Y-68485950D01*
X156911686Y-68568851D01*
X157059673Y-68596684D01*
X157207661Y-68568851D01*
X157330325Y-68485950D01*
X157413225Y-68363286D01*
X157441058Y-68215299D01*
X157413225Y-68067311D01*
X157330325Y-67944647D01*
X157228934Y-67870733D01*
X157228934Y-66523245D01*
X157742485Y-67034049D01*
X157711710Y-67181602D01*
X157739823Y-67324677D01*
X157825466Y-67449231D01*
X157950209Y-67534896D01*
X158093095Y-67562987D01*
X158238582Y-67534090D01*
X158364022Y-67446209D01*
X158446724Y-67328541D01*
X158474755Y-67181602D01*
X158446922Y-67033614D01*
X158364022Y-66910950D01*
X158276851Y-66844715D01*
X158176352Y-66806536D01*
X158070324Y-66797233D01*
X157970272Y-66818627D01*
X157419626Y-66271004D01*
X157441058Y-66141860D01*
X157413500Y-65999072D01*
X157330325Y-65877254D01*
X157245193Y-65811312D01*
X157142655Y-65772840D01*
X157034435Y-65763649D01*
X156936575Y-65785204D01*
X156367520Y-65212852D01*
X156816499Y-64763872D01*
X156923883Y-64689617D01*
X157044286Y-64665504D01*
X157164122Y-64689721D01*
X157268776Y-64763872D01*
X159440583Y-66929360D01*
G37*
D10*
X123324819Y-77816666D02*
X122848628Y-78149999D01*
X123324819Y-78388094D02*
X122324819Y-78388094D01*
X122324819Y-78388094D02*
X122324819Y-78007142D01*
X122324819Y-78007142D02*
X122372438Y-77911904D01*
X122372438Y-77911904D02*
X122420057Y-77864285D01*
X122420057Y-77864285D02*
X122515295Y-77816666D01*
X122515295Y-77816666D02*
X122658152Y-77816666D01*
X122658152Y-77816666D02*
X122753390Y-77864285D01*
X122753390Y-77864285D02*
X122801009Y-77911904D01*
X122801009Y-77911904D02*
X122848628Y-78007142D01*
X122848628Y-78007142D02*
X122848628Y-78388094D01*
X123324819Y-76864285D02*
X123324819Y-77435713D01*
X123324819Y-77149999D02*
X122324819Y-77149999D01*
X122324819Y-77149999D02*
X122467676Y-77245237D01*
X122467676Y-77245237D02*
X122562914Y-77340475D01*
X122562914Y-77340475D02*
X122610533Y-77435713D01*
X149038095Y-72794819D02*
X149038095Y-73604342D01*
X149038095Y-73604342D02*
X149085714Y-73699580D01*
X149085714Y-73699580D02*
X149133333Y-73747200D01*
X149133333Y-73747200D02*
X149228571Y-73794819D01*
X149228571Y-73794819D02*
X149419047Y-73794819D01*
X149419047Y-73794819D02*
X149514285Y-73747200D01*
X149514285Y-73747200D02*
X149561904Y-73699580D01*
X149561904Y-73699580D02*
X149609523Y-73604342D01*
X149609523Y-73604342D02*
X149609523Y-72794819D01*
X150038095Y-72890057D02*
X150085714Y-72842438D01*
X150085714Y-72842438D02*
X150180952Y-72794819D01*
X150180952Y-72794819D02*
X150419047Y-72794819D01*
X150419047Y-72794819D02*
X150514285Y-72842438D01*
X150514285Y-72842438D02*
X150561904Y-72890057D01*
X150561904Y-72890057D02*
X150609523Y-72985295D01*
X150609523Y-72985295D02*
X150609523Y-73080533D01*
X150609523Y-73080533D02*
X150561904Y-73223390D01*
X150561904Y-73223390D02*
X149990476Y-73794819D01*
X149990476Y-73794819D02*
X150609523Y-73794819D01*
X150431009Y-101827142D02*
X150431009Y-101493809D01*
X150954819Y-101350952D02*
X150954819Y-101827142D01*
X150954819Y-101827142D02*
X149954819Y-101827142D01*
X149954819Y-101827142D02*
X149954819Y-101350952D01*
X150907200Y-100969999D02*
X150954819Y-100827142D01*
X150954819Y-100827142D02*
X150954819Y-100589047D01*
X150954819Y-100589047D02*
X150907200Y-100493809D01*
X150907200Y-100493809D02*
X150859580Y-100446190D01*
X150859580Y-100446190D02*
X150764342Y-100398571D01*
X150764342Y-100398571D02*
X150669104Y-100398571D01*
X150669104Y-100398571D02*
X150573866Y-100446190D01*
X150573866Y-100446190D02*
X150526247Y-100493809D01*
X150526247Y-100493809D02*
X150478628Y-100589047D01*
X150478628Y-100589047D02*
X150431009Y-100779523D01*
X150431009Y-100779523D02*
X150383390Y-100874761D01*
X150383390Y-100874761D02*
X150335771Y-100922380D01*
X150335771Y-100922380D02*
X150240533Y-100969999D01*
X150240533Y-100969999D02*
X150145295Y-100969999D01*
X150145295Y-100969999D02*
X150050057Y-100922380D01*
X150050057Y-100922380D02*
X150002438Y-100874761D01*
X150002438Y-100874761D02*
X149954819Y-100779523D01*
X149954819Y-100779523D02*
X149954819Y-100541428D01*
X149954819Y-100541428D02*
X150002438Y-100398571D01*
X150954819Y-99969999D02*
X149954819Y-99969999D01*
X149954819Y-99969999D02*
X149954819Y-99589047D01*
X149954819Y-99589047D02*
X150002438Y-99493809D01*
X150002438Y-99493809D02*
X150050057Y-99446190D01*
X150050057Y-99446190D02*
X150145295Y-99398571D01*
X150145295Y-99398571D02*
X150288152Y-99398571D01*
X150288152Y-99398571D02*
X150383390Y-99446190D01*
X150383390Y-99446190D02*
X150431009Y-99493809D01*
X150431009Y-99493809D02*
X150478628Y-99589047D01*
X150478628Y-99589047D02*
X150478628Y-99969999D01*
X149954819Y-99065237D02*
X149954819Y-98446190D01*
X149954819Y-98446190D02*
X150335771Y-98779523D01*
X150335771Y-98779523D02*
X150335771Y-98636666D01*
X150335771Y-98636666D02*
X150383390Y-98541428D01*
X150383390Y-98541428D02*
X150431009Y-98493809D01*
X150431009Y-98493809D02*
X150526247Y-98446190D01*
X150526247Y-98446190D02*
X150764342Y-98446190D01*
X150764342Y-98446190D02*
X150859580Y-98493809D01*
X150859580Y-98493809D02*
X150907200Y-98541428D01*
X150907200Y-98541428D02*
X150954819Y-98636666D01*
X150954819Y-98636666D02*
X150954819Y-98922380D01*
X150954819Y-98922380D02*
X150907200Y-99017618D01*
X150907200Y-99017618D02*
X150859580Y-99065237D01*
X150050057Y-98065237D02*
X150002438Y-98017618D01*
X150002438Y-98017618D02*
X149954819Y-97922380D01*
X149954819Y-97922380D02*
X149954819Y-97684285D01*
X149954819Y-97684285D02*
X150002438Y-97589047D01*
X150002438Y-97589047D02*
X150050057Y-97541428D01*
X150050057Y-97541428D02*
X150145295Y-97493809D01*
X150145295Y-97493809D02*
X150240533Y-97493809D01*
X150240533Y-97493809D02*
X150383390Y-97541428D01*
X150383390Y-97541428D02*
X150954819Y-98112856D01*
X150954819Y-98112856D02*
X150954819Y-97493809D01*
X151050057Y-97303333D02*
X151050057Y-96541428D01*
X150954819Y-96303332D02*
X149954819Y-96303332D01*
X149954819Y-96303332D02*
X149954819Y-96065237D01*
X149954819Y-96065237D02*
X150002438Y-95922380D01*
X150002438Y-95922380D02*
X150097676Y-95827142D01*
X150097676Y-95827142D02*
X150192914Y-95779523D01*
X150192914Y-95779523D02*
X150383390Y-95731904D01*
X150383390Y-95731904D02*
X150526247Y-95731904D01*
X150526247Y-95731904D02*
X150716723Y-95779523D01*
X150716723Y-95779523D02*
X150811961Y-95827142D01*
X150811961Y-95827142D02*
X150907200Y-95922380D01*
X150907200Y-95922380D02*
X150954819Y-96065237D01*
X150954819Y-96065237D02*
X150954819Y-96303332D01*
X150907200Y-94922380D02*
X150954819Y-95017618D01*
X150954819Y-95017618D02*
X150954819Y-95208094D01*
X150954819Y-95208094D02*
X150907200Y-95303332D01*
X150907200Y-95303332D02*
X150811961Y-95350951D01*
X150811961Y-95350951D02*
X150431009Y-95350951D01*
X150431009Y-95350951D02*
X150335771Y-95303332D01*
X150335771Y-95303332D02*
X150288152Y-95208094D01*
X150288152Y-95208094D02*
X150288152Y-95017618D01*
X150288152Y-95017618D02*
X150335771Y-94922380D01*
X150335771Y-94922380D02*
X150431009Y-94874761D01*
X150431009Y-94874761D02*
X150526247Y-94874761D01*
X150526247Y-94874761D02*
X150621485Y-95350951D01*
X150288152Y-94541427D02*
X150954819Y-94303332D01*
X150954819Y-94303332D02*
X150288152Y-94065237D01*
X150954819Y-93684284D02*
X149954819Y-93684284D01*
X150954819Y-93112856D02*
X150383390Y-93541427D01*
X149954819Y-93112856D02*
X150526247Y-93684284D01*
X150954819Y-92684284D02*
X150288152Y-92684284D01*
X149954819Y-92684284D02*
X150002438Y-92731903D01*
X150002438Y-92731903D02*
X150050057Y-92684284D01*
X150050057Y-92684284D02*
X150002438Y-92636665D01*
X150002438Y-92636665D02*
X149954819Y-92684284D01*
X149954819Y-92684284D02*
X150050057Y-92684284D01*
X150288152Y-92350951D02*
X150288152Y-91969999D01*
X149954819Y-92208094D02*
X150811961Y-92208094D01*
X150811961Y-92208094D02*
X150907200Y-92160475D01*
X150907200Y-92160475D02*
X150954819Y-92065237D01*
X150954819Y-92065237D02*
X150954819Y-91969999D01*
X150859580Y-91065237D02*
X150907200Y-91112856D01*
X150907200Y-91112856D02*
X150954819Y-91255713D01*
X150954819Y-91255713D02*
X150954819Y-91350951D01*
X150954819Y-91350951D02*
X150907200Y-91493808D01*
X150907200Y-91493808D02*
X150811961Y-91589046D01*
X150811961Y-91589046D02*
X150716723Y-91636665D01*
X150716723Y-91636665D02*
X150526247Y-91684284D01*
X150526247Y-91684284D02*
X150383390Y-91684284D01*
X150383390Y-91684284D02*
X150192914Y-91636665D01*
X150192914Y-91636665D02*
X150097676Y-91589046D01*
X150097676Y-91589046D02*
X150002438Y-91493808D01*
X150002438Y-91493808D02*
X149954819Y-91350951D01*
X149954819Y-91350951D02*
X149954819Y-91255713D01*
X149954819Y-91255713D02*
X150002438Y-91112856D01*
X150002438Y-91112856D02*
X150050057Y-91065237D01*
X139235350Y-79522295D02*
X139468684Y-80322295D01*
X139468684Y-80322295D02*
X139702017Y-79522295D01*
X139935350Y-80322295D02*
X139935350Y-79522295D01*
X139935350Y-79522295D02*
X140335350Y-80322295D01*
X140335350Y-80322295D02*
X140335350Y-79522295D01*
X141168683Y-79484200D02*
X140568683Y-80512771D01*
X141768683Y-79560390D02*
X141702016Y-79522295D01*
X141702016Y-79522295D02*
X141602016Y-79522295D01*
X141602016Y-79522295D02*
X141502016Y-79560390D01*
X141502016Y-79560390D02*
X141435350Y-79636580D01*
X141435350Y-79636580D02*
X141402016Y-79712771D01*
X141402016Y-79712771D02*
X141368683Y-79865152D01*
X141368683Y-79865152D02*
X141368683Y-79979438D01*
X141368683Y-79979438D02*
X141402016Y-80131819D01*
X141402016Y-80131819D02*
X141435350Y-80208009D01*
X141435350Y-80208009D02*
X141502016Y-80284200D01*
X141502016Y-80284200D02*
X141602016Y-80322295D01*
X141602016Y-80322295D02*
X141668683Y-80322295D01*
X141668683Y-80322295D02*
X141768683Y-80284200D01*
X141768683Y-80284200D02*
X141802016Y-80246104D01*
X141802016Y-80246104D02*
X141802016Y-79979438D01*
X141802016Y-79979438D02*
X141668683Y-79979438D01*
X142102016Y-80322295D02*
X142102016Y-79522295D01*
X142102016Y-79522295D02*
X142368683Y-79522295D01*
X142368683Y-79522295D02*
X142435350Y-79560390D01*
X142435350Y-79560390D02*
X142468683Y-79598485D01*
X142468683Y-79598485D02*
X142502016Y-79674676D01*
X142502016Y-79674676D02*
X142502016Y-79788961D01*
X142502016Y-79788961D02*
X142468683Y-79865152D01*
X142468683Y-79865152D02*
X142435350Y-79903247D01*
X142435350Y-79903247D02*
X142368683Y-79941342D01*
X142368683Y-79941342D02*
X142102016Y-79941342D01*
X142802016Y-80322295D02*
X142802016Y-79522295D01*
X143268683Y-79522295D02*
X143402016Y-79522295D01*
X143402016Y-79522295D02*
X143468683Y-79560390D01*
X143468683Y-79560390D02*
X143535349Y-79636580D01*
X143535349Y-79636580D02*
X143568683Y-79788961D01*
X143568683Y-79788961D02*
X143568683Y-80055628D01*
X143568683Y-80055628D02*
X143535349Y-80208009D01*
X143535349Y-80208009D02*
X143468683Y-80284200D01*
X143468683Y-80284200D02*
X143402016Y-80322295D01*
X143402016Y-80322295D02*
X143268683Y-80322295D01*
X143268683Y-80322295D02*
X143202016Y-80284200D01*
X143202016Y-80284200D02*
X143135349Y-80208009D01*
X143135349Y-80208009D02*
X143102016Y-80055628D01*
X143102016Y-80055628D02*
X143102016Y-79788961D01*
X143102016Y-79788961D02*
X143135349Y-79636580D01*
X143135349Y-79636580D02*
X143202016Y-79560390D01*
X143202016Y-79560390D02*
X143268683Y-79522295D01*
X143802016Y-79522295D02*
X144235349Y-79522295D01*
X144235349Y-79522295D02*
X144002016Y-79827057D01*
X144002016Y-79827057D02*
X144102016Y-79827057D01*
X144102016Y-79827057D02*
X144168682Y-79865152D01*
X144168682Y-79865152D02*
X144202016Y-79903247D01*
X144202016Y-79903247D02*
X144235349Y-79979438D01*
X144235349Y-79979438D02*
X144235349Y-80169914D01*
X144235349Y-80169914D02*
X144202016Y-80246104D01*
X144202016Y-80246104D02*
X144168682Y-80284200D01*
X144168682Y-80284200D02*
X144102016Y-80322295D01*
X144102016Y-80322295D02*
X143902016Y-80322295D01*
X143902016Y-80322295D02*
X143835349Y-80284200D01*
X143835349Y-80284200D02*
X143802016Y-80246104D01*
X144568683Y-80322295D02*
X144702016Y-80322295D01*
X144702016Y-80322295D02*
X144768683Y-80284200D01*
X144768683Y-80284200D02*
X144802016Y-80246104D01*
X144802016Y-80246104D02*
X144868683Y-80131819D01*
X144868683Y-80131819D02*
X144902016Y-79979438D01*
X144902016Y-79979438D02*
X144902016Y-79674676D01*
X144902016Y-79674676D02*
X144868683Y-79598485D01*
X144868683Y-79598485D02*
X144835349Y-79560390D01*
X144835349Y-79560390D02*
X144768683Y-79522295D01*
X144768683Y-79522295D02*
X144635349Y-79522295D01*
X144635349Y-79522295D02*
X144568683Y-79560390D01*
X144568683Y-79560390D02*
X144535349Y-79598485D01*
X144535349Y-79598485D02*
X144502016Y-79674676D01*
X144502016Y-79674676D02*
X144502016Y-79865152D01*
X144502016Y-79865152D02*
X144535349Y-79941342D01*
X144535349Y-79941342D02*
X144568683Y-79979438D01*
X144568683Y-79979438D02*
X144635349Y-80017533D01*
X144635349Y-80017533D02*
X144768683Y-80017533D01*
X144768683Y-80017533D02*
X144835349Y-79979438D01*
X144835349Y-79979438D02*
X144868683Y-79941342D01*
X144868683Y-79941342D02*
X144902016Y-79865152D01*
X139311541Y-71794819D02*
X139930588Y-71794819D01*
X139930588Y-71794819D02*
X139597255Y-72175771D01*
X139597255Y-72175771D02*
X139740112Y-72175771D01*
X139740112Y-72175771D02*
X139835350Y-72223390D01*
X139835350Y-72223390D02*
X139882969Y-72271009D01*
X139882969Y-72271009D02*
X139930588Y-72366247D01*
X139930588Y-72366247D02*
X139930588Y-72604342D01*
X139930588Y-72604342D02*
X139882969Y-72699580D01*
X139882969Y-72699580D02*
X139835350Y-72747200D01*
X139835350Y-72747200D02*
X139740112Y-72794819D01*
X139740112Y-72794819D02*
X139454398Y-72794819D01*
X139454398Y-72794819D02*
X139359160Y-72747200D01*
X139359160Y-72747200D02*
X139311541Y-72699580D01*
X140216303Y-71794819D02*
X140549636Y-72794819D01*
X140549636Y-72794819D02*
X140882969Y-71794819D01*
X141121065Y-71794819D02*
X141740112Y-71794819D01*
X141740112Y-71794819D02*
X141406779Y-72175771D01*
X141406779Y-72175771D02*
X141549636Y-72175771D01*
X141549636Y-72175771D02*
X141644874Y-72223390D01*
X141644874Y-72223390D02*
X141692493Y-72271009D01*
X141692493Y-72271009D02*
X141740112Y-72366247D01*
X141740112Y-72366247D02*
X141740112Y-72604342D01*
X141740112Y-72604342D02*
X141692493Y-72699580D01*
X141692493Y-72699580D02*
X141644874Y-72747200D01*
X141644874Y-72747200D02*
X141549636Y-72794819D01*
X141549636Y-72794819D02*
X141263922Y-72794819D01*
X141263922Y-72794819D02*
X141168684Y-72747200D01*
X141168684Y-72747200D02*
X141121065Y-72699580D01*
X155434649Y-74480390D02*
X155367982Y-74442295D01*
X155367982Y-74442295D02*
X155267982Y-74442295D01*
X155267982Y-74442295D02*
X155167982Y-74480390D01*
X155167982Y-74480390D02*
X155101316Y-74556580D01*
X155101316Y-74556580D02*
X155067982Y-74632771D01*
X155067982Y-74632771D02*
X155034649Y-74785152D01*
X155034649Y-74785152D02*
X155034649Y-74899438D01*
X155034649Y-74899438D02*
X155067982Y-75051819D01*
X155067982Y-75051819D02*
X155101316Y-75128009D01*
X155101316Y-75128009D02*
X155167982Y-75204200D01*
X155167982Y-75204200D02*
X155267982Y-75242295D01*
X155267982Y-75242295D02*
X155334649Y-75242295D01*
X155334649Y-75242295D02*
X155434649Y-75204200D01*
X155434649Y-75204200D02*
X155467982Y-75166104D01*
X155467982Y-75166104D02*
X155467982Y-74899438D01*
X155467982Y-74899438D02*
X155334649Y-74899438D01*
X155767982Y-75242295D02*
X155767982Y-74442295D01*
X155767982Y-74442295D02*
X156034649Y-74442295D01*
X156034649Y-74442295D02*
X156101316Y-74480390D01*
X156101316Y-74480390D02*
X156134649Y-74518485D01*
X156134649Y-74518485D02*
X156167982Y-74594676D01*
X156167982Y-74594676D02*
X156167982Y-74708961D01*
X156167982Y-74708961D02*
X156134649Y-74785152D01*
X156134649Y-74785152D02*
X156101316Y-74823247D01*
X156101316Y-74823247D02*
X156034649Y-74861342D01*
X156034649Y-74861342D02*
X155767982Y-74861342D01*
X156467982Y-75242295D02*
X156467982Y-74442295D01*
X156934649Y-74442295D02*
X157067982Y-74442295D01*
X157067982Y-74442295D02*
X157134649Y-74480390D01*
X157134649Y-74480390D02*
X157201315Y-74556580D01*
X157201315Y-74556580D02*
X157234649Y-74708961D01*
X157234649Y-74708961D02*
X157234649Y-74975628D01*
X157234649Y-74975628D02*
X157201315Y-75128009D01*
X157201315Y-75128009D02*
X157134649Y-75204200D01*
X157134649Y-75204200D02*
X157067982Y-75242295D01*
X157067982Y-75242295D02*
X156934649Y-75242295D01*
X156934649Y-75242295D02*
X156867982Y-75204200D01*
X156867982Y-75204200D02*
X156801315Y-75128009D01*
X156801315Y-75128009D02*
X156767982Y-74975628D01*
X156767982Y-74975628D02*
X156767982Y-74708961D01*
X156767982Y-74708961D02*
X156801315Y-74556580D01*
X156801315Y-74556580D02*
X156867982Y-74480390D01*
X156867982Y-74480390D02*
X156934649Y-74442295D01*
X157501315Y-74518485D02*
X157534648Y-74480390D01*
X157534648Y-74480390D02*
X157601315Y-74442295D01*
X157601315Y-74442295D02*
X157767982Y-74442295D01*
X157767982Y-74442295D02*
X157834648Y-74480390D01*
X157834648Y-74480390D02*
X157867982Y-74518485D01*
X157867982Y-74518485D02*
X157901315Y-74594676D01*
X157901315Y-74594676D02*
X157901315Y-74670866D01*
X157901315Y-74670866D02*
X157867982Y-74785152D01*
X157867982Y-74785152D02*
X157467982Y-75242295D01*
X157467982Y-75242295D02*
X157901315Y-75242295D01*
X158134649Y-74442295D02*
X158567982Y-74442295D01*
X158567982Y-74442295D02*
X158334649Y-74747057D01*
X158334649Y-74747057D02*
X158434649Y-74747057D01*
X158434649Y-74747057D02*
X158501315Y-74785152D01*
X158501315Y-74785152D02*
X158534649Y-74823247D01*
X158534649Y-74823247D02*
X158567982Y-74899438D01*
X158567982Y-74899438D02*
X158567982Y-75089914D01*
X158567982Y-75089914D02*
X158534649Y-75166104D01*
X158534649Y-75166104D02*
X158501315Y-75204200D01*
X158501315Y-75204200D02*
X158434649Y-75242295D01*
X158434649Y-75242295D02*
X158234649Y-75242295D01*
X158234649Y-75242295D02*
X158167982Y-75204200D01*
X158167982Y-75204200D02*
X158134649Y-75166104D01*
X157301315Y-118346104D02*
X157267982Y-118384200D01*
X157267982Y-118384200D02*
X157167982Y-118422295D01*
X157167982Y-118422295D02*
X157101315Y-118422295D01*
X157101315Y-118422295D02*
X157001315Y-118384200D01*
X157001315Y-118384200D02*
X156934649Y-118308009D01*
X156934649Y-118308009D02*
X156901315Y-118231819D01*
X156901315Y-118231819D02*
X156867982Y-118079438D01*
X156867982Y-118079438D02*
X156867982Y-117965152D01*
X156867982Y-117965152D02*
X156901315Y-117812771D01*
X156901315Y-117812771D02*
X156934649Y-117736580D01*
X156934649Y-117736580D02*
X157001315Y-117660390D01*
X157001315Y-117660390D02*
X157101315Y-117622295D01*
X157101315Y-117622295D02*
X157167982Y-117622295D01*
X157167982Y-117622295D02*
X157267982Y-117660390D01*
X157267982Y-117660390D02*
X157301315Y-117698485D01*
X157934649Y-118422295D02*
X157601315Y-118422295D01*
X157601315Y-118422295D02*
X157601315Y-117622295D01*
X158167982Y-118422295D02*
X158167982Y-117622295D01*
X158567982Y-118422295D02*
X158267982Y-117965152D01*
X158567982Y-117622295D02*
X158167982Y-118079438D01*
X156101316Y-104960390D02*
X156034649Y-104922295D01*
X156034649Y-104922295D02*
X155934649Y-104922295D01*
X155934649Y-104922295D02*
X155834649Y-104960390D01*
X155834649Y-104960390D02*
X155767983Y-105036580D01*
X155767983Y-105036580D02*
X155734649Y-105112771D01*
X155734649Y-105112771D02*
X155701316Y-105265152D01*
X155701316Y-105265152D02*
X155701316Y-105379438D01*
X155701316Y-105379438D02*
X155734649Y-105531819D01*
X155734649Y-105531819D02*
X155767983Y-105608009D01*
X155767983Y-105608009D02*
X155834649Y-105684200D01*
X155834649Y-105684200D02*
X155934649Y-105722295D01*
X155934649Y-105722295D02*
X156001316Y-105722295D01*
X156001316Y-105722295D02*
X156101316Y-105684200D01*
X156101316Y-105684200D02*
X156134649Y-105646104D01*
X156134649Y-105646104D02*
X156134649Y-105379438D01*
X156134649Y-105379438D02*
X156001316Y-105379438D01*
X156434649Y-105722295D02*
X156434649Y-104922295D01*
X156434649Y-104922295D02*
X156701316Y-104922295D01*
X156701316Y-104922295D02*
X156767983Y-104960390D01*
X156767983Y-104960390D02*
X156801316Y-104998485D01*
X156801316Y-104998485D02*
X156834649Y-105074676D01*
X156834649Y-105074676D02*
X156834649Y-105188961D01*
X156834649Y-105188961D02*
X156801316Y-105265152D01*
X156801316Y-105265152D02*
X156767983Y-105303247D01*
X156767983Y-105303247D02*
X156701316Y-105341342D01*
X156701316Y-105341342D02*
X156434649Y-105341342D01*
X157134649Y-105722295D02*
X157134649Y-104922295D01*
X157601316Y-104922295D02*
X157734649Y-104922295D01*
X157734649Y-104922295D02*
X157801316Y-104960390D01*
X157801316Y-104960390D02*
X157867982Y-105036580D01*
X157867982Y-105036580D02*
X157901316Y-105188961D01*
X157901316Y-105188961D02*
X157901316Y-105455628D01*
X157901316Y-105455628D02*
X157867982Y-105608009D01*
X157867982Y-105608009D02*
X157801316Y-105684200D01*
X157801316Y-105684200D02*
X157734649Y-105722295D01*
X157734649Y-105722295D02*
X157601316Y-105722295D01*
X157601316Y-105722295D02*
X157534649Y-105684200D01*
X157534649Y-105684200D02*
X157467982Y-105608009D01*
X157467982Y-105608009D02*
X157434649Y-105455628D01*
X157434649Y-105455628D02*
X157434649Y-105188961D01*
X157434649Y-105188961D02*
X157467982Y-105036580D01*
X157467982Y-105036580D02*
X157534649Y-104960390D01*
X157534649Y-104960390D02*
X157601316Y-104922295D01*
X158334649Y-104922295D02*
X158401315Y-104922295D01*
X158401315Y-104922295D02*
X158467982Y-104960390D01*
X158467982Y-104960390D02*
X158501315Y-104998485D01*
X158501315Y-104998485D02*
X158534649Y-105074676D01*
X158534649Y-105074676D02*
X158567982Y-105227057D01*
X158567982Y-105227057D02*
X158567982Y-105417533D01*
X158567982Y-105417533D02*
X158534649Y-105569914D01*
X158534649Y-105569914D02*
X158501315Y-105646104D01*
X158501315Y-105646104D02*
X158467982Y-105684200D01*
X158467982Y-105684200D02*
X158401315Y-105722295D01*
X158401315Y-105722295D02*
X158334649Y-105722295D01*
X158334649Y-105722295D02*
X158267982Y-105684200D01*
X158267982Y-105684200D02*
X158234649Y-105646104D01*
X158234649Y-105646104D02*
X158201315Y-105569914D01*
X158201315Y-105569914D02*
X158167982Y-105417533D01*
X158167982Y-105417533D02*
X158167982Y-105227057D01*
X158167982Y-105227057D02*
X158201315Y-105074676D01*
X158201315Y-105074676D02*
X158234649Y-104998485D01*
X158234649Y-104998485D02*
X158267982Y-104960390D01*
X158267982Y-104960390D02*
X158334649Y-104922295D01*
X156101316Y-107500390D02*
X156034649Y-107462295D01*
X156034649Y-107462295D02*
X155934649Y-107462295D01*
X155934649Y-107462295D02*
X155834649Y-107500390D01*
X155834649Y-107500390D02*
X155767983Y-107576580D01*
X155767983Y-107576580D02*
X155734649Y-107652771D01*
X155734649Y-107652771D02*
X155701316Y-107805152D01*
X155701316Y-107805152D02*
X155701316Y-107919438D01*
X155701316Y-107919438D02*
X155734649Y-108071819D01*
X155734649Y-108071819D02*
X155767983Y-108148009D01*
X155767983Y-108148009D02*
X155834649Y-108224200D01*
X155834649Y-108224200D02*
X155934649Y-108262295D01*
X155934649Y-108262295D02*
X156001316Y-108262295D01*
X156001316Y-108262295D02*
X156101316Y-108224200D01*
X156101316Y-108224200D02*
X156134649Y-108186104D01*
X156134649Y-108186104D02*
X156134649Y-107919438D01*
X156134649Y-107919438D02*
X156001316Y-107919438D01*
X156434649Y-108262295D02*
X156434649Y-107462295D01*
X156434649Y-107462295D02*
X156701316Y-107462295D01*
X156701316Y-107462295D02*
X156767983Y-107500390D01*
X156767983Y-107500390D02*
X156801316Y-107538485D01*
X156801316Y-107538485D02*
X156834649Y-107614676D01*
X156834649Y-107614676D02*
X156834649Y-107728961D01*
X156834649Y-107728961D02*
X156801316Y-107805152D01*
X156801316Y-107805152D02*
X156767983Y-107843247D01*
X156767983Y-107843247D02*
X156701316Y-107881342D01*
X156701316Y-107881342D02*
X156434649Y-107881342D01*
X157134649Y-108262295D02*
X157134649Y-107462295D01*
X157601316Y-107462295D02*
X157734649Y-107462295D01*
X157734649Y-107462295D02*
X157801316Y-107500390D01*
X157801316Y-107500390D02*
X157867982Y-107576580D01*
X157867982Y-107576580D02*
X157901316Y-107728961D01*
X157901316Y-107728961D02*
X157901316Y-107995628D01*
X157901316Y-107995628D02*
X157867982Y-108148009D01*
X157867982Y-108148009D02*
X157801316Y-108224200D01*
X157801316Y-108224200D02*
X157734649Y-108262295D01*
X157734649Y-108262295D02*
X157601316Y-108262295D01*
X157601316Y-108262295D02*
X157534649Y-108224200D01*
X157534649Y-108224200D02*
X157467982Y-108148009D01*
X157467982Y-108148009D02*
X157434649Y-107995628D01*
X157434649Y-107995628D02*
X157434649Y-107728961D01*
X157434649Y-107728961D02*
X157467982Y-107576580D01*
X157467982Y-107576580D02*
X157534649Y-107500390D01*
X157534649Y-107500390D02*
X157601316Y-107462295D01*
X158167982Y-107538485D02*
X158201315Y-107500390D01*
X158201315Y-107500390D02*
X158267982Y-107462295D01*
X158267982Y-107462295D02*
X158434649Y-107462295D01*
X158434649Y-107462295D02*
X158501315Y-107500390D01*
X158501315Y-107500390D02*
X158534649Y-107538485D01*
X158534649Y-107538485D02*
X158567982Y-107614676D01*
X158567982Y-107614676D02*
X158567982Y-107690866D01*
X158567982Y-107690866D02*
X158534649Y-107805152D01*
X158534649Y-107805152D02*
X158134649Y-108262295D01*
X158134649Y-108262295D02*
X158567982Y-108262295D01*
X151934650Y-110040390D02*
X151867983Y-110002295D01*
X151867983Y-110002295D02*
X151767983Y-110002295D01*
X151767983Y-110002295D02*
X151667983Y-110040390D01*
X151667983Y-110040390D02*
X151601317Y-110116580D01*
X151601317Y-110116580D02*
X151567983Y-110192771D01*
X151567983Y-110192771D02*
X151534650Y-110345152D01*
X151534650Y-110345152D02*
X151534650Y-110459438D01*
X151534650Y-110459438D02*
X151567983Y-110611819D01*
X151567983Y-110611819D02*
X151601317Y-110688009D01*
X151601317Y-110688009D02*
X151667983Y-110764200D01*
X151667983Y-110764200D02*
X151767983Y-110802295D01*
X151767983Y-110802295D02*
X151834650Y-110802295D01*
X151834650Y-110802295D02*
X151934650Y-110764200D01*
X151934650Y-110764200D02*
X151967983Y-110726104D01*
X151967983Y-110726104D02*
X151967983Y-110459438D01*
X151967983Y-110459438D02*
X151834650Y-110459438D01*
X152267983Y-110802295D02*
X152267983Y-110002295D01*
X152267983Y-110002295D02*
X152534650Y-110002295D01*
X152534650Y-110002295D02*
X152601317Y-110040390D01*
X152601317Y-110040390D02*
X152634650Y-110078485D01*
X152634650Y-110078485D02*
X152667983Y-110154676D01*
X152667983Y-110154676D02*
X152667983Y-110268961D01*
X152667983Y-110268961D02*
X152634650Y-110345152D01*
X152634650Y-110345152D02*
X152601317Y-110383247D01*
X152601317Y-110383247D02*
X152534650Y-110421342D01*
X152534650Y-110421342D02*
X152267983Y-110421342D01*
X152967983Y-110802295D02*
X152967983Y-110002295D01*
X153434650Y-110002295D02*
X153567983Y-110002295D01*
X153567983Y-110002295D02*
X153634650Y-110040390D01*
X153634650Y-110040390D02*
X153701316Y-110116580D01*
X153701316Y-110116580D02*
X153734650Y-110268961D01*
X153734650Y-110268961D02*
X153734650Y-110535628D01*
X153734650Y-110535628D02*
X153701316Y-110688009D01*
X153701316Y-110688009D02*
X153634650Y-110764200D01*
X153634650Y-110764200D02*
X153567983Y-110802295D01*
X153567983Y-110802295D02*
X153434650Y-110802295D01*
X153434650Y-110802295D02*
X153367983Y-110764200D01*
X153367983Y-110764200D02*
X153301316Y-110688009D01*
X153301316Y-110688009D02*
X153267983Y-110535628D01*
X153267983Y-110535628D02*
X153267983Y-110268961D01*
X153267983Y-110268961D02*
X153301316Y-110116580D01*
X153301316Y-110116580D02*
X153367983Y-110040390D01*
X153367983Y-110040390D02*
X153434650Y-110002295D01*
X154401316Y-110802295D02*
X154001316Y-110802295D01*
X154201316Y-110802295D02*
X154201316Y-110002295D01*
X154201316Y-110002295D02*
X154134649Y-110116580D01*
X154134649Y-110116580D02*
X154067983Y-110192771D01*
X154067983Y-110192771D02*
X154001316Y-110230866D01*
X155034650Y-110002295D02*
X154701316Y-110002295D01*
X154701316Y-110002295D02*
X154667983Y-110383247D01*
X154667983Y-110383247D02*
X154701316Y-110345152D01*
X154701316Y-110345152D02*
X154767983Y-110307057D01*
X154767983Y-110307057D02*
X154934650Y-110307057D01*
X154934650Y-110307057D02*
X155001316Y-110345152D01*
X155001316Y-110345152D02*
X155034650Y-110383247D01*
X155034650Y-110383247D02*
X155067983Y-110459438D01*
X155067983Y-110459438D02*
X155067983Y-110649914D01*
X155067983Y-110649914D02*
X155034650Y-110726104D01*
X155034650Y-110726104D02*
X155001316Y-110764200D01*
X155001316Y-110764200D02*
X154934650Y-110802295D01*
X154934650Y-110802295D02*
X154767983Y-110802295D01*
X154767983Y-110802295D02*
X154701316Y-110764200D01*
X154701316Y-110764200D02*
X154667983Y-110726104D01*
X155867983Y-109964200D02*
X155267983Y-110992771D01*
X156101316Y-110802295D02*
X156101316Y-110002295D01*
X156101316Y-110002295D02*
X156334650Y-110573723D01*
X156334650Y-110573723D02*
X156567983Y-110002295D01*
X156567983Y-110002295D02*
X156567983Y-110802295D01*
X156801316Y-110002295D02*
X157201316Y-110002295D01*
X157001316Y-110802295D02*
X157001316Y-110002295D01*
X157434649Y-110802295D02*
X157434649Y-110002295D01*
X157434649Y-110002295D02*
X157601316Y-110002295D01*
X157601316Y-110002295D02*
X157701316Y-110040390D01*
X157701316Y-110040390D02*
X157767983Y-110116580D01*
X157767983Y-110116580D02*
X157801316Y-110192771D01*
X157801316Y-110192771D02*
X157834649Y-110345152D01*
X157834649Y-110345152D02*
X157834649Y-110459438D01*
X157834649Y-110459438D02*
X157801316Y-110611819D01*
X157801316Y-110611819D02*
X157767983Y-110688009D01*
X157767983Y-110688009D02*
X157701316Y-110764200D01*
X157701316Y-110764200D02*
X157601316Y-110802295D01*
X157601316Y-110802295D02*
X157434649Y-110802295D01*
X158267983Y-110002295D02*
X158401316Y-110002295D01*
X158401316Y-110002295D02*
X158467983Y-110040390D01*
X158467983Y-110040390D02*
X158534649Y-110116580D01*
X158534649Y-110116580D02*
X158567983Y-110268961D01*
X158567983Y-110268961D02*
X158567983Y-110535628D01*
X158567983Y-110535628D02*
X158534649Y-110688009D01*
X158534649Y-110688009D02*
X158467983Y-110764200D01*
X158467983Y-110764200D02*
X158401316Y-110802295D01*
X158401316Y-110802295D02*
X158267983Y-110802295D01*
X158267983Y-110802295D02*
X158201316Y-110764200D01*
X158201316Y-110764200D02*
X158134649Y-110688009D01*
X158134649Y-110688009D02*
X158101316Y-110535628D01*
X158101316Y-110535628D02*
X158101316Y-110268961D01*
X158101316Y-110268961D02*
X158134649Y-110116580D01*
X158134649Y-110116580D02*
X158201316Y-110040390D01*
X158201316Y-110040390D02*
X158267983Y-110002295D01*
X139235350Y-76982295D02*
X139468684Y-77782295D01*
X139468684Y-77782295D02*
X139702017Y-76982295D01*
X139935350Y-77782295D02*
X139935350Y-76982295D01*
X139935350Y-76982295D02*
X140202017Y-76982295D01*
X140202017Y-76982295D02*
X140268684Y-77020390D01*
X140268684Y-77020390D02*
X140302017Y-77058485D01*
X140302017Y-77058485D02*
X140335350Y-77134676D01*
X140335350Y-77134676D02*
X140335350Y-77248961D01*
X140335350Y-77248961D02*
X140302017Y-77325152D01*
X140302017Y-77325152D02*
X140268684Y-77363247D01*
X140268684Y-77363247D02*
X140202017Y-77401342D01*
X140202017Y-77401342D02*
X139935350Y-77401342D01*
X141135350Y-76944200D02*
X140535350Y-77972771D01*
X141735350Y-77020390D02*
X141668683Y-76982295D01*
X141668683Y-76982295D02*
X141568683Y-76982295D01*
X141568683Y-76982295D02*
X141468683Y-77020390D01*
X141468683Y-77020390D02*
X141402017Y-77096580D01*
X141402017Y-77096580D02*
X141368683Y-77172771D01*
X141368683Y-77172771D02*
X141335350Y-77325152D01*
X141335350Y-77325152D02*
X141335350Y-77439438D01*
X141335350Y-77439438D02*
X141368683Y-77591819D01*
X141368683Y-77591819D02*
X141402017Y-77668009D01*
X141402017Y-77668009D02*
X141468683Y-77744200D01*
X141468683Y-77744200D02*
X141568683Y-77782295D01*
X141568683Y-77782295D02*
X141635350Y-77782295D01*
X141635350Y-77782295D02*
X141735350Y-77744200D01*
X141735350Y-77744200D02*
X141768683Y-77706104D01*
X141768683Y-77706104D02*
X141768683Y-77439438D01*
X141768683Y-77439438D02*
X141635350Y-77439438D01*
X142068683Y-77782295D02*
X142068683Y-76982295D01*
X142068683Y-76982295D02*
X142335350Y-76982295D01*
X142335350Y-76982295D02*
X142402017Y-77020390D01*
X142402017Y-77020390D02*
X142435350Y-77058485D01*
X142435350Y-77058485D02*
X142468683Y-77134676D01*
X142468683Y-77134676D02*
X142468683Y-77248961D01*
X142468683Y-77248961D02*
X142435350Y-77325152D01*
X142435350Y-77325152D02*
X142402017Y-77363247D01*
X142402017Y-77363247D02*
X142335350Y-77401342D01*
X142335350Y-77401342D02*
X142068683Y-77401342D01*
X142768683Y-77782295D02*
X142768683Y-76982295D01*
X143235350Y-76982295D02*
X143368683Y-76982295D01*
X143368683Y-76982295D02*
X143435350Y-77020390D01*
X143435350Y-77020390D02*
X143502016Y-77096580D01*
X143502016Y-77096580D02*
X143535350Y-77248961D01*
X143535350Y-77248961D02*
X143535350Y-77515628D01*
X143535350Y-77515628D02*
X143502016Y-77668009D01*
X143502016Y-77668009D02*
X143435350Y-77744200D01*
X143435350Y-77744200D02*
X143368683Y-77782295D01*
X143368683Y-77782295D02*
X143235350Y-77782295D01*
X143235350Y-77782295D02*
X143168683Y-77744200D01*
X143168683Y-77744200D02*
X143102016Y-77668009D01*
X143102016Y-77668009D02*
X143068683Y-77515628D01*
X143068683Y-77515628D02*
X143068683Y-77248961D01*
X143068683Y-77248961D02*
X143102016Y-77096580D01*
X143102016Y-77096580D02*
X143168683Y-77020390D01*
X143168683Y-77020390D02*
X143235350Y-76982295D01*
X143768683Y-76982295D02*
X144202016Y-76982295D01*
X144202016Y-76982295D02*
X143968683Y-77287057D01*
X143968683Y-77287057D02*
X144068683Y-77287057D01*
X144068683Y-77287057D02*
X144135349Y-77325152D01*
X144135349Y-77325152D02*
X144168683Y-77363247D01*
X144168683Y-77363247D02*
X144202016Y-77439438D01*
X144202016Y-77439438D02*
X144202016Y-77629914D01*
X144202016Y-77629914D02*
X144168683Y-77706104D01*
X144168683Y-77706104D02*
X144135349Y-77744200D01*
X144135349Y-77744200D02*
X144068683Y-77782295D01*
X144068683Y-77782295D02*
X143868683Y-77782295D01*
X143868683Y-77782295D02*
X143802016Y-77744200D01*
X143802016Y-77744200D02*
X143768683Y-77706104D01*
X144802016Y-76982295D02*
X144668683Y-76982295D01*
X144668683Y-76982295D02*
X144602016Y-77020390D01*
X144602016Y-77020390D02*
X144568683Y-77058485D01*
X144568683Y-77058485D02*
X144502016Y-77172771D01*
X144502016Y-77172771D02*
X144468683Y-77325152D01*
X144468683Y-77325152D02*
X144468683Y-77629914D01*
X144468683Y-77629914D02*
X144502016Y-77706104D01*
X144502016Y-77706104D02*
X144535350Y-77744200D01*
X144535350Y-77744200D02*
X144602016Y-77782295D01*
X144602016Y-77782295D02*
X144735350Y-77782295D01*
X144735350Y-77782295D02*
X144802016Y-77744200D01*
X144802016Y-77744200D02*
X144835350Y-77706104D01*
X144835350Y-77706104D02*
X144868683Y-77629914D01*
X144868683Y-77629914D02*
X144868683Y-77439438D01*
X144868683Y-77439438D02*
X144835350Y-77363247D01*
X144835350Y-77363247D02*
X144802016Y-77325152D01*
X144802016Y-77325152D02*
X144735350Y-77287057D01*
X144735350Y-77287057D02*
X144602016Y-77287057D01*
X144602016Y-77287057D02*
X144535350Y-77325152D01*
X144535350Y-77325152D02*
X144502016Y-77363247D01*
X144502016Y-77363247D02*
X144468683Y-77439438D01*
X139702017Y-97340390D02*
X139635350Y-97302295D01*
X139635350Y-97302295D02*
X139535350Y-97302295D01*
X139535350Y-97302295D02*
X139435350Y-97340390D01*
X139435350Y-97340390D02*
X139368684Y-97416580D01*
X139368684Y-97416580D02*
X139335350Y-97492771D01*
X139335350Y-97492771D02*
X139302017Y-97645152D01*
X139302017Y-97645152D02*
X139302017Y-97759438D01*
X139302017Y-97759438D02*
X139335350Y-97911819D01*
X139335350Y-97911819D02*
X139368684Y-97988009D01*
X139368684Y-97988009D02*
X139435350Y-98064200D01*
X139435350Y-98064200D02*
X139535350Y-98102295D01*
X139535350Y-98102295D02*
X139602017Y-98102295D01*
X139602017Y-98102295D02*
X139702017Y-98064200D01*
X139702017Y-98064200D02*
X139735350Y-98026104D01*
X139735350Y-98026104D02*
X139735350Y-97759438D01*
X139735350Y-97759438D02*
X139602017Y-97759438D01*
X140035350Y-98102295D02*
X140035350Y-97302295D01*
X140035350Y-97302295D02*
X140302017Y-97302295D01*
X140302017Y-97302295D02*
X140368684Y-97340390D01*
X140368684Y-97340390D02*
X140402017Y-97378485D01*
X140402017Y-97378485D02*
X140435350Y-97454676D01*
X140435350Y-97454676D02*
X140435350Y-97568961D01*
X140435350Y-97568961D02*
X140402017Y-97645152D01*
X140402017Y-97645152D02*
X140368684Y-97683247D01*
X140368684Y-97683247D02*
X140302017Y-97721342D01*
X140302017Y-97721342D02*
X140035350Y-97721342D01*
X140735350Y-98102295D02*
X140735350Y-97302295D01*
X141202017Y-97302295D02*
X141335350Y-97302295D01*
X141335350Y-97302295D02*
X141402017Y-97340390D01*
X141402017Y-97340390D02*
X141468683Y-97416580D01*
X141468683Y-97416580D02*
X141502017Y-97568961D01*
X141502017Y-97568961D02*
X141502017Y-97835628D01*
X141502017Y-97835628D02*
X141468683Y-97988009D01*
X141468683Y-97988009D02*
X141402017Y-98064200D01*
X141402017Y-98064200D02*
X141335350Y-98102295D01*
X141335350Y-98102295D02*
X141202017Y-98102295D01*
X141202017Y-98102295D02*
X141135350Y-98064200D01*
X141135350Y-98064200D02*
X141068683Y-97988009D01*
X141068683Y-97988009D02*
X141035350Y-97835628D01*
X141035350Y-97835628D02*
X141035350Y-97568961D01*
X141035350Y-97568961D02*
X141068683Y-97416580D01*
X141068683Y-97416580D02*
X141135350Y-97340390D01*
X141135350Y-97340390D02*
X141202017Y-97302295D01*
X141768683Y-97378485D02*
X141802016Y-97340390D01*
X141802016Y-97340390D02*
X141868683Y-97302295D01*
X141868683Y-97302295D02*
X142035350Y-97302295D01*
X142035350Y-97302295D02*
X142102016Y-97340390D01*
X142102016Y-97340390D02*
X142135350Y-97378485D01*
X142135350Y-97378485D02*
X142168683Y-97454676D01*
X142168683Y-97454676D02*
X142168683Y-97530866D01*
X142168683Y-97530866D02*
X142135350Y-97645152D01*
X142135350Y-97645152D02*
X141735350Y-98102295D01*
X141735350Y-98102295D02*
X142168683Y-98102295D01*
X142402017Y-97302295D02*
X142868683Y-97302295D01*
X142868683Y-97302295D02*
X142568683Y-98102295D01*
X157501315Y-115882295D02*
X157501315Y-115082295D01*
X157501315Y-115082295D02*
X157667982Y-115082295D01*
X157667982Y-115082295D02*
X157767982Y-115120390D01*
X157767982Y-115120390D02*
X157834649Y-115196580D01*
X157834649Y-115196580D02*
X157867982Y-115272771D01*
X157867982Y-115272771D02*
X157901315Y-115425152D01*
X157901315Y-115425152D02*
X157901315Y-115539438D01*
X157901315Y-115539438D02*
X157867982Y-115691819D01*
X157867982Y-115691819D02*
X157834649Y-115768009D01*
X157834649Y-115768009D02*
X157767982Y-115844200D01*
X157767982Y-115844200D02*
X157667982Y-115882295D01*
X157667982Y-115882295D02*
X157501315Y-115882295D01*
X158334649Y-115082295D02*
X158401315Y-115082295D01*
X158401315Y-115082295D02*
X158467982Y-115120390D01*
X158467982Y-115120390D02*
X158501315Y-115158485D01*
X158501315Y-115158485D02*
X158534649Y-115234676D01*
X158534649Y-115234676D02*
X158567982Y-115387057D01*
X158567982Y-115387057D02*
X158567982Y-115577533D01*
X158567982Y-115577533D02*
X158534649Y-115729914D01*
X158534649Y-115729914D02*
X158501315Y-115806104D01*
X158501315Y-115806104D02*
X158467982Y-115844200D01*
X158467982Y-115844200D02*
X158401315Y-115882295D01*
X158401315Y-115882295D02*
X158334649Y-115882295D01*
X158334649Y-115882295D02*
X158267982Y-115844200D01*
X158267982Y-115844200D02*
X158234649Y-115806104D01*
X158234649Y-115806104D02*
X158201315Y-115729914D01*
X158201315Y-115729914D02*
X158167982Y-115577533D01*
X158167982Y-115577533D02*
X158167982Y-115387057D01*
X158167982Y-115387057D02*
X158201315Y-115234676D01*
X158201315Y-115234676D02*
X158234649Y-115158485D01*
X158234649Y-115158485D02*
X158267982Y-115120390D01*
X158267982Y-115120390D02*
X158334649Y-115082295D01*
X155434649Y-92260390D02*
X155367982Y-92222295D01*
X155367982Y-92222295D02*
X155267982Y-92222295D01*
X155267982Y-92222295D02*
X155167982Y-92260390D01*
X155167982Y-92260390D02*
X155101316Y-92336580D01*
X155101316Y-92336580D02*
X155067982Y-92412771D01*
X155067982Y-92412771D02*
X155034649Y-92565152D01*
X155034649Y-92565152D02*
X155034649Y-92679438D01*
X155034649Y-92679438D02*
X155067982Y-92831819D01*
X155067982Y-92831819D02*
X155101316Y-92908009D01*
X155101316Y-92908009D02*
X155167982Y-92984200D01*
X155167982Y-92984200D02*
X155267982Y-93022295D01*
X155267982Y-93022295D02*
X155334649Y-93022295D01*
X155334649Y-93022295D02*
X155434649Y-92984200D01*
X155434649Y-92984200D02*
X155467982Y-92946104D01*
X155467982Y-92946104D02*
X155467982Y-92679438D01*
X155467982Y-92679438D02*
X155334649Y-92679438D01*
X155767982Y-93022295D02*
X155767982Y-92222295D01*
X155767982Y-92222295D02*
X156034649Y-92222295D01*
X156034649Y-92222295D02*
X156101316Y-92260390D01*
X156101316Y-92260390D02*
X156134649Y-92298485D01*
X156134649Y-92298485D02*
X156167982Y-92374676D01*
X156167982Y-92374676D02*
X156167982Y-92488961D01*
X156167982Y-92488961D02*
X156134649Y-92565152D01*
X156134649Y-92565152D02*
X156101316Y-92603247D01*
X156101316Y-92603247D02*
X156034649Y-92641342D01*
X156034649Y-92641342D02*
X155767982Y-92641342D01*
X156467982Y-93022295D02*
X156467982Y-92222295D01*
X156934649Y-92222295D02*
X157067982Y-92222295D01*
X157067982Y-92222295D02*
X157134649Y-92260390D01*
X157134649Y-92260390D02*
X157201315Y-92336580D01*
X157201315Y-92336580D02*
X157234649Y-92488961D01*
X157234649Y-92488961D02*
X157234649Y-92755628D01*
X157234649Y-92755628D02*
X157201315Y-92908009D01*
X157201315Y-92908009D02*
X157134649Y-92984200D01*
X157134649Y-92984200D02*
X157067982Y-93022295D01*
X157067982Y-93022295D02*
X156934649Y-93022295D01*
X156934649Y-93022295D02*
X156867982Y-92984200D01*
X156867982Y-92984200D02*
X156801315Y-92908009D01*
X156801315Y-92908009D02*
X156767982Y-92755628D01*
X156767982Y-92755628D02*
X156767982Y-92488961D01*
X156767982Y-92488961D02*
X156801315Y-92336580D01*
X156801315Y-92336580D02*
X156867982Y-92260390D01*
X156867982Y-92260390D02*
X156934649Y-92222295D01*
X157901315Y-93022295D02*
X157501315Y-93022295D01*
X157701315Y-93022295D02*
X157701315Y-92222295D01*
X157701315Y-92222295D02*
X157634648Y-92336580D01*
X157634648Y-92336580D02*
X157567982Y-92412771D01*
X157567982Y-92412771D02*
X157501315Y-92450866D01*
X158301315Y-92565152D02*
X158234649Y-92527057D01*
X158234649Y-92527057D02*
X158201315Y-92488961D01*
X158201315Y-92488961D02*
X158167982Y-92412771D01*
X158167982Y-92412771D02*
X158167982Y-92374676D01*
X158167982Y-92374676D02*
X158201315Y-92298485D01*
X158201315Y-92298485D02*
X158234649Y-92260390D01*
X158234649Y-92260390D02*
X158301315Y-92222295D01*
X158301315Y-92222295D02*
X158434649Y-92222295D01*
X158434649Y-92222295D02*
X158501315Y-92260390D01*
X158501315Y-92260390D02*
X158534649Y-92298485D01*
X158534649Y-92298485D02*
X158567982Y-92374676D01*
X158567982Y-92374676D02*
X158567982Y-92412771D01*
X158567982Y-92412771D02*
X158534649Y-92488961D01*
X158534649Y-92488961D02*
X158501315Y-92527057D01*
X158501315Y-92527057D02*
X158434649Y-92565152D01*
X158434649Y-92565152D02*
X158301315Y-92565152D01*
X158301315Y-92565152D02*
X158234649Y-92603247D01*
X158234649Y-92603247D02*
X158201315Y-92641342D01*
X158201315Y-92641342D02*
X158167982Y-92717533D01*
X158167982Y-92717533D02*
X158167982Y-92869914D01*
X158167982Y-92869914D02*
X158201315Y-92946104D01*
X158201315Y-92946104D02*
X158234649Y-92984200D01*
X158234649Y-92984200D02*
X158301315Y-93022295D01*
X158301315Y-93022295D02*
X158434649Y-93022295D01*
X158434649Y-93022295D02*
X158501315Y-92984200D01*
X158501315Y-92984200D02*
X158534649Y-92946104D01*
X158534649Y-92946104D02*
X158567982Y-92869914D01*
X158567982Y-92869914D02*
X158567982Y-92717533D01*
X158567982Y-92717533D02*
X158534649Y-92641342D01*
X158534649Y-92641342D02*
X158501315Y-92603247D01*
X158501315Y-92603247D02*
X158434649Y-92565152D01*
X156415601Y-71842438D02*
X156320363Y-71794819D01*
X156320363Y-71794819D02*
X156177506Y-71794819D01*
X156177506Y-71794819D02*
X156034649Y-71842438D01*
X156034649Y-71842438D02*
X155939411Y-71937676D01*
X155939411Y-71937676D02*
X155891792Y-72032914D01*
X155891792Y-72032914D02*
X155844173Y-72223390D01*
X155844173Y-72223390D02*
X155844173Y-72366247D01*
X155844173Y-72366247D02*
X155891792Y-72556723D01*
X155891792Y-72556723D02*
X155939411Y-72651961D01*
X155939411Y-72651961D02*
X156034649Y-72747200D01*
X156034649Y-72747200D02*
X156177506Y-72794819D01*
X156177506Y-72794819D02*
X156272744Y-72794819D01*
X156272744Y-72794819D02*
X156415601Y-72747200D01*
X156415601Y-72747200D02*
X156463220Y-72699580D01*
X156463220Y-72699580D02*
X156463220Y-72366247D01*
X156463220Y-72366247D02*
X156272744Y-72366247D01*
X156891792Y-72794819D02*
X156891792Y-71794819D01*
X156891792Y-71794819D02*
X157463220Y-72794819D01*
X157463220Y-72794819D02*
X157463220Y-71794819D01*
X157939411Y-72794819D02*
X157939411Y-71794819D01*
X157939411Y-71794819D02*
X158177506Y-71794819D01*
X158177506Y-71794819D02*
X158320363Y-71842438D01*
X158320363Y-71842438D02*
X158415601Y-71937676D01*
X158415601Y-71937676D02*
X158463220Y-72032914D01*
X158463220Y-72032914D02*
X158510839Y-72223390D01*
X158510839Y-72223390D02*
X158510839Y-72366247D01*
X158510839Y-72366247D02*
X158463220Y-72556723D01*
X158463220Y-72556723D02*
X158415601Y-72651961D01*
X158415601Y-72651961D02*
X158320363Y-72747200D01*
X158320363Y-72747200D02*
X158177506Y-72794819D01*
X158177506Y-72794819D02*
X157939411Y-72794819D01*
X139335350Y-113342295D02*
X139335350Y-112542295D01*
X139335350Y-112542295D02*
X139502017Y-112542295D01*
X139502017Y-112542295D02*
X139602017Y-112580390D01*
X139602017Y-112580390D02*
X139668684Y-112656580D01*
X139668684Y-112656580D02*
X139702017Y-112732771D01*
X139702017Y-112732771D02*
X139735350Y-112885152D01*
X139735350Y-112885152D02*
X139735350Y-112999438D01*
X139735350Y-112999438D02*
X139702017Y-113151819D01*
X139702017Y-113151819D02*
X139668684Y-113228009D01*
X139668684Y-113228009D02*
X139602017Y-113304200D01*
X139602017Y-113304200D02*
X139502017Y-113342295D01*
X139502017Y-113342295D02*
X139335350Y-113342295D01*
X139968684Y-112542295D02*
X140402017Y-112542295D01*
X140402017Y-112542295D02*
X140168684Y-112847057D01*
X140168684Y-112847057D02*
X140268684Y-112847057D01*
X140268684Y-112847057D02*
X140335350Y-112885152D01*
X140335350Y-112885152D02*
X140368684Y-112923247D01*
X140368684Y-112923247D02*
X140402017Y-112999438D01*
X140402017Y-112999438D02*
X140402017Y-113189914D01*
X140402017Y-113189914D02*
X140368684Y-113266104D01*
X140368684Y-113266104D02*
X140335350Y-113304200D01*
X140335350Y-113304200D02*
X140268684Y-113342295D01*
X140268684Y-113342295D02*
X140068684Y-113342295D01*
X140068684Y-113342295D02*
X140002017Y-113304200D01*
X140002017Y-113304200D02*
X139968684Y-113266104D01*
X139735350Y-115806104D02*
X139702017Y-115844200D01*
X139702017Y-115844200D02*
X139602017Y-115882295D01*
X139602017Y-115882295D02*
X139535350Y-115882295D01*
X139535350Y-115882295D02*
X139435350Y-115844200D01*
X139435350Y-115844200D02*
X139368684Y-115768009D01*
X139368684Y-115768009D02*
X139335350Y-115691819D01*
X139335350Y-115691819D02*
X139302017Y-115539438D01*
X139302017Y-115539438D02*
X139302017Y-115425152D01*
X139302017Y-115425152D02*
X139335350Y-115272771D01*
X139335350Y-115272771D02*
X139368684Y-115196580D01*
X139368684Y-115196580D02*
X139435350Y-115120390D01*
X139435350Y-115120390D02*
X139535350Y-115082295D01*
X139535350Y-115082295D02*
X139602017Y-115082295D01*
X139602017Y-115082295D02*
X139702017Y-115120390D01*
X139702017Y-115120390D02*
X139735350Y-115158485D01*
X140035350Y-115882295D02*
X140035350Y-115082295D01*
X140035350Y-115082295D02*
X140268684Y-115653723D01*
X140268684Y-115653723D02*
X140502017Y-115082295D01*
X140502017Y-115082295D02*
X140502017Y-115882295D01*
X140835350Y-115882295D02*
X140835350Y-115082295D01*
X140835350Y-115082295D02*
X141002017Y-115082295D01*
X141002017Y-115082295D02*
X141102017Y-115120390D01*
X141102017Y-115120390D02*
X141168684Y-115196580D01*
X141168684Y-115196580D02*
X141202017Y-115272771D01*
X141202017Y-115272771D02*
X141235350Y-115425152D01*
X141235350Y-115425152D02*
X141235350Y-115539438D01*
X141235350Y-115539438D02*
X141202017Y-115691819D01*
X141202017Y-115691819D02*
X141168684Y-115768009D01*
X141168684Y-115768009D02*
X141102017Y-115844200D01*
X141102017Y-115844200D02*
X141002017Y-115882295D01*
X141002017Y-115882295D02*
X140835350Y-115882295D01*
X151901316Y-82100390D02*
X151834649Y-82062295D01*
X151834649Y-82062295D02*
X151734649Y-82062295D01*
X151734649Y-82062295D02*
X151634649Y-82100390D01*
X151634649Y-82100390D02*
X151567983Y-82176580D01*
X151567983Y-82176580D02*
X151534649Y-82252771D01*
X151534649Y-82252771D02*
X151501316Y-82405152D01*
X151501316Y-82405152D02*
X151501316Y-82519438D01*
X151501316Y-82519438D02*
X151534649Y-82671819D01*
X151534649Y-82671819D02*
X151567983Y-82748009D01*
X151567983Y-82748009D02*
X151634649Y-82824200D01*
X151634649Y-82824200D02*
X151734649Y-82862295D01*
X151734649Y-82862295D02*
X151801316Y-82862295D01*
X151801316Y-82862295D02*
X151901316Y-82824200D01*
X151901316Y-82824200D02*
X151934649Y-82786104D01*
X151934649Y-82786104D02*
X151934649Y-82519438D01*
X151934649Y-82519438D02*
X151801316Y-82519438D01*
X152234649Y-82862295D02*
X152234649Y-82062295D01*
X152234649Y-82062295D02*
X152501316Y-82062295D01*
X152501316Y-82062295D02*
X152567983Y-82100390D01*
X152567983Y-82100390D02*
X152601316Y-82138485D01*
X152601316Y-82138485D02*
X152634649Y-82214676D01*
X152634649Y-82214676D02*
X152634649Y-82328961D01*
X152634649Y-82328961D02*
X152601316Y-82405152D01*
X152601316Y-82405152D02*
X152567983Y-82443247D01*
X152567983Y-82443247D02*
X152501316Y-82481342D01*
X152501316Y-82481342D02*
X152234649Y-82481342D01*
X152934649Y-82862295D02*
X152934649Y-82062295D01*
X153401316Y-82062295D02*
X153534649Y-82062295D01*
X153534649Y-82062295D02*
X153601316Y-82100390D01*
X153601316Y-82100390D02*
X153667982Y-82176580D01*
X153667982Y-82176580D02*
X153701316Y-82328961D01*
X153701316Y-82328961D02*
X153701316Y-82595628D01*
X153701316Y-82595628D02*
X153667982Y-82748009D01*
X153667982Y-82748009D02*
X153601316Y-82824200D01*
X153601316Y-82824200D02*
X153534649Y-82862295D01*
X153534649Y-82862295D02*
X153401316Y-82862295D01*
X153401316Y-82862295D02*
X153334649Y-82824200D01*
X153334649Y-82824200D02*
X153267982Y-82748009D01*
X153267982Y-82748009D02*
X153234649Y-82595628D01*
X153234649Y-82595628D02*
X153234649Y-82328961D01*
X153234649Y-82328961D02*
X153267982Y-82176580D01*
X153267982Y-82176580D02*
X153334649Y-82100390D01*
X153334649Y-82100390D02*
X153401316Y-82062295D01*
X153934649Y-82062295D02*
X154367982Y-82062295D01*
X154367982Y-82062295D02*
X154134649Y-82367057D01*
X154134649Y-82367057D02*
X154234649Y-82367057D01*
X154234649Y-82367057D02*
X154301315Y-82405152D01*
X154301315Y-82405152D02*
X154334649Y-82443247D01*
X154334649Y-82443247D02*
X154367982Y-82519438D01*
X154367982Y-82519438D02*
X154367982Y-82709914D01*
X154367982Y-82709914D02*
X154334649Y-82786104D01*
X154334649Y-82786104D02*
X154301315Y-82824200D01*
X154301315Y-82824200D02*
X154234649Y-82862295D01*
X154234649Y-82862295D02*
X154034649Y-82862295D01*
X154034649Y-82862295D02*
X153967982Y-82824200D01*
X153967982Y-82824200D02*
X153934649Y-82786104D01*
X155167982Y-82024200D02*
X154567982Y-83052771D01*
X155401315Y-82062295D02*
X155401315Y-82709914D01*
X155401315Y-82709914D02*
X155434649Y-82786104D01*
X155434649Y-82786104D02*
X155467982Y-82824200D01*
X155467982Y-82824200D02*
X155534649Y-82862295D01*
X155534649Y-82862295D02*
X155667982Y-82862295D01*
X155667982Y-82862295D02*
X155734649Y-82824200D01*
X155734649Y-82824200D02*
X155767982Y-82786104D01*
X155767982Y-82786104D02*
X155801315Y-82709914D01*
X155801315Y-82709914D02*
X155801315Y-82062295D01*
X156267982Y-82062295D02*
X156334648Y-82062295D01*
X156334648Y-82062295D02*
X156401315Y-82100390D01*
X156401315Y-82100390D02*
X156434648Y-82138485D01*
X156434648Y-82138485D02*
X156467982Y-82214676D01*
X156467982Y-82214676D02*
X156501315Y-82367057D01*
X156501315Y-82367057D02*
X156501315Y-82557533D01*
X156501315Y-82557533D02*
X156467982Y-82709914D01*
X156467982Y-82709914D02*
X156434648Y-82786104D01*
X156434648Y-82786104D02*
X156401315Y-82824200D01*
X156401315Y-82824200D02*
X156334648Y-82862295D01*
X156334648Y-82862295D02*
X156267982Y-82862295D01*
X156267982Y-82862295D02*
X156201315Y-82824200D01*
X156201315Y-82824200D02*
X156167982Y-82786104D01*
X156167982Y-82786104D02*
X156134648Y-82709914D01*
X156134648Y-82709914D02*
X156101315Y-82557533D01*
X156101315Y-82557533D02*
X156101315Y-82367057D01*
X156101315Y-82367057D02*
X156134648Y-82214676D01*
X156134648Y-82214676D02*
X156167982Y-82138485D01*
X156167982Y-82138485D02*
X156201315Y-82100390D01*
X156201315Y-82100390D02*
X156267982Y-82062295D01*
X157201315Y-82862295D02*
X156967982Y-82481342D01*
X156801315Y-82862295D02*
X156801315Y-82062295D01*
X156801315Y-82062295D02*
X157067982Y-82062295D01*
X157067982Y-82062295D02*
X157134649Y-82100390D01*
X157134649Y-82100390D02*
X157167982Y-82138485D01*
X157167982Y-82138485D02*
X157201315Y-82214676D01*
X157201315Y-82214676D02*
X157201315Y-82328961D01*
X157201315Y-82328961D02*
X157167982Y-82405152D01*
X157167982Y-82405152D02*
X157134649Y-82443247D01*
X157134649Y-82443247D02*
X157067982Y-82481342D01*
X157067982Y-82481342D02*
X156801315Y-82481342D01*
X157434649Y-82062295D02*
X157901315Y-82862295D01*
X157901315Y-82062295D02*
X157434649Y-82862295D01*
X158167982Y-82862295D02*
X158167982Y-82062295D01*
X158167982Y-82062295D02*
X158334649Y-82062295D01*
X158334649Y-82062295D02*
X158434649Y-82100390D01*
X158434649Y-82100390D02*
X158501316Y-82176580D01*
X158501316Y-82176580D02*
X158534649Y-82252771D01*
X158534649Y-82252771D02*
X158567982Y-82405152D01*
X158567982Y-82405152D02*
X158567982Y-82519438D01*
X158567982Y-82519438D02*
X158534649Y-82671819D01*
X158534649Y-82671819D02*
X158501316Y-82748009D01*
X158501316Y-82748009D02*
X158434649Y-82824200D01*
X158434649Y-82824200D02*
X158334649Y-82862295D01*
X158334649Y-82862295D02*
X158167982Y-82862295D01*
X155434649Y-99880390D02*
X155367982Y-99842295D01*
X155367982Y-99842295D02*
X155267982Y-99842295D01*
X155267982Y-99842295D02*
X155167982Y-99880390D01*
X155167982Y-99880390D02*
X155101316Y-99956580D01*
X155101316Y-99956580D02*
X155067982Y-100032771D01*
X155067982Y-100032771D02*
X155034649Y-100185152D01*
X155034649Y-100185152D02*
X155034649Y-100299438D01*
X155034649Y-100299438D02*
X155067982Y-100451819D01*
X155067982Y-100451819D02*
X155101316Y-100528009D01*
X155101316Y-100528009D02*
X155167982Y-100604200D01*
X155167982Y-100604200D02*
X155267982Y-100642295D01*
X155267982Y-100642295D02*
X155334649Y-100642295D01*
X155334649Y-100642295D02*
X155434649Y-100604200D01*
X155434649Y-100604200D02*
X155467982Y-100566104D01*
X155467982Y-100566104D02*
X155467982Y-100299438D01*
X155467982Y-100299438D02*
X155334649Y-100299438D01*
X155767982Y-100642295D02*
X155767982Y-99842295D01*
X155767982Y-99842295D02*
X156034649Y-99842295D01*
X156034649Y-99842295D02*
X156101316Y-99880390D01*
X156101316Y-99880390D02*
X156134649Y-99918485D01*
X156134649Y-99918485D02*
X156167982Y-99994676D01*
X156167982Y-99994676D02*
X156167982Y-100108961D01*
X156167982Y-100108961D02*
X156134649Y-100185152D01*
X156134649Y-100185152D02*
X156101316Y-100223247D01*
X156101316Y-100223247D02*
X156034649Y-100261342D01*
X156034649Y-100261342D02*
X155767982Y-100261342D01*
X156467982Y-100642295D02*
X156467982Y-99842295D01*
X156934649Y-99842295D02*
X157067982Y-99842295D01*
X157067982Y-99842295D02*
X157134649Y-99880390D01*
X157134649Y-99880390D02*
X157201315Y-99956580D01*
X157201315Y-99956580D02*
X157234649Y-100108961D01*
X157234649Y-100108961D02*
X157234649Y-100375628D01*
X157234649Y-100375628D02*
X157201315Y-100528009D01*
X157201315Y-100528009D02*
X157134649Y-100604200D01*
X157134649Y-100604200D02*
X157067982Y-100642295D01*
X157067982Y-100642295D02*
X156934649Y-100642295D01*
X156934649Y-100642295D02*
X156867982Y-100604200D01*
X156867982Y-100604200D02*
X156801315Y-100528009D01*
X156801315Y-100528009D02*
X156767982Y-100375628D01*
X156767982Y-100375628D02*
X156767982Y-100108961D01*
X156767982Y-100108961D02*
X156801315Y-99956580D01*
X156801315Y-99956580D02*
X156867982Y-99880390D01*
X156867982Y-99880390D02*
X156934649Y-99842295D01*
X157901315Y-100642295D02*
X157501315Y-100642295D01*
X157701315Y-100642295D02*
X157701315Y-99842295D01*
X157701315Y-99842295D02*
X157634648Y-99956580D01*
X157634648Y-99956580D02*
X157567982Y-100032771D01*
X157567982Y-100032771D02*
X157501315Y-100070866D01*
X158501315Y-99842295D02*
X158367982Y-99842295D01*
X158367982Y-99842295D02*
X158301315Y-99880390D01*
X158301315Y-99880390D02*
X158267982Y-99918485D01*
X158267982Y-99918485D02*
X158201315Y-100032771D01*
X158201315Y-100032771D02*
X158167982Y-100185152D01*
X158167982Y-100185152D02*
X158167982Y-100489914D01*
X158167982Y-100489914D02*
X158201315Y-100566104D01*
X158201315Y-100566104D02*
X158234649Y-100604200D01*
X158234649Y-100604200D02*
X158301315Y-100642295D01*
X158301315Y-100642295D02*
X158434649Y-100642295D01*
X158434649Y-100642295D02*
X158501315Y-100604200D01*
X158501315Y-100604200D02*
X158534649Y-100566104D01*
X158534649Y-100566104D02*
X158567982Y-100489914D01*
X158567982Y-100489914D02*
X158567982Y-100299438D01*
X158567982Y-100299438D02*
X158534649Y-100223247D01*
X158534649Y-100223247D02*
X158501315Y-100185152D01*
X158501315Y-100185152D02*
X158434649Y-100147057D01*
X158434649Y-100147057D02*
X158301315Y-100147057D01*
X158301315Y-100147057D02*
X158234649Y-100185152D01*
X158234649Y-100185152D02*
X158201315Y-100223247D01*
X158201315Y-100223247D02*
X158167982Y-100299438D01*
X139702017Y-89720390D02*
X139635350Y-89682295D01*
X139635350Y-89682295D02*
X139535350Y-89682295D01*
X139535350Y-89682295D02*
X139435350Y-89720390D01*
X139435350Y-89720390D02*
X139368684Y-89796580D01*
X139368684Y-89796580D02*
X139335350Y-89872771D01*
X139335350Y-89872771D02*
X139302017Y-90025152D01*
X139302017Y-90025152D02*
X139302017Y-90139438D01*
X139302017Y-90139438D02*
X139335350Y-90291819D01*
X139335350Y-90291819D02*
X139368684Y-90368009D01*
X139368684Y-90368009D02*
X139435350Y-90444200D01*
X139435350Y-90444200D02*
X139535350Y-90482295D01*
X139535350Y-90482295D02*
X139602017Y-90482295D01*
X139602017Y-90482295D02*
X139702017Y-90444200D01*
X139702017Y-90444200D02*
X139735350Y-90406104D01*
X139735350Y-90406104D02*
X139735350Y-90139438D01*
X139735350Y-90139438D02*
X139602017Y-90139438D01*
X140035350Y-90482295D02*
X140035350Y-89682295D01*
X140035350Y-89682295D02*
X140302017Y-89682295D01*
X140302017Y-89682295D02*
X140368684Y-89720390D01*
X140368684Y-89720390D02*
X140402017Y-89758485D01*
X140402017Y-89758485D02*
X140435350Y-89834676D01*
X140435350Y-89834676D02*
X140435350Y-89948961D01*
X140435350Y-89948961D02*
X140402017Y-90025152D01*
X140402017Y-90025152D02*
X140368684Y-90063247D01*
X140368684Y-90063247D02*
X140302017Y-90101342D01*
X140302017Y-90101342D02*
X140035350Y-90101342D01*
X140735350Y-90482295D02*
X140735350Y-89682295D01*
X141202017Y-89682295D02*
X141335350Y-89682295D01*
X141335350Y-89682295D02*
X141402017Y-89720390D01*
X141402017Y-89720390D02*
X141468683Y-89796580D01*
X141468683Y-89796580D02*
X141502017Y-89948961D01*
X141502017Y-89948961D02*
X141502017Y-90215628D01*
X141502017Y-90215628D02*
X141468683Y-90368009D01*
X141468683Y-90368009D02*
X141402017Y-90444200D01*
X141402017Y-90444200D02*
X141335350Y-90482295D01*
X141335350Y-90482295D02*
X141202017Y-90482295D01*
X141202017Y-90482295D02*
X141135350Y-90444200D01*
X141135350Y-90444200D02*
X141068683Y-90368009D01*
X141068683Y-90368009D02*
X141035350Y-90215628D01*
X141035350Y-90215628D02*
X141035350Y-89948961D01*
X141035350Y-89948961D02*
X141068683Y-89796580D01*
X141068683Y-89796580D02*
X141135350Y-89720390D01*
X141135350Y-89720390D02*
X141202017Y-89682295D01*
X141735350Y-89682295D02*
X142168683Y-89682295D01*
X142168683Y-89682295D02*
X141935350Y-89987057D01*
X141935350Y-89987057D02*
X142035350Y-89987057D01*
X142035350Y-89987057D02*
X142102016Y-90025152D01*
X142102016Y-90025152D02*
X142135350Y-90063247D01*
X142135350Y-90063247D02*
X142168683Y-90139438D01*
X142168683Y-90139438D02*
X142168683Y-90329914D01*
X142168683Y-90329914D02*
X142135350Y-90406104D01*
X142135350Y-90406104D02*
X142102016Y-90444200D01*
X142102016Y-90444200D02*
X142035350Y-90482295D01*
X142035350Y-90482295D02*
X141835350Y-90482295D01*
X141835350Y-90482295D02*
X141768683Y-90444200D01*
X141768683Y-90444200D02*
X141735350Y-90406104D01*
X142402017Y-89682295D02*
X142835350Y-89682295D01*
X142835350Y-89682295D02*
X142602017Y-89987057D01*
X142602017Y-89987057D02*
X142702017Y-89987057D01*
X142702017Y-89987057D02*
X142768683Y-90025152D01*
X142768683Y-90025152D02*
X142802017Y-90063247D01*
X142802017Y-90063247D02*
X142835350Y-90139438D01*
X142835350Y-90139438D02*
X142835350Y-90329914D01*
X142835350Y-90329914D02*
X142802017Y-90406104D01*
X142802017Y-90406104D02*
X142768683Y-90444200D01*
X142768683Y-90444200D02*
X142702017Y-90482295D01*
X142702017Y-90482295D02*
X142502017Y-90482295D01*
X142502017Y-90482295D02*
X142435350Y-90444200D01*
X142435350Y-90444200D02*
X142402017Y-90406104D01*
X139335350Y-110802295D02*
X139335350Y-110002295D01*
X139335350Y-110002295D02*
X139502017Y-110002295D01*
X139502017Y-110002295D02*
X139602017Y-110040390D01*
X139602017Y-110040390D02*
X139668684Y-110116580D01*
X139668684Y-110116580D02*
X139702017Y-110192771D01*
X139702017Y-110192771D02*
X139735350Y-110345152D01*
X139735350Y-110345152D02*
X139735350Y-110459438D01*
X139735350Y-110459438D02*
X139702017Y-110611819D01*
X139702017Y-110611819D02*
X139668684Y-110688009D01*
X139668684Y-110688009D02*
X139602017Y-110764200D01*
X139602017Y-110764200D02*
X139502017Y-110802295D01*
X139502017Y-110802295D02*
X139335350Y-110802295D01*
X140002017Y-110078485D02*
X140035350Y-110040390D01*
X140035350Y-110040390D02*
X140102017Y-110002295D01*
X140102017Y-110002295D02*
X140268684Y-110002295D01*
X140268684Y-110002295D02*
X140335350Y-110040390D01*
X140335350Y-110040390D02*
X140368684Y-110078485D01*
X140368684Y-110078485D02*
X140402017Y-110154676D01*
X140402017Y-110154676D02*
X140402017Y-110230866D01*
X140402017Y-110230866D02*
X140368684Y-110345152D01*
X140368684Y-110345152D02*
X139968684Y-110802295D01*
X139968684Y-110802295D02*
X140402017Y-110802295D01*
X139702017Y-94800390D02*
X139635350Y-94762295D01*
X139635350Y-94762295D02*
X139535350Y-94762295D01*
X139535350Y-94762295D02*
X139435350Y-94800390D01*
X139435350Y-94800390D02*
X139368684Y-94876580D01*
X139368684Y-94876580D02*
X139335350Y-94952771D01*
X139335350Y-94952771D02*
X139302017Y-95105152D01*
X139302017Y-95105152D02*
X139302017Y-95219438D01*
X139302017Y-95219438D02*
X139335350Y-95371819D01*
X139335350Y-95371819D02*
X139368684Y-95448009D01*
X139368684Y-95448009D02*
X139435350Y-95524200D01*
X139435350Y-95524200D02*
X139535350Y-95562295D01*
X139535350Y-95562295D02*
X139602017Y-95562295D01*
X139602017Y-95562295D02*
X139702017Y-95524200D01*
X139702017Y-95524200D02*
X139735350Y-95486104D01*
X139735350Y-95486104D02*
X139735350Y-95219438D01*
X139735350Y-95219438D02*
X139602017Y-95219438D01*
X140035350Y-95562295D02*
X140035350Y-94762295D01*
X140035350Y-94762295D02*
X140302017Y-94762295D01*
X140302017Y-94762295D02*
X140368684Y-94800390D01*
X140368684Y-94800390D02*
X140402017Y-94838485D01*
X140402017Y-94838485D02*
X140435350Y-94914676D01*
X140435350Y-94914676D02*
X140435350Y-95028961D01*
X140435350Y-95028961D02*
X140402017Y-95105152D01*
X140402017Y-95105152D02*
X140368684Y-95143247D01*
X140368684Y-95143247D02*
X140302017Y-95181342D01*
X140302017Y-95181342D02*
X140035350Y-95181342D01*
X140735350Y-95562295D02*
X140735350Y-94762295D01*
X141202017Y-94762295D02*
X141335350Y-94762295D01*
X141335350Y-94762295D02*
X141402017Y-94800390D01*
X141402017Y-94800390D02*
X141468683Y-94876580D01*
X141468683Y-94876580D02*
X141502017Y-95028961D01*
X141502017Y-95028961D02*
X141502017Y-95295628D01*
X141502017Y-95295628D02*
X141468683Y-95448009D01*
X141468683Y-95448009D02*
X141402017Y-95524200D01*
X141402017Y-95524200D02*
X141335350Y-95562295D01*
X141335350Y-95562295D02*
X141202017Y-95562295D01*
X141202017Y-95562295D02*
X141135350Y-95524200D01*
X141135350Y-95524200D02*
X141068683Y-95448009D01*
X141068683Y-95448009D02*
X141035350Y-95295628D01*
X141035350Y-95295628D02*
X141035350Y-95028961D01*
X141035350Y-95028961D02*
X141068683Y-94876580D01*
X141068683Y-94876580D02*
X141135350Y-94800390D01*
X141135350Y-94800390D02*
X141202017Y-94762295D01*
X141768683Y-94838485D02*
X141802016Y-94800390D01*
X141802016Y-94800390D02*
X141868683Y-94762295D01*
X141868683Y-94762295D02*
X142035350Y-94762295D01*
X142035350Y-94762295D02*
X142102016Y-94800390D01*
X142102016Y-94800390D02*
X142135350Y-94838485D01*
X142135350Y-94838485D02*
X142168683Y-94914676D01*
X142168683Y-94914676D02*
X142168683Y-94990866D01*
X142168683Y-94990866D02*
X142135350Y-95105152D01*
X142135350Y-95105152D02*
X141735350Y-95562295D01*
X141735350Y-95562295D02*
X142168683Y-95562295D01*
X142768683Y-94762295D02*
X142635350Y-94762295D01*
X142635350Y-94762295D02*
X142568683Y-94800390D01*
X142568683Y-94800390D02*
X142535350Y-94838485D01*
X142535350Y-94838485D02*
X142468683Y-94952771D01*
X142468683Y-94952771D02*
X142435350Y-95105152D01*
X142435350Y-95105152D02*
X142435350Y-95409914D01*
X142435350Y-95409914D02*
X142468683Y-95486104D01*
X142468683Y-95486104D02*
X142502017Y-95524200D01*
X142502017Y-95524200D02*
X142568683Y-95562295D01*
X142568683Y-95562295D02*
X142702017Y-95562295D01*
X142702017Y-95562295D02*
X142768683Y-95524200D01*
X142768683Y-95524200D02*
X142802017Y-95486104D01*
X142802017Y-95486104D02*
X142835350Y-95409914D01*
X142835350Y-95409914D02*
X142835350Y-95219438D01*
X142835350Y-95219438D02*
X142802017Y-95143247D01*
X142802017Y-95143247D02*
X142768683Y-95105152D01*
X142768683Y-95105152D02*
X142702017Y-95067057D01*
X142702017Y-95067057D02*
X142568683Y-95067057D01*
X142568683Y-95067057D02*
X142502017Y-95105152D01*
X142502017Y-95105152D02*
X142468683Y-95143247D01*
X142468683Y-95143247D02*
X142435350Y-95219438D01*
X139930588Y-104862438D02*
X139835350Y-104814819D01*
X139835350Y-104814819D02*
X139692493Y-104814819D01*
X139692493Y-104814819D02*
X139549636Y-104862438D01*
X139549636Y-104862438D02*
X139454398Y-104957676D01*
X139454398Y-104957676D02*
X139406779Y-105052914D01*
X139406779Y-105052914D02*
X139359160Y-105243390D01*
X139359160Y-105243390D02*
X139359160Y-105386247D01*
X139359160Y-105386247D02*
X139406779Y-105576723D01*
X139406779Y-105576723D02*
X139454398Y-105671961D01*
X139454398Y-105671961D02*
X139549636Y-105767200D01*
X139549636Y-105767200D02*
X139692493Y-105814819D01*
X139692493Y-105814819D02*
X139787731Y-105814819D01*
X139787731Y-105814819D02*
X139930588Y-105767200D01*
X139930588Y-105767200D02*
X139978207Y-105719580D01*
X139978207Y-105719580D02*
X139978207Y-105386247D01*
X139978207Y-105386247D02*
X139787731Y-105386247D01*
X140406779Y-105814819D02*
X140406779Y-104814819D01*
X140406779Y-104814819D02*
X140978207Y-105814819D01*
X140978207Y-105814819D02*
X140978207Y-104814819D01*
X141454398Y-105814819D02*
X141454398Y-104814819D01*
X141454398Y-104814819D02*
X141692493Y-104814819D01*
X141692493Y-104814819D02*
X141835350Y-104862438D01*
X141835350Y-104862438D02*
X141930588Y-104957676D01*
X141930588Y-104957676D02*
X141978207Y-105052914D01*
X141978207Y-105052914D02*
X142025826Y-105243390D01*
X142025826Y-105243390D02*
X142025826Y-105386247D01*
X142025826Y-105386247D02*
X141978207Y-105576723D01*
X141978207Y-105576723D02*
X141930588Y-105671961D01*
X141930588Y-105671961D02*
X141835350Y-105767200D01*
X141835350Y-105767200D02*
X141692493Y-105814819D01*
X141692493Y-105814819D02*
X141454398Y-105814819D01*
X139702017Y-92260390D02*
X139635350Y-92222295D01*
X139635350Y-92222295D02*
X139535350Y-92222295D01*
X139535350Y-92222295D02*
X139435350Y-92260390D01*
X139435350Y-92260390D02*
X139368684Y-92336580D01*
X139368684Y-92336580D02*
X139335350Y-92412771D01*
X139335350Y-92412771D02*
X139302017Y-92565152D01*
X139302017Y-92565152D02*
X139302017Y-92679438D01*
X139302017Y-92679438D02*
X139335350Y-92831819D01*
X139335350Y-92831819D02*
X139368684Y-92908009D01*
X139368684Y-92908009D02*
X139435350Y-92984200D01*
X139435350Y-92984200D02*
X139535350Y-93022295D01*
X139535350Y-93022295D02*
X139602017Y-93022295D01*
X139602017Y-93022295D02*
X139702017Y-92984200D01*
X139702017Y-92984200D02*
X139735350Y-92946104D01*
X139735350Y-92946104D02*
X139735350Y-92679438D01*
X139735350Y-92679438D02*
X139602017Y-92679438D01*
X140035350Y-93022295D02*
X140035350Y-92222295D01*
X140035350Y-92222295D02*
X140302017Y-92222295D01*
X140302017Y-92222295D02*
X140368684Y-92260390D01*
X140368684Y-92260390D02*
X140402017Y-92298485D01*
X140402017Y-92298485D02*
X140435350Y-92374676D01*
X140435350Y-92374676D02*
X140435350Y-92488961D01*
X140435350Y-92488961D02*
X140402017Y-92565152D01*
X140402017Y-92565152D02*
X140368684Y-92603247D01*
X140368684Y-92603247D02*
X140302017Y-92641342D01*
X140302017Y-92641342D02*
X140035350Y-92641342D01*
X140735350Y-93022295D02*
X140735350Y-92222295D01*
X141202017Y-92222295D02*
X141335350Y-92222295D01*
X141335350Y-92222295D02*
X141402017Y-92260390D01*
X141402017Y-92260390D02*
X141468683Y-92336580D01*
X141468683Y-92336580D02*
X141502017Y-92488961D01*
X141502017Y-92488961D02*
X141502017Y-92755628D01*
X141502017Y-92755628D02*
X141468683Y-92908009D01*
X141468683Y-92908009D02*
X141402017Y-92984200D01*
X141402017Y-92984200D02*
X141335350Y-93022295D01*
X141335350Y-93022295D02*
X141202017Y-93022295D01*
X141202017Y-93022295D02*
X141135350Y-92984200D01*
X141135350Y-92984200D02*
X141068683Y-92908009D01*
X141068683Y-92908009D02*
X141035350Y-92755628D01*
X141035350Y-92755628D02*
X141035350Y-92488961D01*
X141035350Y-92488961D02*
X141068683Y-92336580D01*
X141068683Y-92336580D02*
X141135350Y-92260390D01*
X141135350Y-92260390D02*
X141202017Y-92222295D01*
X141768683Y-92298485D02*
X141802016Y-92260390D01*
X141802016Y-92260390D02*
X141868683Y-92222295D01*
X141868683Y-92222295D02*
X142035350Y-92222295D01*
X142035350Y-92222295D02*
X142102016Y-92260390D01*
X142102016Y-92260390D02*
X142135350Y-92298485D01*
X142135350Y-92298485D02*
X142168683Y-92374676D01*
X142168683Y-92374676D02*
X142168683Y-92450866D01*
X142168683Y-92450866D02*
X142135350Y-92565152D01*
X142135350Y-92565152D02*
X141735350Y-93022295D01*
X141735350Y-93022295D02*
X142168683Y-93022295D01*
X142802017Y-92222295D02*
X142468683Y-92222295D01*
X142468683Y-92222295D02*
X142435350Y-92603247D01*
X142435350Y-92603247D02*
X142468683Y-92565152D01*
X142468683Y-92565152D02*
X142535350Y-92527057D01*
X142535350Y-92527057D02*
X142702017Y-92527057D01*
X142702017Y-92527057D02*
X142768683Y-92565152D01*
X142768683Y-92565152D02*
X142802017Y-92603247D01*
X142802017Y-92603247D02*
X142835350Y-92679438D01*
X142835350Y-92679438D02*
X142835350Y-92869914D01*
X142835350Y-92869914D02*
X142802017Y-92946104D01*
X142802017Y-92946104D02*
X142768683Y-92984200D01*
X142768683Y-92984200D02*
X142702017Y-93022295D01*
X142702017Y-93022295D02*
X142535350Y-93022295D01*
X142535350Y-93022295D02*
X142468683Y-92984200D01*
X142468683Y-92984200D02*
X142435350Y-92946104D01*
X139702017Y-82100390D02*
X139635350Y-82062295D01*
X139635350Y-82062295D02*
X139535350Y-82062295D01*
X139535350Y-82062295D02*
X139435350Y-82100390D01*
X139435350Y-82100390D02*
X139368684Y-82176580D01*
X139368684Y-82176580D02*
X139335350Y-82252771D01*
X139335350Y-82252771D02*
X139302017Y-82405152D01*
X139302017Y-82405152D02*
X139302017Y-82519438D01*
X139302017Y-82519438D02*
X139335350Y-82671819D01*
X139335350Y-82671819D02*
X139368684Y-82748009D01*
X139368684Y-82748009D02*
X139435350Y-82824200D01*
X139435350Y-82824200D02*
X139535350Y-82862295D01*
X139535350Y-82862295D02*
X139602017Y-82862295D01*
X139602017Y-82862295D02*
X139702017Y-82824200D01*
X139702017Y-82824200D02*
X139735350Y-82786104D01*
X139735350Y-82786104D02*
X139735350Y-82519438D01*
X139735350Y-82519438D02*
X139602017Y-82519438D01*
X140035350Y-82862295D02*
X140035350Y-82062295D01*
X140035350Y-82062295D02*
X140302017Y-82062295D01*
X140302017Y-82062295D02*
X140368684Y-82100390D01*
X140368684Y-82100390D02*
X140402017Y-82138485D01*
X140402017Y-82138485D02*
X140435350Y-82214676D01*
X140435350Y-82214676D02*
X140435350Y-82328961D01*
X140435350Y-82328961D02*
X140402017Y-82405152D01*
X140402017Y-82405152D02*
X140368684Y-82443247D01*
X140368684Y-82443247D02*
X140302017Y-82481342D01*
X140302017Y-82481342D02*
X140035350Y-82481342D01*
X140735350Y-82862295D02*
X140735350Y-82062295D01*
X141202017Y-82062295D02*
X141335350Y-82062295D01*
X141335350Y-82062295D02*
X141402017Y-82100390D01*
X141402017Y-82100390D02*
X141468683Y-82176580D01*
X141468683Y-82176580D02*
X141502017Y-82328961D01*
X141502017Y-82328961D02*
X141502017Y-82595628D01*
X141502017Y-82595628D02*
X141468683Y-82748009D01*
X141468683Y-82748009D02*
X141402017Y-82824200D01*
X141402017Y-82824200D02*
X141335350Y-82862295D01*
X141335350Y-82862295D02*
X141202017Y-82862295D01*
X141202017Y-82862295D02*
X141135350Y-82824200D01*
X141135350Y-82824200D02*
X141068683Y-82748009D01*
X141068683Y-82748009D02*
X141035350Y-82595628D01*
X141035350Y-82595628D02*
X141035350Y-82328961D01*
X141035350Y-82328961D02*
X141068683Y-82176580D01*
X141068683Y-82176580D02*
X141135350Y-82100390D01*
X141135350Y-82100390D02*
X141202017Y-82062295D01*
X141735350Y-82062295D02*
X142168683Y-82062295D01*
X142168683Y-82062295D02*
X141935350Y-82367057D01*
X141935350Y-82367057D02*
X142035350Y-82367057D01*
X142035350Y-82367057D02*
X142102016Y-82405152D01*
X142102016Y-82405152D02*
X142135350Y-82443247D01*
X142135350Y-82443247D02*
X142168683Y-82519438D01*
X142168683Y-82519438D02*
X142168683Y-82709914D01*
X142168683Y-82709914D02*
X142135350Y-82786104D01*
X142135350Y-82786104D02*
X142102016Y-82824200D01*
X142102016Y-82824200D02*
X142035350Y-82862295D01*
X142035350Y-82862295D02*
X141835350Y-82862295D01*
X141835350Y-82862295D02*
X141768683Y-82824200D01*
X141768683Y-82824200D02*
X141735350Y-82786104D01*
X142768683Y-82328961D02*
X142768683Y-82862295D01*
X142602017Y-82024200D02*
X142435350Y-82595628D01*
X142435350Y-82595628D02*
X142868683Y-82595628D01*
X139702017Y-87180390D02*
X139635350Y-87142295D01*
X139635350Y-87142295D02*
X139535350Y-87142295D01*
X139535350Y-87142295D02*
X139435350Y-87180390D01*
X139435350Y-87180390D02*
X139368684Y-87256580D01*
X139368684Y-87256580D02*
X139335350Y-87332771D01*
X139335350Y-87332771D02*
X139302017Y-87485152D01*
X139302017Y-87485152D02*
X139302017Y-87599438D01*
X139302017Y-87599438D02*
X139335350Y-87751819D01*
X139335350Y-87751819D02*
X139368684Y-87828009D01*
X139368684Y-87828009D02*
X139435350Y-87904200D01*
X139435350Y-87904200D02*
X139535350Y-87942295D01*
X139535350Y-87942295D02*
X139602017Y-87942295D01*
X139602017Y-87942295D02*
X139702017Y-87904200D01*
X139702017Y-87904200D02*
X139735350Y-87866104D01*
X139735350Y-87866104D02*
X139735350Y-87599438D01*
X139735350Y-87599438D02*
X139602017Y-87599438D01*
X140035350Y-87942295D02*
X140035350Y-87142295D01*
X140035350Y-87142295D02*
X140302017Y-87142295D01*
X140302017Y-87142295D02*
X140368684Y-87180390D01*
X140368684Y-87180390D02*
X140402017Y-87218485D01*
X140402017Y-87218485D02*
X140435350Y-87294676D01*
X140435350Y-87294676D02*
X140435350Y-87408961D01*
X140435350Y-87408961D02*
X140402017Y-87485152D01*
X140402017Y-87485152D02*
X140368684Y-87523247D01*
X140368684Y-87523247D02*
X140302017Y-87561342D01*
X140302017Y-87561342D02*
X140035350Y-87561342D01*
X140735350Y-87942295D02*
X140735350Y-87142295D01*
X141202017Y-87142295D02*
X141335350Y-87142295D01*
X141335350Y-87142295D02*
X141402017Y-87180390D01*
X141402017Y-87180390D02*
X141468683Y-87256580D01*
X141468683Y-87256580D02*
X141502017Y-87408961D01*
X141502017Y-87408961D02*
X141502017Y-87675628D01*
X141502017Y-87675628D02*
X141468683Y-87828009D01*
X141468683Y-87828009D02*
X141402017Y-87904200D01*
X141402017Y-87904200D02*
X141335350Y-87942295D01*
X141335350Y-87942295D02*
X141202017Y-87942295D01*
X141202017Y-87942295D02*
X141135350Y-87904200D01*
X141135350Y-87904200D02*
X141068683Y-87828009D01*
X141068683Y-87828009D02*
X141035350Y-87675628D01*
X141035350Y-87675628D02*
X141035350Y-87408961D01*
X141035350Y-87408961D02*
X141068683Y-87256580D01*
X141068683Y-87256580D02*
X141135350Y-87180390D01*
X141135350Y-87180390D02*
X141202017Y-87142295D01*
X141735350Y-87142295D02*
X142168683Y-87142295D01*
X142168683Y-87142295D02*
X141935350Y-87447057D01*
X141935350Y-87447057D02*
X142035350Y-87447057D01*
X142035350Y-87447057D02*
X142102016Y-87485152D01*
X142102016Y-87485152D02*
X142135350Y-87523247D01*
X142135350Y-87523247D02*
X142168683Y-87599438D01*
X142168683Y-87599438D02*
X142168683Y-87789914D01*
X142168683Y-87789914D02*
X142135350Y-87866104D01*
X142135350Y-87866104D02*
X142102016Y-87904200D01*
X142102016Y-87904200D02*
X142035350Y-87942295D01*
X142035350Y-87942295D02*
X141835350Y-87942295D01*
X141835350Y-87942295D02*
X141768683Y-87904200D01*
X141768683Y-87904200D02*
X141735350Y-87866104D01*
X142435350Y-87218485D02*
X142468683Y-87180390D01*
X142468683Y-87180390D02*
X142535350Y-87142295D01*
X142535350Y-87142295D02*
X142702017Y-87142295D01*
X142702017Y-87142295D02*
X142768683Y-87180390D01*
X142768683Y-87180390D02*
X142802017Y-87218485D01*
X142802017Y-87218485D02*
X142835350Y-87294676D01*
X142835350Y-87294676D02*
X142835350Y-87370866D01*
X142835350Y-87370866D02*
X142802017Y-87485152D01*
X142802017Y-87485152D02*
X142402017Y-87942295D01*
X142402017Y-87942295D02*
X142835350Y-87942295D01*
X156101316Y-94800390D02*
X156034649Y-94762295D01*
X156034649Y-94762295D02*
X155934649Y-94762295D01*
X155934649Y-94762295D02*
X155834649Y-94800390D01*
X155834649Y-94800390D02*
X155767983Y-94876580D01*
X155767983Y-94876580D02*
X155734649Y-94952771D01*
X155734649Y-94952771D02*
X155701316Y-95105152D01*
X155701316Y-95105152D02*
X155701316Y-95219438D01*
X155701316Y-95219438D02*
X155734649Y-95371819D01*
X155734649Y-95371819D02*
X155767983Y-95448009D01*
X155767983Y-95448009D02*
X155834649Y-95524200D01*
X155834649Y-95524200D02*
X155934649Y-95562295D01*
X155934649Y-95562295D02*
X156001316Y-95562295D01*
X156001316Y-95562295D02*
X156101316Y-95524200D01*
X156101316Y-95524200D02*
X156134649Y-95486104D01*
X156134649Y-95486104D02*
X156134649Y-95219438D01*
X156134649Y-95219438D02*
X156001316Y-95219438D01*
X156434649Y-95562295D02*
X156434649Y-94762295D01*
X156434649Y-94762295D02*
X156701316Y-94762295D01*
X156701316Y-94762295D02*
X156767983Y-94800390D01*
X156767983Y-94800390D02*
X156801316Y-94838485D01*
X156801316Y-94838485D02*
X156834649Y-94914676D01*
X156834649Y-94914676D02*
X156834649Y-95028961D01*
X156834649Y-95028961D02*
X156801316Y-95105152D01*
X156801316Y-95105152D02*
X156767983Y-95143247D01*
X156767983Y-95143247D02*
X156701316Y-95181342D01*
X156701316Y-95181342D02*
X156434649Y-95181342D01*
X157134649Y-95562295D02*
X157134649Y-94762295D01*
X157601316Y-94762295D02*
X157734649Y-94762295D01*
X157734649Y-94762295D02*
X157801316Y-94800390D01*
X157801316Y-94800390D02*
X157867982Y-94876580D01*
X157867982Y-94876580D02*
X157901316Y-95028961D01*
X157901316Y-95028961D02*
X157901316Y-95295628D01*
X157901316Y-95295628D02*
X157867982Y-95448009D01*
X157867982Y-95448009D02*
X157801316Y-95524200D01*
X157801316Y-95524200D02*
X157734649Y-95562295D01*
X157734649Y-95562295D02*
X157601316Y-95562295D01*
X157601316Y-95562295D02*
X157534649Y-95524200D01*
X157534649Y-95524200D02*
X157467982Y-95448009D01*
X157467982Y-95448009D02*
X157434649Y-95295628D01*
X157434649Y-95295628D02*
X157434649Y-95028961D01*
X157434649Y-95028961D02*
X157467982Y-94876580D01*
X157467982Y-94876580D02*
X157534649Y-94800390D01*
X157534649Y-94800390D02*
X157601316Y-94762295D01*
X158534649Y-94762295D02*
X158201315Y-94762295D01*
X158201315Y-94762295D02*
X158167982Y-95143247D01*
X158167982Y-95143247D02*
X158201315Y-95105152D01*
X158201315Y-95105152D02*
X158267982Y-95067057D01*
X158267982Y-95067057D02*
X158434649Y-95067057D01*
X158434649Y-95067057D02*
X158501315Y-95105152D01*
X158501315Y-95105152D02*
X158534649Y-95143247D01*
X158534649Y-95143247D02*
X158567982Y-95219438D01*
X158567982Y-95219438D02*
X158567982Y-95409914D01*
X158567982Y-95409914D02*
X158534649Y-95486104D01*
X158534649Y-95486104D02*
X158501315Y-95524200D01*
X158501315Y-95524200D02*
X158434649Y-95562295D01*
X158434649Y-95562295D02*
X158267982Y-95562295D01*
X158267982Y-95562295D02*
X158201315Y-95524200D01*
X158201315Y-95524200D02*
X158167982Y-95486104D01*
X139702017Y-107500390D02*
X139635350Y-107462295D01*
X139635350Y-107462295D02*
X139535350Y-107462295D01*
X139535350Y-107462295D02*
X139435350Y-107500390D01*
X139435350Y-107500390D02*
X139368684Y-107576580D01*
X139368684Y-107576580D02*
X139335350Y-107652771D01*
X139335350Y-107652771D02*
X139302017Y-107805152D01*
X139302017Y-107805152D02*
X139302017Y-107919438D01*
X139302017Y-107919438D02*
X139335350Y-108071819D01*
X139335350Y-108071819D02*
X139368684Y-108148009D01*
X139368684Y-108148009D02*
X139435350Y-108224200D01*
X139435350Y-108224200D02*
X139535350Y-108262295D01*
X139535350Y-108262295D02*
X139602017Y-108262295D01*
X139602017Y-108262295D02*
X139702017Y-108224200D01*
X139702017Y-108224200D02*
X139735350Y-108186104D01*
X139735350Y-108186104D02*
X139735350Y-107919438D01*
X139735350Y-107919438D02*
X139602017Y-107919438D01*
X140035350Y-108262295D02*
X140035350Y-107462295D01*
X140035350Y-107462295D02*
X140302017Y-107462295D01*
X140302017Y-107462295D02*
X140368684Y-107500390D01*
X140368684Y-107500390D02*
X140402017Y-107538485D01*
X140402017Y-107538485D02*
X140435350Y-107614676D01*
X140435350Y-107614676D02*
X140435350Y-107728961D01*
X140435350Y-107728961D02*
X140402017Y-107805152D01*
X140402017Y-107805152D02*
X140368684Y-107843247D01*
X140368684Y-107843247D02*
X140302017Y-107881342D01*
X140302017Y-107881342D02*
X140035350Y-107881342D01*
X140735350Y-108262295D02*
X140735350Y-107462295D01*
X141202017Y-107462295D02*
X141335350Y-107462295D01*
X141335350Y-107462295D02*
X141402017Y-107500390D01*
X141402017Y-107500390D02*
X141468683Y-107576580D01*
X141468683Y-107576580D02*
X141502017Y-107728961D01*
X141502017Y-107728961D02*
X141502017Y-107995628D01*
X141502017Y-107995628D02*
X141468683Y-108148009D01*
X141468683Y-108148009D02*
X141402017Y-108224200D01*
X141402017Y-108224200D02*
X141335350Y-108262295D01*
X141335350Y-108262295D02*
X141202017Y-108262295D01*
X141202017Y-108262295D02*
X141135350Y-108224200D01*
X141135350Y-108224200D02*
X141068683Y-108148009D01*
X141068683Y-108148009D02*
X141035350Y-107995628D01*
X141035350Y-107995628D02*
X141035350Y-107728961D01*
X141035350Y-107728961D02*
X141068683Y-107576580D01*
X141068683Y-107576580D02*
X141135350Y-107500390D01*
X141135350Y-107500390D02*
X141202017Y-107462295D01*
X142168683Y-108262295D02*
X141768683Y-108262295D01*
X141968683Y-108262295D02*
X141968683Y-107462295D01*
X141968683Y-107462295D02*
X141902016Y-107576580D01*
X141902016Y-107576580D02*
X141835350Y-107652771D01*
X141835350Y-107652771D02*
X141768683Y-107690866D01*
X142402017Y-107462295D02*
X142835350Y-107462295D01*
X142835350Y-107462295D02*
X142602017Y-107767057D01*
X142602017Y-107767057D02*
X142702017Y-107767057D01*
X142702017Y-107767057D02*
X142768683Y-107805152D01*
X142768683Y-107805152D02*
X142802017Y-107843247D01*
X142802017Y-107843247D02*
X142835350Y-107919438D01*
X142835350Y-107919438D02*
X142835350Y-108109914D01*
X142835350Y-108109914D02*
X142802017Y-108186104D01*
X142802017Y-108186104D02*
X142768683Y-108224200D01*
X142768683Y-108224200D02*
X142702017Y-108262295D01*
X142702017Y-108262295D02*
X142502017Y-108262295D01*
X142502017Y-108262295D02*
X142435350Y-108224200D01*
X142435350Y-108224200D02*
X142402017Y-108186104D01*
X143635350Y-107424200D02*
X143035350Y-108452771D01*
X143868683Y-108262295D02*
X143868683Y-107462295D01*
X143868683Y-107462295D02*
X144102017Y-108033723D01*
X144102017Y-108033723D02*
X144335350Y-107462295D01*
X144335350Y-107462295D02*
X144335350Y-108262295D01*
X144568683Y-107462295D02*
X144968683Y-107462295D01*
X144768683Y-108262295D02*
X144768683Y-107462295D01*
X145602016Y-108186104D02*
X145568683Y-108224200D01*
X145568683Y-108224200D02*
X145468683Y-108262295D01*
X145468683Y-108262295D02*
X145402016Y-108262295D01*
X145402016Y-108262295D02*
X145302016Y-108224200D01*
X145302016Y-108224200D02*
X145235350Y-108148009D01*
X145235350Y-108148009D02*
X145202016Y-108071819D01*
X145202016Y-108071819D02*
X145168683Y-107919438D01*
X145168683Y-107919438D02*
X145168683Y-107805152D01*
X145168683Y-107805152D02*
X145202016Y-107652771D01*
X145202016Y-107652771D02*
X145235350Y-107576580D01*
X145235350Y-107576580D02*
X145302016Y-107500390D01*
X145302016Y-107500390D02*
X145402016Y-107462295D01*
X145402016Y-107462295D02*
X145468683Y-107462295D01*
X145468683Y-107462295D02*
X145568683Y-107500390D01*
X145568683Y-107500390D02*
X145602016Y-107538485D01*
X145902016Y-108262295D02*
X145902016Y-107462295D01*
X146302016Y-108262295D02*
X146002016Y-107805152D01*
X146302016Y-107462295D02*
X145902016Y-107919438D01*
X156101316Y-102420390D02*
X156034649Y-102382295D01*
X156034649Y-102382295D02*
X155934649Y-102382295D01*
X155934649Y-102382295D02*
X155834649Y-102420390D01*
X155834649Y-102420390D02*
X155767983Y-102496580D01*
X155767983Y-102496580D02*
X155734649Y-102572771D01*
X155734649Y-102572771D02*
X155701316Y-102725152D01*
X155701316Y-102725152D02*
X155701316Y-102839438D01*
X155701316Y-102839438D02*
X155734649Y-102991819D01*
X155734649Y-102991819D02*
X155767983Y-103068009D01*
X155767983Y-103068009D02*
X155834649Y-103144200D01*
X155834649Y-103144200D02*
X155934649Y-103182295D01*
X155934649Y-103182295D02*
X156001316Y-103182295D01*
X156001316Y-103182295D02*
X156101316Y-103144200D01*
X156101316Y-103144200D02*
X156134649Y-103106104D01*
X156134649Y-103106104D02*
X156134649Y-102839438D01*
X156134649Y-102839438D02*
X156001316Y-102839438D01*
X156434649Y-103182295D02*
X156434649Y-102382295D01*
X156434649Y-102382295D02*
X156701316Y-102382295D01*
X156701316Y-102382295D02*
X156767983Y-102420390D01*
X156767983Y-102420390D02*
X156801316Y-102458485D01*
X156801316Y-102458485D02*
X156834649Y-102534676D01*
X156834649Y-102534676D02*
X156834649Y-102648961D01*
X156834649Y-102648961D02*
X156801316Y-102725152D01*
X156801316Y-102725152D02*
X156767983Y-102763247D01*
X156767983Y-102763247D02*
X156701316Y-102801342D01*
X156701316Y-102801342D02*
X156434649Y-102801342D01*
X157134649Y-103182295D02*
X157134649Y-102382295D01*
X157601316Y-102382295D02*
X157734649Y-102382295D01*
X157734649Y-102382295D02*
X157801316Y-102420390D01*
X157801316Y-102420390D02*
X157867982Y-102496580D01*
X157867982Y-102496580D02*
X157901316Y-102648961D01*
X157901316Y-102648961D02*
X157901316Y-102915628D01*
X157901316Y-102915628D02*
X157867982Y-103068009D01*
X157867982Y-103068009D02*
X157801316Y-103144200D01*
X157801316Y-103144200D02*
X157734649Y-103182295D01*
X157734649Y-103182295D02*
X157601316Y-103182295D01*
X157601316Y-103182295D02*
X157534649Y-103144200D01*
X157534649Y-103144200D02*
X157467982Y-103068009D01*
X157467982Y-103068009D02*
X157434649Y-102915628D01*
X157434649Y-102915628D02*
X157434649Y-102648961D01*
X157434649Y-102648961D02*
X157467982Y-102496580D01*
X157467982Y-102496580D02*
X157534649Y-102420390D01*
X157534649Y-102420390D02*
X157601316Y-102382295D01*
X158501315Y-102648961D02*
X158501315Y-103182295D01*
X158334649Y-102344200D02*
X158167982Y-102915628D01*
X158167982Y-102915628D02*
X158601315Y-102915628D01*
X139702017Y-99880390D02*
X139635350Y-99842295D01*
X139635350Y-99842295D02*
X139535350Y-99842295D01*
X139535350Y-99842295D02*
X139435350Y-99880390D01*
X139435350Y-99880390D02*
X139368684Y-99956580D01*
X139368684Y-99956580D02*
X139335350Y-100032771D01*
X139335350Y-100032771D02*
X139302017Y-100185152D01*
X139302017Y-100185152D02*
X139302017Y-100299438D01*
X139302017Y-100299438D02*
X139335350Y-100451819D01*
X139335350Y-100451819D02*
X139368684Y-100528009D01*
X139368684Y-100528009D02*
X139435350Y-100604200D01*
X139435350Y-100604200D02*
X139535350Y-100642295D01*
X139535350Y-100642295D02*
X139602017Y-100642295D01*
X139602017Y-100642295D02*
X139702017Y-100604200D01*
X139702017Y-100604200D02*
X139735350Y-100566104D01*
X139735350Y-100566104D02*
X139735350Y-100299438D01*
X139735350Y-100299438D02*
X139602017Y-100299438D01*
X140035350Y-100642295D02*
X140035350Y-99842295D01*
X140035350Y-99842295D02*
X140302017Y-99842295D01*
X140302017Y-99842295D02*
X140368684Y-99880390D01*
X140368684Y-99880390D02*
X140402017Y-99918485D01*
X140402017Y-99918485D02*
X140435350Y-99994676D01*
X140435350Y-99994676D02*
X140435350Y-100108961D01*
X140435350Y-100108961D02*
X140402017Y-100185152D01*
X140402017Y-100185152D02*
X140368684Y-100223247D01*
X140368684Y-100223247D02*
X140302017Y-100261342D01*
X140302017Y-100261342D02*
X140035350Y-100261342D01*
X140735350Y-100642295D02*
X140735350Y-99842295D01*
X141202017Y-99842295D02*
X141335350Y-99842295D01*
X141335350Y-99842295D02*
X141402017Y-99880390D01*
X141402017Y-99880390D02*
X141468683Y-99956580D01*
X141468683Y-99956580D02*
X141502017Y-100108961D01*
X141502017Y-100108961D02*
X141502017Y-100375628D01*
X141502017Y-100375628D02*
X141468683Y-100528009D01*
X141468683Y-100528009D02*
X141402017Y-100604200D01*
X141402017Y-100604200D02*
X141335350Y-100642295D01*
X141335350Y-100642295D02*
X141202017Y-100642295D01*
X141202017Y-100642295D02*
X141135350Y-100604200D01*
X141135350Y-100604200D02*
X141068683Y-100528009D01*
X141068683Y-100528009D02*
X141035350Y-100375628D01*
X141035350Y-100375628D02*
X141035350Y-100108961D01*
X141035350Y-100108961D02*
X141068683Y-99956580D01*
X141068683Y-99956580D02*
X141135350Y-99880390D01*
X141135350Y-99880390D02*
X141202017Y-99842295D01*
X142168683Y-100642295D02*
X141768683Y-100642295D01*
X141968683Y-100642295D02*
X141968683Y-99842295D01*
X141968683Y-99842295D02*
X141902016Y-99956580D01*
X141902016Y-99956580D02*
X141835350Y-100032771D01*
X141835350Y-100032771D02*
X141768683Y-100070866D01*
X142768683Y-100108961D02*
X142768683Y-100642295D01*
X142602017Y-99804200D02*
X142435350Y-100375628D01*
X142435350Y-100375628D02*
X142868683Y-100375628D01*
X143635350Y-99804200D02*
X143035350Y-100832771D01*
X143868683Y-100642295D02*
X143868683Y-99842295D01*
X143868683Y-99842295D02*
X144102017Y-100413723D01*
X144102017Y-100413723D02*
X144335350Y-99842295D01*
X144335350Y-99842295D02*
X144335350Y-100642295D01*
X144568683Y-99842295D02*
X144968683Y-99842295D01*
X144768683Y-100642295D02*
X144768683Y-99842295D01*
X145202016Y-100642295D02*
X145202016Y-99842295D01*
X145202016Y-99842295D02*
X145435350Y-100413723D01*
X145435350Y-100413723D02*
X145668683Y-99842295D01*
X145668683Y-99842295D02*
X145668683Y-100642295D01*
X145968683Y-100604200D02*
X146068683Y-100642295D01*
X146068683Y-100642295D02*
X146235350Y-100642295D01*
X146235350Y-100642295D02*
X146302016Y-100604200D01*
X146302016Y-100604200D02*
X146335350Y-100566104D01*
X146335350Y-100566104D02*
X146368683Y-100489914D01*
X146368683Y-100489914D02*
X146368683Y-100413723D01*
X146368683Y-100413723D02*
X146335350Y-100337533D01*
X146335350Y-100337533D02*
X146302016Y-100299438D01*
X146302016Y-100299438D02*
X146235350Y-100261342D01*
X146235350Y-100261342D02*
X146102016Y-100223247D01*
X146102016Y-100223247D02*
X146035350Y-100185152D01*
X146035350Y-100185152D02*
X146002016Y-100147057D01*
X146002016Y-100147057D02*
X145968683Y-100070866D01*
X145968683Y-100070866D02*
X145968683Y-99994676D01*
X145968683Y-99994676D02*
X146002016Y-99918485D01*
X146002016Y-99918485D02*
X146035350Y-99880390D01*
X146035350Y-99880390D02*
X146102016Y-99842295D01*
X146102016Y-99842295D02*
X146268683Y-99842295D01*
X146268683Y-99842295D02*
X146368683Y-99880390D01*
X156415601Y-87082438D02*
X156320363Y-87034819D01*
X156320363Y-87034819D02*
X156177506Y-87034819D01*
X156177506Y-87034819D02*
X156034649Y-87082438D01*
X156034649Y-87082438D02*
X155939411Y-87177676D01*
X155939411Y-87177676D02*
X155891792Y-87272914D01*
X155891792Y-87272914D02*
X155844173Y-87463390D01*
X155844173Y-87463390D02*
X155844173Y-87606247D01*
X155844173Y-87606247D02*
X155891792Y-87796723D01*
X155891792Y-87796723D02*
X155939411Y-87891961D01*
X155939411Y-87891961D02*
X156034649Y-87987200D01*
X156034649Y-87987200D02*
X156177506Y-88034819D01*
X156177506Y-88034819D02*
X156272744Y-88034819D01*
X156272744Y-88034819D02*
X156415601Y-87987200D01*
X156415601Y-87987200D02*
X156463220Y-87939580D01*
X156463220Y-87939580D02*
X156463220Y-87606247D01*
X156463220Y-87606247D02*
X156272744Y-87606247D01*
X156891792Y-88034819D02*
X156891792Y-87034819D01*
X156891792Y-87034819D02*
X157463220Y-88034819D01*
X157463220Y-88034819D02*
X157463220Y-87034819D01*
X157939411Y-88034819D02*
X157939411Y-87034819D01*
X157939411Y-87034819D02*
X158177506Y-87034819D01*
X158177506Y-87034819D02*
X158320363Y-87082438D01*
X158320363Y-87082438D02*
X158415601Y-87177676D01*
X158415601Y-87177676D02*
X158463220Y-87272914D01*
X158463220Y-87272914D02*
X158510839Y-87463390D01*
X158510839Y-87463390D02*
X158510839Y-87606247D01*
X158510839Y-87606247D02*
X158463220Y-87796723D01*
X158463220Y-87796723D02*
X158415601Y-87891961D01*
X158415601Y-87891961D02*
X158320363Y-87987200D01*
X158320363Y-87987200D02*
X158177506Y-88034819D01*
X158177506Y-88034819D02*
X157939411Y-88034819D01*
X155434649Y-89720390D02*
X155367982Y-89682295D01*
X155367982Y-89682295D02*
X155267982Y-89682295D01*
X155267982Y-89682295D02*
X155167982Y-89720390D01*
X155167982Y-89720390D02*
X155101316Y-89796580D01*
X155101316Y-89796580D02*
X155067982Y-89872771D01*
X155067982Y-89872771D02*
X155034649Y-90025152D01*
X155034649Y-90025152D02*
X155034649Y-90139438D01*
X155034649Y-90139438D02*
X155067982Y-90291819D01*
X155067982Y-90291819D02*
X155101316Y-90368009D01*
X155101316Y-90368009D02*
X155167982Y-90444200D01*
X155167982Y-90444200D02*
X155267982Y-90482295D01*
X155267982Y-90482295D02*
X155334649Y-90482295D01*
X155334649Y-90482295D02*
X155434649Y-90444200D01*
X155434649Y-90444200D02*
X155467982Y-90406104D01*
X155467982Y-90406104D02*
X155467982Y-90139438D01*
X155467982Y-90139438D02*
X155334649Y-90139438D01*
X155767982Y-90482295D02*
X155767982Y-89682295D01*
X155767982Y-89682295D02*
X156034649Y-89682295D01*
X156034649Y-89682295D02*
X156101316Y-89720390D01*
X156101316Y-89720390D02*
X156134649Y-89758485D01*
X156134649Y-89758485D02*
X156167982Y-89834676D01*
X156167982Y-89834676D02*
X156167982Y-89948961D01*
X156167982Y-89948961D02*
X156134649Y-90025152D01*
X156134649Y-90025152D02*
X156101316Y-90063247D01*
X156101316Y-90063247D02*
X156034649Y-90101342D01*
X156034649Y-90101342D02*
X155767982Y-90101342D01*
X156467982Y-90482295D02*
X156467982Y-89682295D01*
X156934649Y-89682295D02*
X157067982Y-89682295D01*
X157067982Y-89682295D02*
X157134649Y-89720390D01*
X157134649Y-89720390D02*
X157201315Y-89796580D01*
X157201315Y-89796580D02*
X157234649Y-89948961D01*
X157234649Y-89948961D02*
X157234649Y-90215628D01*
X157234649Y-90215628D02*
X157201315Y-90368009D01*
X157201315Y-90368009D02*
X157134649Y-90444200D01*
X157134649Y-90444200D02*
X157067982Y-90482295D01*
X157067982Y-90482295D02*
X156934649Y-90482295D01*
X156934649Y-90482295D02*
X156867982Y-90444200D01*
X156867982Y-90444200D02*
X156801315Y-90368009D01*
X156801315Y-90368009D02*
X156767982Y-90215628D01*
X156767982Y-90215628D02*
X156767982Y-89948961D01*
X156767982Y-89948961D02*
X156801315Y-89796580D01*
X156801315Y-89796580D02*
X156867982Y-89720390D01*
X156867982Y-89720390D02*
X156934649Y-89682295D01*
X157901315Y-90482295D02*
X157501315Y-90482295D01*
X157701315Y-90482295D02*
X157701315Y-89682295D01*
X157701315Y-89682295D02*
X157634648Y-89796580D01*
X157634648Y-89796580D02*
X157567982Y-89872771D01*
X157567982Y-89872771D02*
X157501315Y-89910866D01*
X158234649Y-90482295D02*
X158367982Y-90482295D01*
X158367982Y-90482295D02*
X158434649Y-90444200D01*
X158434649Y-90444200D02*
X158467982Y-90406104D01*
X158467982Y-90406104D02*
X158534649Y-90291819D01*
X158534649Y-90291819D02*
X158567982Y-90139438D01*
X158567982Y-90139438D02*
X158567982Y-89834676D01*
X158567982Y-89834676D02*
X158534649Y-89758485D01*
X158534649Y-89758485D02*
X158501315Y-89720390D01*
X158501315Y-89720390D02*
X158434649Y-89682295D01*
X158434649Y-89682295D02*
X158301315Y-89682295D01*
X158301315Y-89682295D02*
X158234649Y-89720390D01*
X158234649Y-89720390D02*
X158201315Y-89758485D01*
X158201315Y-89758485D02*
X158167982Y-89834676D01*
X158167982Y-89834676D02*
X158167982Y-90025152D01*
X158167982Y-90025152D02*
X158201315Y-90101342D01*
X158201315Y-90101342D02*
X158234649Y-90139438D01*
X158234649Y-90139438D02*
X158301315Y-90177533D01*
X158301315Y-90177533D02*
X158434649Y-90177533D01*
X158434649Y-90177533D02*
X158501315Y-90139438D01*
X158501315Y-90139438D02*
X158534649Y-90101342D01*
X158534649Y-90101342D02*
X158567982Y-90025152D01*
X139879289Y-117766099D02*
X139403099Y-117766099D01*
X139403099Y-117766099D02*
X139355480Y-118242289D01*
X139355480Y-118242289D02*
X139403099Y-118194670D01*
X139403099Y-118194670D02*
X139498337Y-118147051D01*
X139498337Y-118147051D02*
X139736432Y-118147051D01*
X139736432Y-118147051D02*
X139831670Y-118194670D01*
X139831670Y-118194670D02*
X139879289Y-118242289D01*
X139879289Y-118242289D02*
X139926908Y-118337527D01*
X139926908Y-118337527D02*
X139926908Y-118575622D01*
X139926908Y-118575622D02*
X139879289Y-118670860D01*
X139879289Y-118670860D02*
X139831670Y-118718480D01*
X139831670Y-118718480D02*
X139736432Y-118766099D01*
X139736432Y-118766099D02*
X139498337Y-118766099D01*
X139498337Y-118766099D02*
X139403099Y-118718480D01*
X139403099Y-118718480D02*
X139355480Y-118670860D01*
X140212623Y-117766099D02*
X140545956Y-118766099D01*
X140545956Y-118766099D02*
X140879289Y-117766099D01*
X155434649Y-77020390D02*
X155367982Y-76982295D01*
X155367982Y-76982295D02*
X155267982Y-76982295D01*
X155267982Y-76982295D02*
X155167982Y-77020390D01*
X155167982Y-77020390D02*
X155101316Y-77096580D01*
X155101316Y-77096580D02*
X155067982Y-77172771D01*
X155067982Y-77172771D02*
X155034649Y-77325152D01*
X155034649Y-77325152D02*
X155034649Y-77439438D01*
X155034649Y-77439438D02*
X155067982Y-77591819D01*
X155067982Y-77591819D02*
X155101316Y-77668009D01*
X155101316Y-77668009D02*
X155167982Y-77744200D01*
X155167982Y-77744200D02*
X155267982Y-77782295D01*
X155267982Y-77782295D02*
X155334649Y-77782295D01*
X155334649Y-77782295D02*
X155434649Y-77744200D01*
X155434649Y-77744200D02*
X155467982Y-77706104D01*
X155467982Y-77706104D02*
X155467982Y-77439438D01*
X155467982Y-77439438D02*
X155334649Y-77439438D01*
X155767982Y-77782295D02*
X155767982Y-76982295D01*
X155767982Y-76982295D02*
X156034649Y-76982295D01*
X156034649Y-76982295D02*
X156101316Y-77020390D01*
X156101316Y-77020390D02*
X156134649Y-77058485D01*
X156134649Y-77058485D02*
X156167982Y-77134676D01*
X156167982Y-77134676D02*
X156167982Y-77248961D01*
X156167982Y-77248961D02*
X156134649Y-77325152D01*
X156134649Y-77325152D02*
X156101316Y-77363247D01*
X156101316Y-77363247D02*
X156034649Y-77401342D01*
X156034649Y-77401342D02*
X155767982Y-77401342D01*
X156467982Y-77782295D02*
X156467982Y-76982295D01*
X156934649Y-76982295D02*
X157067982Y-76982295D01*
X157067982Y-76982295D02*
X157134649Y-77020390D01*
X157134649Y-77020390D02*
X157201315Y-77096580D01*
X157201315Y-77096580D02*
X157234649Y-77248961D01*
X157234649Y-77248961D02*
X157234649Y-77515628D01*
X157234649Y-77515628D02*
X157201315Y-77668009D01*
X157201315Y-77668009D02*
X157134649Y-77744200D01*
X157134649Y-77744200D02*
X157067982Y-77782295D01*
X157067982Y-77782295D02*
X156934649Y-77782295D01*
X156934649Y-77782295D02*
X156867982Y-77744200D01*
X156867982Y-77744200D02*
X156801315Y-77668009D01*
X156801315Y-77668009D02*
X156767982Y-77515628D01*
X156767982Y-77515628D02*
X156767982Y-77248961D01*
X156767982Y-77248961D02*
X156801315Y-77096580D01*
X156801315Y-77096580D02*
X156867982Y-77020390D01*
X156867982Y-77020390D02*
X156934649Y-76982295D01*
X157501315Y-77058485D02*
X157534648Y-77020390D01*
X157534648Y-77020390D02*
X157601315Y-76982295D01*
X157601315Y-76982295D02*
X157767982Y-76982295D01*
X157767982Y-76982295D02*
X157834648Y-77020390D01*
X157834648Y-77020390D02*
X157867982Y-77058485D01*
X157867982Y-77058485D02*
X157901315Y-77134676D01*
X157901315Y-77134676D02*
X157901315Y-77210866D01*
X157901315Y-77210866D02*
X157867982Y-77325152D01*
X157867982Y-77325152D02*
X157467982Y-77782295D01*
X157467982Y-77782295D02*
X157901315Y-77782295D01*
X158167982Y-77058485D02*
X158201315Y-77020390D01*
X158201315Y-77020390D02*
X158267982Y-76982295D01*
X158267982Y-76982295D02*
X158434649Y-76982295D01*
X158434649Y-76982295D02*
X158501315Y-77020390D01*
X158501315Y-77020390D02*
X158534649Y-77058485D01*
X158534649Y-77058485D02*
X158567982Y-77134676D01*
X158567982Y-77134676D02*
X158567982Y-77210866D01*
X158567982Y-77210866D02*
X158534649Y-77325152D01*
X158534649Y-77325152D02*
X158134649Y-77782295D01*
X158134649Y-77782295D02*
X158567982Y-77782295D01*
X139702017Y-102420390D02*
X139635350Y-102382295D01*
X139635350Y-102382295D02*
X139535350Y-102382295D01*
X139535350Y-102382295D02*
X139435350Y-102420390D01*
X139435350Y-102420390D02*
X139368684Y-102496580D01*
X139368684Y-102496580D02*
X139335350Y-102572771D01*
X139335350Y-102572771D02*
X139302017Y-102725152D01*
X139302017Y-102725152D02*
X139302017Y-102839438D01*
X139302017Y-102839438D02*
X139335350Y-102991819D01*
X139335350Y-102991819D02*
X139368684Y-103068009D01*
X139368684Y-103068009D02*
X139435350Y-103144200D01*
X139435350Y-103144200D02*
X139535350Y-103182295D01*
X139535350Y-103182295D02*
X139602017Y-103182295D01*
X139602017Y-103182295D02*
X139702017Y-103144200D01*
X139702017Y-103144200D02*
X139735350Y-103106104D01*
X139735350Y-103106104D02*
X139735350Y-102839438D01*
X139735350Y-102839438D02*
X139602017Y-102839438D01*
X140035350Y-103182295D02*
X140035350Y-102382295D01*
X140035350Y-102382295D02*
X140302017Y-102382295D01*
X140302017Y-102382295D02*
X140368684Y-102420390D01*
X140368684Y-102420390D02*
X140402017Y-102458485D01*
X140402017Y-102458485D02*
X140435350Y-102534676D01*
X140435350Y-102534676D02*
X140435350Y-102648961D01*
X140435350Y-102648961D02*
X140402017Y-102725152D01*
X140402017Y-102725152D02*
X140368684Y-102763247D01*
X140368684Y-102763247D02*
X140302017Y-102801342D01*
X140302017Y-102801342D02*
X140035350Y-102801342D01*
X140735350Y-103182295D02*
X140735350Y-102382295D01*
X141202017Y-102382295D02*
X141335350Y-102382295D01*
X141335350Y-102382295D02*
X141402017Y-102420390D01*
X141402017Y-102420390D02*
X141468683Y-102496580D01*
X141468683Y-102496580D02*
X141502017Y-102648961D01*
X141502017Y-102648961D02*
X141502017Y-102915628D01*
X141502017Y-102915628D02*
X141468683Y-103068009D01*
X141468683Y-103068009D02*
X141402017Y-103144200D01*
X141402017Y-103144200D02*
X141335350Y-103182295D01*
X141335350Y-103182295D02*
X141202017Y-103182295D01*
X141202017Y-103182295D02*
X141135350Y-103144200D01*
X141135350Y-103144200D02*
X141068683Y-103068009D01*
X141068683Y-103068009D02*
X141035350Y-102915628D01*
X141035350Y-102915628D02*
X141035350Y-102648961D01*
X141035350Y-102648961D02*
X141068683Y-102496580D01*
X141068683Y-102496580D02*
X141135350Y-102420390D01*
X141135350Y-102420390D02*
X141202017Y-102382295D01*
X142168683Y-103182295D02*
X141768683Y-103182295D01*
X141968683Y-103182295D02*
X141968683Y-102382295D01*
X141968683Y-102382295D02*
X141902016Y-102496580D01*
X141902016Y-102496580D02*
X141835350Y-102572771D01*
X141835350Y-102572771D02*
X141768683Y-102610866D01*
X142435350Y-102458485D02*
X142468683Y-102420390D01*
X142468683Y-102420390D02*
X142535350Y-102382295D01*
X142535350Y-102382295D02*
X142702017Y-102382295D01*
X142702017Y-102382295D02*
X142768683Y-102420390D01*
X142768683Y-102420390D02*
X142802017Y-102458485D01*
X142802017Y-102458485D02*
X142835350Y-102534676D01*
X142835350Y-102534676D02*
X142835350Y-102610866D01*
X142835350Y-102610866D02*
X142802017Y-102725152D01*
X142802017Y-102725152D02*
X142402017Y-103182295D01*
X142402017Y-103182295D02*
X142835350Y-103182295D01*
X143635350Y-102344200D02*
X143035350Y-103372771D01*
X143868683Y-103182295D02*
X143868683Y-102382295D01*
X143868683Y-102382295D02*
X144102017Y-102953723D01*
X144102017Y-102953723D02*
X144335350Y-102382295D01*
X144335350Y-102382295D02*
X144335350Y-103182295D01*
X144568683Y-102382295D02*
X144968683Y-102382295D01*
X144768683Y-103182295D02*
X144768683Y-102382295D01*
X145202016Y-103182295D02*
X145202016Y-102382295D01*
X145202016Y-102382295D02*
X145368683Y-102382295D01*
X145368683Y-102382295D02*
X145468683Y-102420390D01*
X145468683Y-102420390D02*
X145535350Y-102496580D01*
X145535350Y-102496580D02*
X145568683Y-102572771D01*
X145568683Y-102572771D02*
X145602016Y-102725152D01*
X145602016Y-102725152D02*
X145602016Y-102839438D01*
X145602016Y-102839438D02*
X145568683Y-102991819D01*
X145568683Y-102991819D02*
X145535350Y-103068009D01*
X145535350Y-103068009D02*
X145468683Y-103144200D01*
X145468683Y-103144200D02*
X145368683Y-103182295D01*
X145368683Y-103182295D02*
X145202016Y-103182295D01*
X145902016Y-103182295D02*
X145902016Y-102382295D01*
X139702017Y-84640390D02*
X139635350Y-84602295D01*
X139635350Y-84602295D02*
X139535350Y-84602295D01*
X139535350Y-84602295D02*
X139435350Y-84640390D01*
X139435350Y-84640390D02*
X139368684Y-84716580D01*
X139368684Y-84716580D02*
X139335350Y-84792771D01*
X139335350Y-84792771D02*
X139302017Y-84945152D01*
X139302017Y-84945152D02*
X139302017Y-85059438D01*
X139302017Y-85059438D02*
X139335350Y-85211819D01*
X139335350Y-85211819D02*
X139368684Y-85288009D01*
X139368684Y-85288009D02*
X139435350Y-85364200D01*
X139435350Y-85364200D02*
X139535350Y-85402295D01*
X139535350Y-85402295D02*
X139602017Y-85402295D01*
X139602017Y-85402295D02*
X139702017Y-85364200D01*
X139702017Y-85364200D02*
X139735350Y-85326104D01*
X139735350Y-85326104D02*
X139735350Y-85059438D01*
X139735350Y-85059438D02*
X139602017Y-85059438D01*
X140035350Y-85402295D02*
X140035350Y-84602295D01*
X140035350Y-84602295D02*
X140302017Y-84602295D01*
X140302017Y-84602295D02*
X140368684Y-84640390D01*
X140368684Y-84640390D02*
X140402017Y-84678485D01*
X140402017Y-84678485D02*
X140435350Y-84754676D01*
X140435350Y-84754676D02*
X140435350Y-84868961D01*
X140435350Y-84868961D02*
X140402017Y-84945152D01*
X140402017Y-84945152D02*
X140368684Y-84983247D01*
X140368684Y-84983247D02*
X140302017Y-85021342D01*
X140302017Y-85021342D02*
X140035350Y-85021342D01*
X140735350Y-85402295D02*
X140735350Y-84602295D01*
X141202017Y-84602295D02*
X141335350Y-84602295D01*
X141335350Y-84602295D02*
X141402017Y-84640390D01*
X141402017Y-84640390D02*
X141468683Y-84716580D01*
X141468683Y-84716580D02*
X141502017Y-84868961D01*
X141502017Y-84868961D02*
X141502017Y-85135628D01*
X141502017Y-85135628D02*
X141468683Y-85288009D01*
X141468683Y-85288009D02*
X141402017Y-85364200D01*
X141402017Y-85364200D02*
X141335350Y-85402295D01*
X141335350Y-85402295D02*
X141202017Y-85402295D01*
X141202017Y-85402295D02*
X141135350Y-85364200D01*
X141135350Y-85364200D02*
X141068683Y-85288009D01*
X141068683Y-85288009D02*
X141035350Y-85135628D01*
X141035350Y-85135628D02*
X141035350Y-84868961D01*
X141035350Y-84868961D02*
X141068683Y-84716580D01*
X141068683Y-84716580D02*
X141135350Y-84640390D01*
X141135350Y-84640390D02*
X141202017Y-84602295D01*
X141735350Y-84602295D02*
X142168683Y-84602295D01*
X142168683Y-84602295D02*
X141935350Y-84907057D01*
X141935350Y-84907057D02*
X142035350Y-84907057D01*
X142035350Y-84907057D02*
X142102016Y-84945152D01*
X142102016Y-84945152D02*
X142135350Y-84983247D01*
X142135350Y-84983247D02*
X142168683Y-85059438D01*
X142168683Y-85059438D02*
X142168683Y-85249914D01*
X142168683Y-85249914D02*
X142135350Y-85326104D01*
X142135350Y-85326104D02*
X142102016Y-85364200D01*
X142102016Y-85364200D02*
X142035350Y-85402295D01*
X142035350Y-85402295D02*
X141835350Y-85402295D01*
X141835350Y-85402295D02*
X141768683Y-85364200D01*
X141768683Y-85364200D02*
X141735350Y-85326104D01*
X142802017Y-84602295D02*
X142468683Y-84602295D01*
X142468683Y-84602295D02*
X142435350Y-84983247D01*
X142435350Y-84983247D02*
X142468683Y-84945152D01*
X142468683Y-84945152D02*
X142535350Y-84907057D01*
X142535350Y-84907057D02*
X142702017Y-84907057D01*
X142702017Y-84907057D02*
X142768683Y-84945152D01*
X142768683Y-84945152D02*
X142802017Y-84983247D01*
X142802017Y-84983247D02*
X142835350Y-85059438D01*
X142835350Y-85059438D02*
X142835350Y-85249914D01*
X142835350Y-85249914D02*
X142802017Y-85326104D01*
X142802017Y-85326104D02*
X142768683Y-85364200D01*
X142768683Y-85364200D02*
X142702017Y-85402295D01*
X142702017Y-85402295D02*
X142535350Y-85402295D01*
X142535350Y-85402295D02*
X142468683Y-85364200D01*
X142468683Y-85364200D02*
X142435350Y-85326104D01*
X157501315Y-113342295D02*
X157501315Y-112542295D01*
X157501315Y-112542295D02*
X157667982Y-112542295D01*
X157667982Y-112542295D02*
X157767982Y-112580390D01*
X157767982Y-112580390D02*
X157834649Y-112656580D01*
X157834649Y-112656580D02*
X157867982Y-112732771D01*
X157867982Y-112732771D02*
X157901315Y-112885152D01*
X157901315Y-112885152D02*
X157901315Y-112999438D01*
X157901315Y-112999438D02*
X157867982Y-113151819D01*
X157867982Y-113151819D02*
X157834649Y-113228009D01*
X157834649Y-113228009D02*
X157767982Y-113304200D01*
X157767982Y-113304200D02*
X157667982Y-113342295D01*
X157667982Y-113342295D02*
X157501315Y-113342295D01*
X158567982Y-113342295D02*
X158167982Y-113342295D01*
X158367982Y-113342295D02*
X158367982Y-112542295D01*
X158367982Y-112542295D02*
X158301315Y-112656580D01*
X158301315Y-112656580D02*
X158234649Y-112732771D01*
X158234649Y-112732771D02*
X158167982Y-112770866D01*
X155434649Y-84640390D02*
X155367982Y-84602295D01*
X155367982Y-84602295D02*
X155267982Y-84602295D01*
X155267982Y-84602295D02*
X155167982Y-84640390D01*
X155167982Y-84640390D02*
X155101316Y-84716580D01*
X155101316Y-84716580D02*
X155067982Y-84792771D01*
X155067982Y-84792771D02*
X155034649Y-84945152D01*
X155034649Y-84945152D02*
X155034649Y-85059438D01*
X155034649Y-85059438D02*
X155067982Y-85211819D01*
X155067982Y-85211819D02*
X155101316Y-85288009D01*
X155101316Y-85288009D02*
X155167982Y-85364200D01*
X155167982Y-85364200D02*
X155267982Y-85402295D01*
X155267982Y-85402295D02*
X155334649Y-85402295D01*
X155334649Y-85402295D02*
X155434649Y-85364200D01*
X155434649Y-85364200D02*
X155467982Y-85326104D01*
X155467982Y-85326104D02*
X155467982Y-85059438D01*
X155467982Y-85059438D02*
X155334649Y-85059438D01*
X155767982Y-85402295D02*
X155767982Y-84602295D01*
X155767982Y-84602295D02*
X156034649Y-84602295D01*
X156034649Y-84602295D02*
X156101316Y-84640390D01*
X156101316Y-84640390D02*
X156134649Y-84678485D01*
X156134649Y-84678485D02*
X156167982Y-84754676D01*
X156167982Y-84754676D02*
X156167982Y-84868961D01*
X156167982Y-84868961D02*
X156134649Y-84945152D01*
X156134649Y-84945152D02*
X156101316Y-84983247D01*
X156101316Y-84983247D02*
X156034649Y-85021342D01*
X156034649Y-85021342D02*
X155767982Y-85021342D01*
X156467982Y-85402295D02*
X156467982Y-84602295D01*
X156934649Y-84602295D02*
X157067982Y-84602295D01*
X157067982Y-84602295D02*
X157134649Y-84640390D01*
X157134649Y-84640390D02*
X157201315Y-84716580D01*
X157201315Y-84716580D02*
X157234649Y-84868961D01*
X157234649Y-84868961D02*
X157234649Y-85135628D01*
X157234649Y-85135628D02*
X157201315Y-85288009D01*
X157201315Y-85288009D02*
X157134649Y-85364200D01*
X157134649Y-85364200D02*
X157067982Y-85402295D01*
X157067982Y-85402295D02*
X156934649Y-85402295D01*
X156934649Y-85402295D02*
X156867982Y-85364200D01*
X156867982Y-85364200D02*
X156801315Y-85288009D01*
X156801315Y-85288009D02*
X156767982Y-85135628D01*
X156767982Y-85135628D02*
X156767982Y-84868961D01*
X156767982Y-84868961D02*
X156801315Y-84716580D01*
X156801315Y-84716580D02*
X156867982Y-84640390D01*
X156867982Y-84640390D02*
X156934649Y-84602295D01*
X157501315Y-84678485D02*
X157534648Y-84640390D01*
X157534648Y-84640390D02*
X157601315Y-84602295D01*
X157601315Y-84602295D02*
X157767982Y-84602295D01*
X157767982Y-84602295D02*
X157834648Y-84640390D01*
X157834648Y-84640390D02*
X157867982Y-84678485D01*
X157867982Y-84678485D02*
X157901315Y-84754676D01*
X157901315Y-84754676D02*
X157901315Y-84830866D01*
X157901315Y-84830866D02*
X157867982Y-84945152D01*
X157867982Y-84945152D02*
X157467982Y-85402295D01*
X157467982Y-85402295D02*
X157901315Y-85402295D01*
X158567982Y-85402295D02*
X158167982Y-85402295D01*
X158367982Y-85402295D02*
X158367982Y-84602295D01*
X158367982Y-84602295D02*
X158301315Y-84716580D01*
X158301315Y-84716580D02*
X158234649Y-84792771D01*
X158234649Y-84792771D02*
X158167982Y-84830866D01*
X155434649Y-97340390D02*
X155367982Y-97302295D01*
X155367982Y-97302295D02*
X155267982Y-97302295D01*
X155267982Y-97302295D02*
X155167982Y-97340390D01*
X155167982Y-97340390D02*
X155101316Y-97416580D01*
X155101316Y-97416580D02*
X155067982Y-97492771D01*
X155067982Y-97492771D02*
X155034649Y-97645152D01*
X155034649Y-97645152D02*
X155034649Y-97759438D01*
X155034649Y-97759438D02*
X155067982Y-97911819D01*
X155067982Y-97911819D02*
X155101316Y-97988009D01*
X155101316Y-97988009D02*
X155167982Y-98064200D01*
X155167982Y-98064200D02*
X155267982Y-98102295D01*
X155267982Y-98102295D02*
X155334649Y-98102295D01*
X155334649Y-98102295D02*
X155434649Y-98064200D01*
X155434649Y-98064200D02*
X155467982Y-98026104D01*
X155467982Y-98026104D02*
X155467982Y-97759438D01*
X155467982Y-97759438D02*
X155334649Y-97759438D01*
X155767982Y-98102295D02*
X155767982Y-97302295D01*
X155767982Y-97302295D02*
X156034649Y-97302295D01*
X156034649Y-97302295D02*
X156101316Y-97340390D01*
X156101316Y-97340390D02*
X156134649Y-97378485D01*
X156134649Y-97378485D02*
X156167982Y-97454676D01*
X156167982Y-97454676D02*
X156167982Y-97568961D01*
X156167982Y-97568961D02*
X156134649Y-97645152D01*
X156134649Y-97645152D02*
X156101316Y-97683247D01*
X156101316Y-97683247D02*
X156034649Y-97721342D01*
X156034649Y-97721342D02*
X155767982Y-97721342D01*
X156467982Y-98102295D02*
X156467982Y-97302295D01*
X156934649Y-97302295D02*
X157067982Y-97302295D01*
X157067982Y-97302295D02*
X157134649Y-97340390D01*
X157134649Y-97340390D02*
X157201315Y-97416580D01*
X157201315Y-97416580D02*
X157234649Y-97568961D01*
X157234649Y-97568961D02*
X157234649Y-97835628D01*
X157234649Y-97835628D02*
X157201315Y-97988009D01*
X157201315Y-97988009D02*
X157134649Y-98064200D01*
X157134649Y-98064200D02*
X157067982Y-98102295D01*
X157067982Y-98102295D02*
X156934649Y-98102295D01*
X156934649Y-98102295D02*
X156867982Y-98064200D01*
X156867982Y-98064200D02*
X156801315Y-97988009D01*
X156801315Y-97988009D02*
X156767982Y-97835628D01*
X156767982Y-97835628D02*
X156767982Y-97568961D01*
X156767982Y-97568961D02*
X156801315Y-97416580D01*
X156801315Y-97416580D02*
X156867982Y-97340390D01*
X156867982Y-97340390D02*
X156934649Y-97302295D01*
X157901315Y-98102295D02*
X157501315Y-98102295D01*
X157701315Y-98102295D02*
X157701315Y-97302295D01*
X157701315Y-97302295D02*
X157634648Y-97416580D01*
X157634648Y-97416580D02*
X157567982Y-97492771D01*
X157567982Y-97492771D02*
X157501315Y-97530866D01*
X158134649Y-97302295D02*
X158601315Y-97302295D01*
X158601315Y-97302295D02*
X158301315Y-98102295D01*
X152067983Y-79560390D02*
X152001316Y-79522295D01*
X152001316Y-79522295D02*
X151901316Y-79522295D01*
X151901316Y-79522295D02*
X151801316Y-79560390D01*
X151801316Y-79560390D02*
X151734650Y-79636580D01*
X151734650Y-79636580D02*
X151701316Y-79712771D01*
X151701316Y-79712771D02*
X151667983Y-79865152D01*
X151667983Y-79865152D02*
X151667983Y-79979438D01*
X151667983Y-79979438D02*
X151701316Y-80131819D01*
X151701316Y-80131819D02*
X151734650Y-80208009D01*
X151734650Y-80208009D02*
X151801316Y-80284200D01*
X151801316Y-80284200D02*
X151901316Y-80322295D01*
X151901316Y-80322295D02*
X151967983Y-80322295D01*
X151967983Y-80322295D02*
X152067983Y-80284200D01*
X152067983Y-80284200D02*
X152101316Y-80246104D01*
X152101316Y-80246104D02*
X152101316Y-79979438D01*
X152101316Y-79979438D02*
X151967983Y-79979438D01*
X152401316Y-80322295D02*
X152401316Y-79522295D01*
X152401316Y-79522295D02*
X152667983Y-79522295D01*
X152667983Y-79522295D02*
X152734650Y-79560390D01*
X152734650Y-79560390D02*
X152767983Y-79598485D01*
X152767983Y-79598485D02*
X152801316Y-79674676D01*
X152801316Y-79674676D02*
X152801316Y-79788961D01*
X152801316Y-79788961D02*
X152767983Y-79865152D01*
X152767983Y-79865152D02*
X152734650Y-79903247D01*
X152734650Y-79903247D02*
X152667983Y-79941342D01*
X152667983Y-79941342D02*
X152401316Y-79941342D01*
X153101316Y-80322295D02*
X153101316Y-79522295D01*
X153567983Y-79522295D02*
X153701316Y-79522295D01*
X153701316Y-79522295D02*
X153767983Y-79560390D01*
X153767983Y-79560390D02*
X153834649Y-79636580D01*
X153834649Y-79636580D02*
X153867983Y-79788961D01*
X153867983Y-79788961D02*
X153867983Y-80055628D01*
X153867983Y-80055628D02*
X153834649Y-80208009D01*
X153834649Y-80208009D02*
X153767983Y-80284200D01*
X153767983Y-80284200D02*
X153701316Y-80322295D01*
X153701316Y-80322295D02*
X153567983Y-80322295D01*
X153567983Y-80322295D02*
X153501316Y-80284200D01*
X153501316Y-80284200D02*
X153434649Y-80208009D01*
X153434649Y-80208009D02*
X153401316Y-80055628D01*
X153401316Y-80055628D02*
X153401316Y-79788961D01*
X153401316Y-79788961D02*
X153434649Y-79636580D01*
X153434649Y-79636580D02*
X153501316Y-79560390D01*
X153501316Y-79560390D02*
X153567983Y-79522295D01*
X154534649Y-80322295D02*
X154134649Y-80322295D01*
X154334649Y-80322295D02*
X154334649Y-79522295D01*
X154334649Y-79522295D02*
X154267982Y-79636580D01*
X154267982Y-79636580D02*
X154201316Y-79712771D01*
X154201316Y-79712771D02*
X154134649Y-79750866D01*
X155334649Y-79484200D02*
X154734649Y-80512771D01*
X155567982Y-79522295D02*
X155567982Y-80169914D01*
X155567982Y-80169914D02*
X155601316Y-80246104D01*
X155601316Y-80246104D02*
X155634649Y-80284200D01*
X155634649Y-80284200D02*
X155701316Y-80322295D01*
X155701316Y-80322295D02*
X155834649Y-80322295D01*
X155834649Y-80322295D02*
X155901316Y-80284200D01*
X155901316Y-80284200D02*
X155934649Y-80246104D01*
X155934649Y-80246104D02*
X155967982Y-80169914D01*
X155967982Y-80169914D02*
X155967982Y-79522295D01*
X156434649Y-79522295D02*
X156501315Y-79522295D01*
X156501315Y-79522295D02*
X156567982Y-79560390D01*
X156567982Y-79560390D02*
X156601315Y-79598485D01*
X156601315Y-79598485D02*
X156634649Y-79674676D01*
X156634649Y-79674676D02*
X156667982Y-79827057D01*
X156667982Y-79827057D02*
X156667982Y-80017533D01*
X156667982Y-80017533D02*
X156634649Y-80169914D01*
X156634649Y-80169914D02*
X156601315Y-80246104D01*
X156601315Y-80246104D02*
X156567982Y-80284200D01*
X156567982Y-80284200D02*
X156501315Y-80322295D01*
X156501315Y-80322295D02*
X156434649Y-80322295D01*
X156434649Y-80322295D02*
X156367982Y-80284200D01*
X156367982Y-80284200D02*
X156334649Y-80246104D01*
X156334649Y-80246104D02*
X156301315Y-80169914D01*
X156301315Y-80169914D02*
X156267982Y-80017533D01*
X156267982Y-80017533D02*
X156267982Y-79827057D01*
X156267982Y-79827057D02*
X156301315Y-79674676D01*
X156301315Y-79674676D02*
X156334649Y-79598485D01*
X156334649Y-79598485D02*
X156367982Y-79560390D01*
X156367982Y-79560390D02*
X156434649Y-79522295D01*
X156867982Y-79522295D02*
X157267982Y-79522295D01*
X157067982Y-80322295D02*
X157067982Y-79522295D01*
X157434649Y-79522295D02*
X157901315Y-80322295D01*
X157901315Y-79522295D02*
X157434649Y-80322295D01*
X158167982Y-80322295D02*
X158167982Y-79522295D01*
X158167982Y-79522295D02*
X158334649Y-79522295D01*
X158334649Y-79522295D02*
X158434649Y-79560390D01*
X158434649Y-79560390D02*
X158501316Y-79636580D01*
X158501316Y-79636580D02*
X158534649Y-79712771D01*
X158534649Y-79712771D02*
X158567982Y-79865152D01*
X158567982Y-79865152D02*
X158567982Y-79979438D01*
X158567982Y-79979438D02*
X158534649Y-80131819D01*
X158534649Y-80131819D02*
X158501316Y-80208009D01*
X158501316Y-80208009D02*
X158434649Y-80284200D01*
X158434649Y-80284200D02*
X158334649Y-80322295D01*
X158334649Y-80322295D02*
X158167982Y-80322295D01*
X139301921Y-74808289D02*
X139635254Y-74808289D01*
X139778111Y-75332099D02*
X139301921Y-75332099D01*
X139301921Y-75332099D02*
X139301921Y-74332099D01*
X139301921Y-74332099D02*
X139778111Y-74332099D01*
X140206683Y-75332099D02*
X140206683Y-74332099D01*
X140206683Y-74332099D02*
X140778111Y-75332099D01*
X140778111Y-75332099D02*
X140778111Y-74332099D01*
X141968587Y-74284480D02*
X141111445Y-75570194D01*
X142873349Y-75332099D02*
X142540016Y-74855908D01*
X142301921Y-75332099D02*
X142301921Y-74332099D01*
X142301921Y-74332099D02*
X142682873Y-74332099D01*
X142682873Y-74332099D02*
X142778111Y-74379718D01*
X142778111Y-74379718D02*
X142825730Y-74427337D01*
X142825730Y-74427337D02*
X142873349Y-74522575D01*
X142873349Y-74522575D02*
X142873349Y-74665432D01*
X142873349Y-74665432D02*
X142825730Y-74760670D01*
X142825730Y-74760670D02*
X142778111Y-74808289D01*
X142778111Y-74808289D02*
X142682873Y-74855908D01*
X142682873Y-74855908D02*
X142301921Y-74855908D01*
X143301921Y-74808289D02*
X143635254Y-74808289D01*
X143778111Y-75332099D02*
X143301921Y-75332099D01*
X143301921Y-75332099D02*
X143301921Y-74332099D01*
X143301921Y-74332099D02*
X143778111Y-74332099D01*
X144159064Y-75284480D02*
X144301921Y-75332099D01*
X144301921Y-75332099D02*
X144540016Y-75332099D01*
X144540016Y-75332099D02*
X144635254Y-75284480D01*
X144635254Y-75284480D02*
X144682873Y-75236860D01*
X144682873Y-75236860D02*
X144730492Y-75141622D01*
X144730492Y-75141622D02*
X144730492Y-75046384D01*
X144730492Y-75046384D02*
X144682873Y-74951146D01*
X144682873Y-74951146D02*
X144635254Y-74903527D01*
X144635254Y-74903527D02*
X144540016Y-74855908D01*
X144540016Y-74855908D02*
X144349540Y-74808289D01*
X144349540Y-74808289D02*
X144254302Y-74760670D01*
X144254302Y-74760670D02*
X144206683Y-74713051D01*
X144206683Y-74713051D02*
X144159064Y-74617813D01*
X144159064Y-74617813D02*
X144159064Y-74522575D01*
X144159064Y-74522575D02*
X144206683Y-74427337D01*
X144206683Y-74427337D02*
X144254302Y-74379718D01*
X144254302Y-74379718D02*
X144349540Y-74332099D01*
X144349540Y-74332099D02*
X144587635Y-74332099D01*
X144587635Y-74332099D02*
X144730492Y-74379718D01*
X145159064Y-74808289D02*
X145492397Y-74808289D01*
X145635254Y-75332099D02*
X145159064Y-75332099D01*
X145159064Y-75332099D02*
X145159064Y-74332099D01*
X145159064Y-74332099D02*
X145635254Y-74332099D01*
X145920969Y-74332099D02*
X146492397Y-74332099D01*
X146206683Y-75332099D02*
X146206683Y-74332099D01*
X126513095Y-87459819D02*
X126513095Y-88269342D01*
X126513095Y-88269342D02*
X126560714Y-88364580D01*
X126560714Y-88364580D02*
X126608333Y-88412200D01*
X126608333Y-88412200D02*
X126703571Y-88459819D01*
X126703571Y-88459819D02*
X126894047Y-88459819D01*
X126894047Y-88459819D02*
X126989285Y-88412200D01*
X126989285Y-88412200D02*
X127036904Y-88364580D01*
X127036904Y-88364580D02*
X127084523Y-88269342D01*
X127084523Y-88269342D02*
X127084523Y-87459819D01*
X128084523Y-88459819D02*
X127513095Y-88459819D01*
X127798809Y-88459819D02*
X127798809Y-87459819D01*
X127798809Y-87459819D02*
X127703571Y-87602676D01*
X127703571Y-87602676D02*
X127608333Y-87697914D01*
X127608333Y-87697914D02*
X127513095Y-87745533D01*
X118558333Y-118409580D02*
X118510714Y-118457200D01*
X118510714Y-118457200D02*
X118367857Y-118504819D01*
X118367857Y-118504819D02*
X118272619Y-118504819D01*
X118272619Y-118504819D02*
X118129762Y-118457200D01*
X118129762Y-118457200D02*
X118034524Y-118361961D01*
X118034524Y-118361961D02*
X117986905Y-118266723D01*
X117986905Y-118266723D02*
X117939286Y-118076247D01*
X117939286Y-118076247D02*
X117939286Y-117933390D01*
X117939286Y-117933390D02*
X117986905Y-117742914D01*
X117986905Y-117742914D02*
X118034524Y-117647676D01*
X118034524Y-117647676D02*
X118129762Y-117552438D01*
X118129762Y-117552438D02*
X118272619Y-117504819D01*
X118272619Y-117504819D02*
X118367857Y-117504819D01*
X118367857Y-117504819D02*
X118510714Y-117552438D01*
X118510714Y-117552438D02*
X118558333Y-117600057D01*
X119415476Y-117504819D02*
X119225000Y-117504819D01*
X119225000Y-117504819D02*
X119129762Y-117552438D01*
X119129762Y-117552438D02*
X119082143Y-117600057D01*
X119082143Y-117600057D02*
X118986905Y-117742914D01*
X118986905Y-117742914D02*
X118939286Y-117933390D01*
X118939286Y-117933390D02*
X118939286Y-118314342D01*
X118939286Y-118314342D02*
X118986905Y-118409580D01*
X118986905Y-118409580D02*
X119034524Y-118457200D01*
X119034524Y-118457200D02*
X119129762Y-118504819D01*
X119129762Y-118504819D02*
X119320238Y-118504819D01*
X119320238Y-118504819D02*
X119415476Y-118457200D01*
X119415476Y-118457200D02*
X119463095Y-118409580D01*
X119463095Y-118409580D02*
X119510714Y-118314342D01*
X119510714Y-118314342D02*
X119510714Y-118076247D01*
X119510714Y-118076247D02*
X119463095Y-117981009D01*
X119463095Y-117981009D02*
X119415476Y-117933390D01*
X119415476Y-117933390D02*
X119320238Y-117885771D01*
X119320238Y-117885771D02*
X119129762Y-117885771D01*
X119129762Y-117885771D02*
X119034524Y-117933390D01*
X119034524Y-117933390D02*
X118986905Y-117981009D01*
X118986905Y-117981009D02*
X118939286Y-118076247D01*
X164931009Y-97738095D02*
X164978628Y-97595238D01*
X164978628Y-97595238D02*
X165026247Y-97547619D01*
X165026247Y-97547619D02*
X165121485Y-97500000D01*
X165121485Y-97500000D02*
X165264342Y-97500000D01*
X165264342Y-97500000D02*
X165359580Y-97547619D01*
X165359580Y-97547619D02*
X165407200Y-97595238D01*
X165407200Y-97595238D02*
X165454819Y-97690476D01*
X165454819Y-97690476D02*
X165454819Y-98071428D01*
X165454819Y-98071428D02*
X164454819Y-98071428D01*
X164454819Y-98071428D02*
X164454819Y-97738095D01*
X164454819Y-97738095D02*
X164502438Y-97642857D01*
X164502438Y-97642857D02*
X164550057Y-97595238D01*
X164550057Y-97595238D02*
X164645295Y-97547619D01*
X164645295Y-97547619D02*
X164740533Y-97547619D01*
X164740533Y-97547619D02*
X164835771Y-97595238D01*
X164835771Y-97595238D02*
X164883390Y-97642857D01*
X164883390Y-97642857D02*
X164931009Y-97738095D01*
X164931009Y-97738095D02*
X164931009Y-98071428D01*
X164454819Y-97071428D02*
X165264342Y-97071428D01*
X165264342Y-97071428D02*
X165359580Y-97023809D01*
X165359580Y-97023809D02*
X165407200Y-96976190D01*
X165407200Y-96976190D02*
X165454819Y-96880952D01*
X165454819Y-96880952D02*
X165454819Y-96690476D01*
X165454819Y-96690476D02*
X165407200Y-96595238D01*
X165407200Y-96595238D02*
X165359580Y-96547619D01*
X165359580Y-96547619D02*
X165264342Y-96500000D01*
X165264342Y-96500000D02*
X164454819Y-96500000D01*
X164454819Y-96166666D02*
X164454819Y-95595238D01*
X165454819Y-95880952D02*
X164454819Y-95880952D01*
X164454819Y-95404761D02*
X164454819Y-94833333D01*
X165454819Y-95119047D02*
X164454819Y-95119047D01*
X164454819Y-94309523D02*
X164454819Y-94119047D01*
X164454819Y-94119047D02*
X164502438Y-94023809D01*
X164502438Y-94023809D02*
X164597676Y-93928571D01*
X164597676Y-93928571D02*
X164788152Y-93880952D01*
X164788152Y-93880952D02*
X165121485Y-93880952D01*
X165121485Y-93880952D02*
X165311961Y-93928571D01*
X165311961Y-93928571D02*
X165407200Y-94023809D01*
X165407200Y-94023809D02*
X165454819Y-94119047D01*
X165454819Y-94119047D02*
X165454819Y-94309523D01*
X165454819Y-94309523D02*
X165407200Y-94404761D01*
X165407200Y-94404761D02*
X165311961Y-94499999D01*
X165311961Y-94499999D02*
X165121485Y-94547618D01*
X165121485Y-94547618D02*
X164788152Y-94547618D01*
X164788152Y-94547618D02*
X164597676Y-94499999D01*
X164597676Y-94499999D02*
X164502438Y-94404761D01*
X164502438Y-94404761D02*
X164454819Y-94309523D01*
X165454819Y-93452380D02*
X164454819Y-93452380D01*
X164454819Y-93452380D02*
X165454819Y-92880952D01*
X165454819Y-92880952D02*
X164454819Y-92880952D01*
X165407200Y-92452380D02*
X165454819Y-92309523D01*
X165454819Y-92309523D02*
X165454819Y-92071428D01*
X165454819Y-92071428D02*
X165407200Y-91976190D01*
X165407200Y-91976190D02*
X165359580Y-91928571D01*
X165359580Y-91928571D02*
X165264342Y-91880952D01*
X165264342Y-91880952D02*
X165169104Y-91880952D01*
X165169104Y-91880952D02*
X165073866Y-91928571D01*
X165073866Y-91928571D02*
X165026247Y-91976190D01*
X165026247Y-91976190D02*
X164978628Y-92071428D01*
X164978628Y-92071428D02*
X164931009Y-92261904D01*
X164931009Y-92261904D02*
X164883390Y-92357142D01*
X164883390Y-92357142D02*
X164835771Y-92404761D01*
X164835771Y-92404761D02*
X164740533Y-92452380D01*
X164740533Y-92452380D02*
X164645295Y-92452380D01*
X164645295Y-92452380D02*
X164550057Y-92404761D01*
X164550057Y-92404761D02*
X164502438Y-92357142D01*
X164502438Y-92357142D02*
X164454819Y-92261904D01*
X164454819Y-92261904D02*
X164454819Y-92023809D01*
X164454819Y-92023809D02*
X164502438Y-91880952D01*
X165454819Y-78838094D02*
X164454819Y-78838094D01*
X164454819Y-78838094D02*
X164454819Y-78599999D01*
X164454819Y-78599999D02*
X164502438Y-78457142D01*
X164502438Y-78457142D02*
X164597676Y-78361904D01*
X164597676Y-78361904D02*
X164692914Y-78314285D01*
X164692914Y-78314285D02*
X164883390Y-78266666D01*
X164883390Y-78266666D02*
X165026247Y-78266666D01*
X165026247Y-78266666D02*
X165216723Y-78314285D01*
X165216723Y-78314285D02*
X165311961Y-78361904D01*
X165311961Y-78361904D02*
X165407200Y-78457142D01*
X165407200Y-78457142D02*
X165454819Y-78599999D01*
X165454819Y-78599999D02*
X165454819Y-78838094D01*
X165454819Y-77838094D02*
X164454819Y-77838094D01*
X165407200Y-77409523D02*
X165454819Y-77266666D01*
X165454819Y-77266666D02*
X165454819Y-77028571D01*
X165454819Y-77028571D02*
X165407200Y-76933333D01*
X165407200Y-76933333D02*
X165359580Y-76885714D01*
X165359580Y-76885714D02*
X165264342Y-76838095D01*
X165264342Y-76838095D02*
X165169104Y-76838095D01*
X165169104Y-76838095D02*
X165073866Y-76885714D01*
X165073866Y-76885714D02*
X165026247Y-76933333D01*
X165026247Y-76933333D02*
X164978628Y-77028571D01*
X164978628Y-77028571D02*
X164931009Y-77219047D01*
X164931009Y-77219047D02*
X164883390Y-77314285D01*
X164883390Y-77314285D02*
X164835771Y-77361904D01*
X164835771Y-77361904D02*
X164740533Y-77409523D01*
X164740533Y-77409523D02*
X164645295Y-77409523D01*
X164645295Y-77409523D02*
X164550057Y-77361904D01*
X164550057Y-77361904D02*
X164502438Y-77314285D01*
X164502438Y-77314285D02*
X164454819Y-77219047D01*
X164454819Y-77219047D02*
X164454819Y-76980952D01*
X164454819Y-76980952D02*
X164502438Y-76838095D01*
X165454819Y-76409523D02*
X164454819Y-76409523D01*
X164454819Y-76409523D02*
X164454819Y-76028571D01*
X164454819Y-76028571D02*
X164502438Y-75933333D01*
X164502438Y-75933333D02*
X164550057Y-75885714D01*
X164550057Y-75885714D02*
X164645295Y-75838095D01*
X164645295Y-75838095D02*
X164788152Y-75838095D01*
X164788152Y-75838095D02*
X164883390Y-75885714D01*
X164883390Y-75885714D02*
X164931009Y-75933333D01*
X164931009Y-75933333D02*
X164978628Y-76028571D01*
X164978628Y-76028571D02*
X164978628Y-76409523D01*
X165454819Y-74933333D02*
X165454819Y-75409523D01*
X165454819Y-75409523D02*
X164454819Y-75409523D01*
X165169104Y-74647618D02*
X165169104Y-74171428D01*
X165454819Y-74742856D02*
X164454819Y-74409523D01*
X164454819Y-74409523D02*
X165454819Y-74076190D01*
X164978628Y-73552380D02*
X165454819Y-73552380D01*
X164454819Y-73885713D02*
X164978628Y-73552380D01*
X164978628Y-73552380D02*
X164454819Y-73219047D01*
X167785714Y-82907200D02*
X167928571Y-82954819D01*
X167928571Y-82954819D02*
X168166666Y-82954819D01*
X168166666Y-82954819D02*
X168261904Y-82907200D01*
X168261904Y-82907200D02*
X168309523Y-82859580D01*
X168309523Y-82859580D02*
X168357142Y-82764342D01*
X168357142Y-82764342D02*
X168357142Y-82669104D01*
X168357142Y-82669104D02*
X168309523Y-82573866D01*
X168309523Y-82573866D02*
X168261904Y-82526247D01*
X168261904Y-82526247D02*
X168166666Y-82478628D01*
X168166666Y-82478628D02*
X167976190Y-82431009D01*
X167976190Y-82431009D02*
X167880952Y-82383390D01*
X167880952Y-82383390D02*
X167833333Y-82335771D01*
X167833333Y-82335771D02*
X167785714Y-82240533D01*
X167785714Y-82240533D02*
X167785714Y-82145295D01*
X167785714Y-82145295D02*
X167833333Y-82050057D01*
X167833333Y-82050057D02*
X167880952Y-82002438D01*
X167880952Y-82002438D02*
X167976190Y-81954819D01*
X167976190Y-81954819D02*
X168214285Y-81954819D01*
X168214285Y-81954819D02*
X168357142Y-82002438D01*
X168785714Y-82954819D02*
X168785714Y-81954819D01*
X168785714Y-81954819D02*
X169023809Y-81954819D01*
X169023809Y-81954819D02*
X169166666Y-82002438D01*
X169166666Y-82002438D02*
X169261904Y-82097676D01*
X169261904Y-82097676D02*
X169309523Y-82192914D01*
X169309523Y-82192914D02*
X169357142Y-82383390D01*
X169357142Y-82383390D02*
X169357142Y-82526247D01*
X169357142Y-82526247D02*
X169309523Y-82716723D01*
X169309523Y-82716723D02*
X169261904Y-82811961D01*
X169261904Y-82811961D02*
X169166666Y-82907200D01*
X169166666Y-82907200D02*
X169023809Y-82954819D01*
X169023809Y-82954819D02*
X168785714Y-82954819D01*
X169738095Y-82669104D02*
X170214285Y-82669104D01*
X169642857Y-82954819D02*
X169976190Y-81954819D01*
X169976190Y-81954819D02*
X170309523Y-82954819D01*
X172809524Y-82907200D02*
X172952381Y-82954819D01*
X172952381Y-82954819D02*
X173190476Y-82954819D01*
X173190476Y-82954819D02*
X173285714Y-82907200D01*
X173285714Y-82907200D02*
X173333333Y-82859580D01*
X173333333Y-82859580D02*
X173380952Y-82764342D01*
X173380952Y-82764342D02*
X173380952Y-82669104D01*
X173380952Y-82669104D02*
X173333333Y-82573866D01*
X173333333Y-82573866D02*
X173285714Y-82526247D01*
X173285714Y-82526247D02*
X173190476Y-82478628D01*
X173190476Y-82478628D02*
X173000000Y-82431009D01*
X173000000Y-82431009D02*
X172904762Y-82383390D01*
X172904762Y-82383390D02*
X172857143Y-82335771D01*
X172857143Y-82335771D02*
X172809524Y-82240533D01*
X172809524Y-82240533D02*
X172809524Y-82145295D01*
X172809524Y-82145295D02*
X172857143Y-82050057D01*
X172857143Y-82050057D02*
X172904762Y-82002438D01*
X172904762Y-82002438D02*
X173000000Y-81954819D01*
X173000000Y-81954819D02*
X173238095Y-81954819D01*
X173238095Y-81954819D02*
X173380952Y-82002438D01*
X174380952Y-82859580D02*
X174333333Y-82907200D01*
X174333333Y-82907200D02*
X174190476Y-82954819D01*
X174190476Y-82954819D02*
X174095238Y-82954819D01*
X174095238Y-82954819D02*
X173952381Y-82907200D01*
X173952381Y-82907200D02*
X173857143Y-82811961D01*
X173857143Y-82811961D02*
X173809524Y-82716723D01*
X173809524Y-82716723D02*
X173761905Y-82526247D01*
X173761905Y-82526247D02*
X173761905Y-82383390D01*
X173761905Y-82383390D02*
X173809524Y-82192914D01*
X173809524Y-82192914D02*
X173857143Y-82097676D01*
X173857143Y-82097676D02*
X173952381Y-82002438D01*
X173952381Y-82002438D02*
X174095238Y-81954819D01*
X174095238Y-81954819D02*
X174190476Y-81954819D01*
X174190476Y-81954819D02*
X174333333Y-82002438D01*
X174333333Y-82002438D02*
X174380952Y-82050057D01*
X175285714Y-82954819D02*
X174809524Y-82954819D01*
X174809524Y-82954819D02*
X174809524Y-81954819D01*
X120633333Y-67859580D02*
X120585714Y-67907200D01*
X120585714Y-67907200D02*
X120442857Y-67954819D01*
X120442857Y-67954819D02*
X120347619Y-67954819D01*
X120347619Y-67954819D02*
X120204762Y-67907200D01*
X120204762Y-67907200D02*
X120109524Y-67811961D01*
X120109524Y-67811961D02*
X120061905Y-67716723D01*
X120061905Y-67716723D02*
X120014286Y-67526247D01*
X120014286Y-67526247D02*
X120014286Y-67383390D01*
X120014286Y-67383390D02*
X120061905Y-67192914D01*
X120061905Y-67192914D02*
X120109524Y-67097676D01*
X120109524Y-67097676D02*
X120204762Y-67002438D01*
X120204762Y-67002438D02*
X120347619Y-66954819D01*
X120347619Y-66954819D02*
X120442857Y-66954819D01*
X120442857Y-66954819D02*
X120585714Y-67002438D01*
X120585714Y-67002438D02*
X120633333Y-67050057D01*
X120966667Y-66954819D02*
X121585714Y-66954819D01*
X121585714Y-66954819D02*
X121252381Y-67335771D01*
X121252381Y-67335771D02*
X121395238Y-67335771D01*
X121395238Y-67335771D02*
X121490476Y-67383390D01*
X121490476Y-67383390D02*
X121538095Y-67431009D01*
X121538095Y-67431009D02*
X121585714Y-67526247D01*
X121585714Y-67526247D02*
X121585714Y-67764342D01*
X121585714Y-67764342D02*
X121538095Y-67859580D01*
X121538095Y-67859580D02*
X121490476Y-67907200D01*
X121490476Y-67907200D02*
X121395238Y-67954819D01*
X121395238Y-67954819D02*
X121109524Y-67954819D01*
X121109524Y-67954819D02*
X121014286Y-67907200D01*
X121014286Y-67907200D02*
X120966667Y-67859580D01*
X131754819Y-114961904D02*
X132564342Y-114961904D01*
X132564342Y-114961904D02*
X132659580Y-114914285D01*
X132659580Y-114914285D02*
X132707200Y-114866666D01*
X132707200Y-114866666D02*
X132754819Y-114771428D01*
X132754819Y-114771428D02*
X132754819Y-114580952D01*
X132754819Y-114580952D02*
X132707200Y-114485714D01*
X132707200Y-114485714D02*
X132659580Y-114438095D01*
X132659580Y-114438095D02*
X132564342Y-114390476D01*
X132564342Y-114390476D02*
X131754819Y-114390476D01*
X131754819Y-114009523D02*
X131754819Y-113390476D01*
X131754819Y-113390476D02*
X132135771Y-113723809D01*
X132135771Y-113723809D02*
X132135771Y-113580952D01*
X132135771Y-113580952D02*
X132183390Y-113485714D01*
X132183390Y-113485714D02*
X132231009Y-113438095D01*
X132231009Y-113438095D02*
X132326247Y-113390476D01*
X132326247Y-113390476D02*
X132564342Y-113390476D01*
X132564342Y-113390476D02*
X132659580Y-113438095D01*
X132659580Y-113438095D02*
X132707200Y-113485714D01*
X132707200Y-113485714D02*
X132754819Y-113580952D01*
X132754819Y-113580952D02*
X132754819Y-113866666D01*
X132754819Y-113866666D02*
X132707200Y-113961904D01*
X132707200Y-113961904D02*
X132659580Y-114009523D01*
X117461905Y-113854819D02*
X117461905Y-112854819D01*
X117461905Y-112854819D02*
X117700000Y-112854819D01*
X117700000Y-112854819D02*
X117842857Y-112902438D01*
X117842857Y-112902438D02*
X117938095Y-112997676D01*
X117938095Y-112997676D02*
X117985714Y-113092914D01*
X117985714Y-113092914D02*
X118033333Y-113283390D01*
X118033333Y-113283390D02*
X118033333Y-113426247D01*
X118033333Y-113426247D02*
X117985714Y-113616723D01*
X117985714Y-113616723D02*
X117938095Y-113711961D01*
X117938095Y-113711961D02*
X117842857Y-113807200D01*
X117842857Y-113807200D02*
X117700000Y-113854819D01*
X117700000Y-113854819D02*
X117461905Y-113854819D01*
X118985714Y-113854819D02*
X118414286Y-113854819D01*
X118700000Y-113854819D02*
X118700000Y-112854819D01*
X118700000Y-112854819D02*
X118604762Y-112997676D01*
X118604762Y-112997676D02*
X118509524Y-113092914D01*
X118509524Y-113092914D02*
X118414286Y-113140533D01*
X134907200Y-75361904D02*
X134954819Y-75219047D01*
X134954819Y-75219047D02*
X134954819Y-74980952D01*
X134954819Y-74980952D02*
X134907200Y-74885714D01*
X134907200Y-74885714D02*
X134859580Y-74838095D01*
X134859580Y-74838095D02*
X134764342Y-74790476D01*
X134764342Y-74790476D02*
X134669104Y-74790476D01*
X134669104Y-74790476D02*
X134573866Y-74838095D01*
X134573866Y-74838095D02*
X134526247Y-74885714D01*
X134526247Y-74885714D02*
X134478628Y-74980952D01*
X134478628Y-74980952D02*
X134431009Y-75171428D01*
X134431009Y-75171428D02*
X134383390Y-75266666D01*
X134383390Y-75266666D02*
X134335771Y-75314285D01*
X134335771Y-75314285D02*
X134240533Y-75361904D01*
X134240533Y-75361904D02*
X134145295Y-75361904D01*
X134145295Y-75361904D02*
X134050057Y-75314285D01*
X134050057Y-75314285D02*
X134002438Y-75266666D01*
X134002438Y-75266666D02*
X133954819Y-75171428D01*
X133954819Y-75171428D02*
X133954819Y-74933333D01*
X133954819Y-74933333D02*
X134002438Y-74790476D01*
X134431009Y-74361904D02*
X134431009Y-74028571D01*
X134954819Y-73885714D02*
X134954819Y-74361904D01*
X134954819Y-74361904D02*
X133954819Y-74361904D01*
X133954819Y-74361904D02*
X133954819Y-73885714D01*
X134954819Y-73457142D02*
X133954819Y-73457142D01*
X133954819Y-73457142D02*
X134954819Y-72885714D01*
X134954819Y-72885714D02*
X133954819Y-72885714D01*
X134907200Y-72457142D02*
X134954819Y-72314285D01*
X134954819Y-72314285D02*
X134954819Y-72076190D01*
X134954819Y-72076190D02*
X134907200Y-71980952D01*
X134907200Y-71980952D02*
X134859580Y-71933333D01*
X134859580Y-71933333D02*
X134764342Y-71885714D01*
X134764342Y-71885714D02*
X134669104Y-71885714D01*
X134669104Y-71885714D02*
X134573866Y-71933333D01*
X134573866Y-71933333D02*
X134526247Y-71980952D01*
X134526247Y-71980952D02*
X134478628Y-72076190D01*
X134478628Y-72076190D02*
X134431009Y-72266666D01*
X134431009Y-72266666D02*
X134383390Y-72361904D01*
X134383390Y-72361904D02*
X134335771Y-72409523D01*
X134335771Y-72409523D02*
X134240533Y-72457142D01*
X134240533Y-72457142D02*
X134145295Y-72457142D01*
X134145295Y-72457142D02*
X134050057Y-72409523D01*
X134050057Y-72409523D02*
X134002438Y-72361904D01*
X134002438Y-72361904D02*
X133954819Y-72266666D01*
X133954819Y-72266666D02*
X133954819Y-72028571D01*
X133954819Y-72028571D02*
X134002438Y-71885714D01*
X133954819Y-71266666D02*
X133954819Y-71076190D01*
X133954819Y-71076190D02*
X134002438Y-70980952D01*
X134002438Y-70980952D02*
X134097676Y-70885714D01*
X134097676Y-70885714D02*
X134288152Y-70838095D01*
X134288152Y-70838095D02*
X134621485Y-70838095D01*
X134621485Y-70838095D02*
X134811961Y-70885714D01*
X134811961Y-70885714D02*
X134907200Y-70980952D01*
X134907200Y-70980952D02*
X134954819Y-71076190D01*
X134954819Y-71076190D02*
X134954819Y-71266666D01*
X134954819Y-71266666D02*
X134907200Y-71361904D01*
X134907200Y-71361904D02*
X134811961Y-71457142D01*
X134811961Y-71457142D02*
X134621485Y-71504761D01*
X134621485Y-71504761D02*
X134288152Y-71504761D01*
X134288152Y-71504761D02*
X134097676Y-71457142D01*
X134097676Y-71457142D02*
X134002438Y-71361904D01*
X134002438Y-71361904D02*
X133954819Y-71266666D01*
X134954819Y-69838095D02*
X134478628Y-70171428D01*
X134954819Y-70409523D02*
X133954819Y-70409523D01*
X133954819Y-70409523D02*
X133954819Y-70028571D01*
X133954819Y-70028571D02*
X134002438Y-69933333D01*
X134002438Y-69933333D02*
X134050057Y-69885714D01*
X134050057Y-69885714D02*
X134145295Y-69838095D01*
X134145295Y-69838095D02*
X134288152Y-69838095D01*
X134288152Y-69838095D02*
X134383390Y-69885714D01*
X134383390Y-69885714D02*
X134431009Y-69933333D01*
X134431009Y-69933333D02*
X134478628Y-70028571D01*
X134478628Y-70028571D02*
X134478628Y-70409523D01*
X131109580Y-91229166D02*
X131157200Y-91276785D01*
X131157200Y-91276785D02*
X131204819Y-91419642D01*
X131204819Y-91419642D02*
X131204819Y-91514880D01*
X131204819Y-91514880D02*
X131157200Y-91657737D01*
X131157200Y-91657737D02*
X131061961Y-91752975D01*
X131061961Y-91752975D02*
X130966723Y-91800594D01*
X130966723Y-91800594D02*
X130776247Y-91848213D01*
X130776247Y-91848213D02*
X130633390Y-91848213D01*
X130633390Y-91848213D02*
X130442914Y-91800594D01*
X130442914Y-91800594D02*
X130347676Y-91752975D01*
X130347676Y-91752975D02*
X130252438Y-91657737D01*
X130252438Y-91657737D02*
X130204819Y-91514880D01*
X130204819Y-91514880D02*
X130204819Y-91419642D01*
X130204819Y-91419642D02*
X130252438Y-91276785D01*
X130252438Y-91276785D02*
X130300057Y-91229166D01*
X130300057Y-90848213D02*
X130252438Y-90800594D01*
X130252438Y-90800594D02*
X130204819Y-90705356D01*
X130204819Y-90705356D02*
X130204819Y-90467261D01*
X130204819Y-90467261D02*
X130252438Y-90372023D01*
X130252438Y-90372023D02*
X130300057Y-90324404D01*
X130300057Y-90324404D02*
X130395295Y-90276785D01*
X130395295Y-90276785D02*
X130490533Y-90276785D01*
X130490533Y-90276785D02*
X130633390Y-90324404D01*
X130633390Y-90324404D02*
X131204819Y-90895832D01*
X131204819Y-90895832D02*
X131204819Y-90276785D01*
X116833333Y-87259580D02*
X116785714Y-87307200D01*
X116785714Y-87307200D02*
X116642857Y-87354819D01*
X116642857Y-87354819D02*
X116547619Y-87354819D01*
X116547619Y-87354819D02*
X116404762Y-87307200D01*
X116404762Y-87307200D02*
X116309524Y-87211961D01*
X116309524Y-87211961D02*
X116261905Y-87116723D01*
X116261905Y-87116723D02*
X116214286Y-86926247D01*
X116214286Y-86926247D02*
X116214286Y-86783390D01*
X116214286Y-86783390D02*
X116261905Y-86592914D01*
X116261905Y-86592914D02*
X116309524Y-86497676D01*
X116309524Y-86497676D02*
X116404762Y-86402438D01*
X116404762Y-86402438D02*
X116547619Y-86354819D01*
X116547619Y-86354819D02*
X116642857Y-86354819D01*
X116642857Y-86354819D02*
X116785714Y-86402438D01*
X116785714Y-86402438D02*
X116833333Y-86450057D01*
X117785714Y-87354819D02*
X117214286Y-87354819D01*
X117500000Y-87354819D02*
X117500000Y-86354819D01*
X117500000Y-86354819D02*
X117404762Y-86497676D01*
X117404762Y-86497676D02*
X117309524Y-86592914D01*
X117309524Y-86592914D02*
X117214286Y-86640533D01*
G36*
X112745806Y-102392149D02*
G01*
X112745806Y-102742149D01*
X111925516Y-102742149D01*
X113095806Y-103327354D01*
X113095806Y-102977354D01*
X114025516Y-102977354D01*
X112745806Y-102392149D01*
G37*
G36*
X111925516Y-103600784D02*
G01*
X111925516Y-103792149D01*
X111695806Y-103792149D01*
X111695806Y-104492149D01*
X111925516Y-104492149D01*
X111925516Y-104689008D01*
X111937225Y-104749334D01*
X111972044Y-104798429D01*
X112023058Y-104831134D01*
X112084152Y-104842149D01*
X113872376Y-104842149D01*
X113932905Y-104831052D01*
X113981674Y-104798429D01*
X114014396Y-104749549D01*
X114025516Y-104689008D01*
X114025516Y-103600784D01*
X114014475Y-103539700D01*
X113981674Y-103488677D01*
X113932680Y-103453862D01*
X113872376Y-103442149D01*
X112084152Y-103442149D01*
X112023276Y-103453780D01*
X111972044Y-103488677D01*
X111937147Y-103539908D01*
X111925516Y-103600784D01*
G37*
X126669524Y-106854819D02*
X126669524Y-105854819D01*
X126669524Y-105854819D02*
X126907619Y-105854819D01*
X126907619Y-105854819D02*
X127050476Y-105902438D01*
X127050476Y-105902438D02*
X127145714Y-105997676D01*
X127145714Y-105997676D02*
X127193333Y-106092914D01*
X127193333Y-106092914D02*
X127240952Y-106283390D01*
X127240952Y-106283390D02*
X127240952Y-106426247D01*
X127240952Y-106426247D02*
X127193333Y-106616723D01*
X127193333Y-106616723D02*
X127145714Y-106711961D01*
X127145714Y-106711961D02*
X127050476Y-106807200D01*
X127050476Y-106807200D02*
X126907619Y-106854819D01*
X126907619Y-106854819D02*
X126669524Y-106854819D01*
X127621905Y-106569104D02*
X128098095Y-106569104D01*
X127526667Y-106854819D02*
X127860000Y-105854819D01*
X127860000Y-105854819D02*
X128193333Y-106854819D01*
X129098095Y-106759580D02*
X129050476Y-106807200D01*
X129050476Y-106807200D02*
X128907619Y-106854819D01*
X128907619Y-106854819D02*
X128812381Y-106854819D01*
X128812381Y-106854819D02*
X128669524Y-106807200D01*
X128669524Y-106807200D02*
X128574286Y-106711961D01*
X128574286Y-106711961D02*
X128526667Y-106616723D01*
X128526667Y-106616723D02*
X128479048Y-106426247D01*
X128479048Y-106426247D02*
X128479048Y-106283390D01*
X128479048Y-106283390D02*
X128526667Y-106092914D01*
X128526667Y-106092914D02*
X128574286Y-105997676D01*
X128574286Y-105997676D02*
X128669524Y-105902438D01*
X128669524Y-105902438D02*
X128812381Y-105854819D01*
X128812381Y-105854819D02*
X128907619Y-105854819D01*
X128907619Y-105854819D02*
X129050476Y-105902438D01*
X129050476Y-105902438D02*
X129098095Y-105950057D01*
X125933333Y-93359580D02*
X125885714Y-93407200D01*
X125885714Y-93407200D02*
X125742857Y-93454819D01*
X125742857Y-93454819D02*
X125647619Y-93454819D01*
X125647619Y-93454819D02*
X125504762Y-93407200D01*
X125504762Y-93407200D02*
X125409524Y-93311961D01*
X125409524Y-93311961D02*
X125361905Y-93216723D01*
X125361905Y-93216723D02*
X125314286Y-93026247D01*
X125314286Y-93026247D02*
X125314286Y-92883390D01*
X125314286Y-92883390D02*
X125361905Y-92692914D01*
X125361905Y-92692914D02*
X125409524Y-92597676D01*
X125409524Y-92597676D02*
X125504762Y-92502438D01*
X125504762Y-92502438D02*
X125647619Y-92454819D01*
X125647619Y-92454819D02*
X125742857Y-92454819D01*
X125742857Y-92454819D02*
X125885714Y-92502438D01*
X125885714Y-92502438D02*
X125933333Y-92550057D01*
X126790476Y-92788152D02*
X126790476Y-93454819D01*
X126552381Y-92407200D02*
X126314286Y-93121485D01*
X126314286Y-93121485D02*
X126933333Y-93121485D01*
X165169104Y-113380951D02*
X165169104Y-112904761D01*
X165454819Y-113476189D02*
X164454819Y-113142856D01*
X164454819Y-113142856D02*
X165454819Y-112809523D01*
X164454819Y-112476189D02*
X165264342Y-112476189D01*
X165264342Y-112476189D02*
X165359580Y-112428570D01*
X165359580Y-112428570D02*
X165407200Y-112380951D01*
X165407200Y-112380951D02*
X165454819Y-112285713D01*
X165454819Y-112285713D02*
X165454819Y-112095237D01*
X165454819Y-112095237D02*
X165407200Y-111999999D01*
X165407200Y-111999999D02*
X165359580Y-111952380D01*
X165359580Y-111952380D02*
X165264342Y-111904761D01*
X165264342Y-111904761D02*
X164454819Y-111904761D01*
X164454819Y-111523808D02*
X165454819Y-110857142D01*
X164454819Y-110857142D02*
X165454819Y-111523808D01*
X164502438Y-109190475D02*
X164454819Y-109285713D01*
X164454819Y-109285713D02*
X164454819Y-109428570D01*
X164454819Y-109428570D02*
X164502438Y-109571427D01*
X164502438Y-109571427D02*
X164597676Y-109666665D01*
X164597676Y-109666665D02*
X164692914Y-109714284D01*
X164692914Y-109714284D02*
X164883390Y-109761903D01*
X164883390Y-109761903D02*
X165026247Y-109761903D01*
X165026247Y-109761903D02*
X165216723Y-109714284D01*
X165216723Y-109714284D02*
X165311961Y-109666665D01*
X165311961Y-109666665D02*
X165407200Y-109571427D01*
X165407200Y-109571427D02*
X165454819Y-109428570D01*
X165454819Y-109428570D02*
X165454819Y-109333332D01*
X165454819Y-109333332D02*
X165407200Y-109190475D01*
X165407200Y-109190475D02*
X165359580Y-109142856D01*
X165359580Y-109142856D02*
X165026247Y-109142856D01*
X165026247Y-109142856D02*
X165026247Y-109333332D01*
X165454819Y-108714284D02*
X164454819Y-108714284D01*
X164454819Y-108714284D02*
X164454819Y-108333332D01*
X164454819Y-108333332D02*
X164502438Y-108238094D01*
X164502438Y-108238094D02*
X164550057Y-108190475D01*
X164550057Y-108190475D02*
X164645295Y-108142856D01*
X164645295Y-108142856D02*
X164788152Y-108142856D01*
X164788152Y-108142856D02*
X164883390Y-108190475D01*
X164883390Y-108190475D02*
X164931009Y-108238094D01*
X164931009Y-108238094D02*
X164978628Y-108333332D01*
X164978628Y-108333332D02*
X164978628Y-108714284D01*
X165454819Y-107714284D02*
X164454819Y-107714284D01*
X164454819Y-107047618D02*
X164454819Y-106857142D01*
X164454819Y-106857142D02*
X164502438Y-106761904D01*
X164502438Y-106761904D02*
X164597676Y-106666666D01*
X164597676Y-106666666D02*
X164788152Y-106619047D01*
X164788152Y-106619047D02*
X165121485Y-106619047D01*
X165121485Y-106619047D02*
X165311961Y-106666666D01*
X165311961Y-106666666D02*
X165407200Y-106761904D01*
X165407200Y-106761904D02*
X165454819Y-106857142D01*
X165454819Y-106857142D02*
X165454819Y-107047618D01*
X165454819Y-107047618D02*
X165407200Y-107142856D01*
X165407200Y-107142856D02*
X165311961Y-107238094D01*
X165311961Y-107238094D02*
X165121485Y-107285713D01*
X165121485Y-107285713D02*
X164788152Y-107285713D01*
X164788152Y-107285713D02*
X164597676Y-107238094D01*
X164597676Y-107238094D02*
X164502438Y-107142856D01*
X164502438Y-107142856D02*
X164454819Y-107047618D01*
X126474286Y-96107200D02*
X126617143Y-96154819D01*
X126617143Y-96154819D02*
X126855238Y-96154819D01*
X126855238Y-96154819D02*
X126950476Y-96107200D01*
X126950476Y-96107200D02*
X126998095Y-96059580D01*
X126998095Y-96059580D02*
X127045714Y-95964342D01*
X127045714Y-95964342D02*
X127045714Y-95869104D01*
X127045714Y-95869104D02*
X126998095Y-95773866D01*
X126998095Y-95773866D02*
X126950476Y-95726247D01*
X126950476Y-95726247D02*
X126855238Y-95678628D01*
X126855238Y-95678628D02*
X126664762Y-95631009D01*
X126664762Y-95631009D02*
X126569524Y-95583390D01*
X126569524Y-95583390D02*
X126521905Y-95535771D01*
X126521905Y-95535771D02*
X126474286Y-95440533D01*
X126474286Y-95440533D02*
X126474286Y-95345295D01*
X126474286Y-95345295D02*
X126521905Y-95250057D01*
X126521905Y-95250057D02*
X126569524Y-95202438D01*
X126569524Y-95202438D02*
X126664762Y-95154819D01*
X126664762Y-95154819D02*
X126902857Y-95154819D01*
X126902857Y-95154819D02*
X127045714Y-95202438D01*
X127474286Y-96154819D02*
X127474286Y-95154819D01*
X127474286Y-95154819D02*
X127855238Y-95154819D01*
X127855238Y-95154819D02*
X127950476Y-95202438D01*
X127950476Y-95202438D02*
X127998095Y-95250057D01*
X127998095Y-95250057D02*
X128045714Y-95345295D01*
X128045714Y-95345295D02*
X128045714Y-95488152D01*
X128045714Y-95488152D02*
X127998095Y-95583390D01*
X127998095Y-95583390D02*
X127950476Y-95631009D01*
X127950476Y-95631009D02*
X127855238Y-95678628D01*
X127855238Y-95678628D02*
X127474286Y-95678628D01*
X128474286Y-96154819D02*
X128474286Y-95154819D01*
X129045714Y-96154819D02*
X128617143Y-95583390D01*
X129045714Y-95154819D02*
X128474286Y-95726247D01*
D12*
%TO.C,R1*%
X123790000Y-78377064D02*
X123790000Y-76922936D01*
X125610000Y-78377064D02*
X125610000Y-76922936D01*
%TO.C,U2*%
X136300000Y-119160000D02*
X162549999Y-119160000D01*
X136300001Y-71240000D02*
X136300000Y-119160000D01*
X162549999Y-119160000D02*
X162550000Y-71190000D01*
X162550000Y-71240000D02*
X136300001Y-71240000D01*
%TO.C,U1*%
X125215000Y-82045000D02*
X129335000Y-82045000D01*
X125215000Y-82140000D02*
X125215000Y-82045000D01*
X125215000Y-87165000D02*
X125215000Y-87070000D01*
X129335000Y-82045000D02*
X129335000Y-82140000D01*
X129335000Y-87070000D02*
X129335000Y-87165000D01*
X129335000Y-87165000D02*
X125215000Y-87165000D01*
X130115000Y-87405000D02*
X129635000Y-87405000D01*
X129875000Y-87075000D01*
X130115000Y-87405000D01*
G36*
X130115000Y-87405000D02*
G01*
X129635000Y-87405000D01*
X129875000Y-87075000D01*
X130115000Y-87405000D01*
G37*
%TO.C,Speaker*%
X115700000Y-90550000D02*
X115700000Y-95450000D01*
X115700000Y-92900000D02*
X116200000Y-92900000D01*
X115700000Y-93000000D02*
X116200000Y-93000000D01*
X115700000Y-95450000D02*
X119200000Y-95450000D01*
X116200000Y-92900000D02*
X116200000Y-93100000D01*
X116200000Y-93100000D02*
X115700000Y-93100000D01*
X117200000Y-89940000D02*
X117200000Y-90550000D01*
X117200000Y-96060000D02*
X117200000Y-95450000D01*
X118500000Y-89940000D02*
X118500000Y-90550000D01*
X118500000Y-96060000D02*
X118500000Y-95450000D01*
X119200000Y-90550000D02*
X115700000Y-90550000D01*
X119200000Y-92500000D02*
X119200000Y-90550000D01*
X119200000Y-93500000D02*
X119810000Y-93500000D01*
X119200000Y-95450000D02*
X119200000Y-93500000D01*
X119810000Y-91700000D02*
X120010000Y-91700000D01*
X119810000Y-92500000D02*
X119200000Y-92500000D01*
X119910000Y-91700000D02*
X119910000Y-91400000D01*
X120010000Y-91400000D02*
X119810000Y-91400000D01*
X120010000Y-91700000D02*
X120010000Y-91400000D01*
X120110000Y-89640000D02*
X118860000Y-89640000D01*
X120110000Y-90890000D02*
X120110000Y-89640000D01*
X119810000Y-89940000D02*
X115090000Y-89940000D01*
X115090000Y-96060000D01*
X119810000Y-96060000D01*
X119810000Y-89940000D01*
%TO.C,C6*%
X119436252Y-115290000D02*
X118013748Y-115290000D01*
X119436252Y-117110000D02*
X118013748Y-117110000D01*
%TO.C,BUTTONS*%
X166700000Y-89550000D02*
X166700000Y-100450000D01*
X166700000Y-91900000D02*
X167200000Y-91900000D01*
X166700000Y-92000000D02*
X167200000Y-92000000D01*
X166700000Y-93900000D02*
X167200000Y-93900000D01*
X166700000Y-94000000D02*
X167200000Y-94000000D01*
X166700000Y-95900000D02*
X167200000Y-95900000D01*
X166700000Y-96000000D02*
X167200000Y-96000000D01*
X166700000Y-97900000D02*
X167200000Y-97900000D01*
X166700000Y-98000000D02*
X167200000Y-98000000D01*
X166700000Y-100450000D02*
X170200000Y-100450000D01*
X167200000Y-91900000D02*
X167200000Y-92100000D01*
X167200000Y-92100000D02*
X166700000Y-92100000D01*
X167200000Y-93900000D02*
X167200000Y-94100000D01*
X167200000Y-94100000D02*
X166700000Y-94100000D01*
X167200000Y-95900000D02*
X167200000Y-96100000D01*
X167200000Y-96100000D02*
X166700000Y-96100000D01*
X167200000Y-97900000D02*
X167200000Y-98100000D01*
X167200000Y-98100000D02*
X166700000Y-98100000D01*
X168200000Y-88940000D02*
X168200000Y-89550000D01*
X168200000Y-101060000D02*
X168200000Y-100450000D01*
X169500000Y-88940000D02*
X169500000Y-89550000D01*
X169500000Y-101060000D02*
X169500000Y-100450000D01*
X170200000Y-89550000D02*
X166700000Y-89550000D01*
X170200000Y-91500000D02*
X170200000Y-89550000D01*
X170200000Y-98500000D02*
X170810000Y-98500000D01*
X170200000Y-100450000D02*
X170200000Y-98500000D01*
X170810000Y-90700000D02*
X171010000Y-90700000D01*
X170810000Y-91500000D02*
X170200000Y-91500000D01*
X170910000Y-90700000D02*
X170910000Y-90400000D01*
X171010000Y-90400000D02*
X170810000Y-90400000D01*
X171010000Y-90700000D02*
X171010000Y-90400000D01*
X171110000Y-88640000D02*
X169860000Y-88640000D01*
X171110000Y-89890000D02*
X171110000Y-88640000D01*
X170810000Y-88940000D02*
X166090000Y-88940000D01*
X166090000Y-101060000D01*
X170810000Y-101060000D01*
X170810000Y-88940000D01*
%TO.C,DISPLAY*%
X166700000Y-71550000D02*
X166700000Y-80450000D01*
X166700000Y-73900000D02*
X167200000Y-73900000D01*
X166700000Y-74000000D02*
X167200000Y-74000000D01*
X166700000Y-75900000D02*
X167200000Y-75900000D01*
X166700000Y-76000000D02*
X167200000Y-76000000D01*
X166700000Y-77900000D02*
X167200000Y-77900000D01*
X166700000Y-78000000D02*
X167200000Y-78000000D01*
X166700000Y-80450000D02*
X170200000Y-80450000D01*
X167200000Y-73900000D02*
X167200000Y-74100000D01*
X167200000Y-74100000D02*
X166700000Y-74100000D01*
X167200000Y-75900000D02*
X167200000Y-76100000D01*
X167200000Y-76100000D02*
X166700000Y-76100000D01*
X167200000Y-77900000D02*
X167200000Y-78100000D01*
X167200000Y-78100000D02*
X166700000Y-78100000D01*
X168200000Y-70940000D02*
X168200000Y-71550000D01*
X168200000Y-81060000D02*
X168200000Y-80450000D01*
X169500000Y-70940000D02*
X169500000Y-71550000D01*
X169500000Y-81060000D02*
X169500000Y-80450000D01*
X170200000Y-71550000D02*
X166700000Y-71550000D01*
X170200000Y-73500000D02*
X170200000Y-71550000D01*
X170200000Y-78500000D02*
X170810000Y-78500000D01*
X170200000Y-80450000D02*
X170200000Y-78500000D01*
X170810000Y-72700000D02*
X171010000Y-72700000D01*
X170810000Y-73500000D02*
X170200000Y-73500000D01*
X170910000Y-72700000D02*
X170910000Y-72400000D01*
X171010000Y-72400000D02*
X170810000Y-72400000D01*
X171010000Y-72700000D02*
X171010000Y-72400000D01*
X171110000Y-70640000D02*
X169860000Y-70640000D01*
X171110000Y-71890000D02*
X171110000Y-70640000D01*
X170810000Y-70940000D02*
X166090000Y-70940000D01*
X166090000Y-81060000D01*
X170810000Y-81060000D01*
X170810000Y-70940000D01*
%TO.C,SDA*%
X167620000Y-83620000D02*
X169000000Y-83620000D01*
X167620000Y-85000000D02*
X167620000Y-83620000D01*
X167620000Y-86270000D02*
X167620000Y-86380000D01*
X167620000Y-86270000D02*
X170380000Y-86270000D01*
X167620000Y-86380000D02*
X170380000Y-86380000D01*
X170380000Y-86270000D02*
X170380000Y-86380000D01*
%TO.C,SCL*%
X172620000Y-83620000D02*
X174000000Y-83620000D01*
X172620000Y-85000000D02*
X172620000Y-83620000D01*
X172620000Y-86270000D02*
X172620000Y-86380000D01*
X172620000Y-86270000D02*
X175380000Y-86270000D01*
X172620000Y-86380000D02*
X175380000Y-86380000D01*
X175380000Y-86270000D02*
X175380000Y-86380000D01*
%TO.C,C3*%
X117180000Y-68630000D02*
X124420000Y-68630000D01*
X117180000Y-73370000D02*
X117180000Y-68630000D01*
X124420000Y-68630000D02*
X124420000Y-73370000D01*
X124420000Y-73370000D02*
X117180000Y-73370000D01*
%TO.C,U3*%
X124390000Y-112350000D02*
X124390000Y-116110000D01*
X124390000Y-116110000D02*
X125650000Y-116110000D01*
X131210000Y-112350000D02*
X131210000Y-116110000D01*
X131210000Y-116110000D02*
X129950000Y-116110000D01*
X131440000Y-111310000D02*
X131110000Y-111070000D01*
X131440000Y-110830000D01*
X131440000Y-111310000D01*
G36*
X131440000Y-111310000D02*
G01*
X131110000Y-111070000D01*
X131440000Y-110830000D01*
X131440000Y-111310000D01*
G37*
%TO.C,D1*%
X121710000Y-109250000D02*
X116200000Y-109250000D01*
X121710000Y-112550000D02*
X116200000Y-112550000D01*
X121710000Y-112550000D02*
X121710000Y-109250000D01*
%TO.C,SENSOR*%
X128090000Y-77710000D02*
X128090000Y-78960000D01*
X128090000Y-78960000D02*
X129340000Y-78960000D01*
X128190000Y-76900000D02*
X128190000Y-77200000D01*
X128190000Y-77200000D02*
X128390000Y-77200000D01*
X128290000Y-76900000D02*
X128290000Y-77200000D01*
X128390000Y-76100000D02*
X129000000Y-76100000D01*
X128390000Y-76900000D02*
X128190000Y-76900000D01*
X129000000Y-67150000D02*
X129000000Y-69100000D01*
X129000000Y-69100000D02*
X128390000Y-69100000D01*
X129000000Y-76100000D02*
X129000000Y-78050000D01*
X129000000Y-78050000D02*
X132500000Y-78050000D01*
X129700000Y-66540000D02*
X129700000Y-67150000D01*
X129700000Y-78660000D02*
X129700000Y-78050000D01*
X131000000Y-66540000D02*
X131000000Y-67150000D01*
X131000000Y-78660000D02*
X131000000Y-78050000D01*
X132000000Y-69500000D02*
X132500000Y-69500000D01*
X132000000Y-69700000D02*
X132000000Y-69500000D01*
X132000000Y-71500000D02*
X132500000Y-71500000D01*
X132000000Y-71700000D02*
X132000000Y-71500000D01*
X132000000Y-73500000D02*
X132500000Y-73500000D01*
X132000000Y-73700000D02*
X132000000Y-73500000D01*
X132000000Y-75500000D02*
X132500000Y-75500000D01*
X132000000Y-75700000D02*
X132000000Y-75500000D01*
X132500000Y-67150000D02*
X129000000Y-67150000D01*
X132500000Y-69600000D02*
X132000000Y-69600000D01*
X132500000Y-69700000D02*
X132000000Y-69700000D01*
X132500000Y-71600000D02*
X132000000Y-71600000D01*
X132500000Y-71700000D02*
X132000000Y-71700000D01*
X132500000Y-73600000D02*
X132000000Y-73600000D01*
X132500000Y-73700000D02*
X132000000Y-73700000D01*
X132500000Y-75600000D02*
X132000000Y-75600000D01*
X132500000Y-75700000D02*
X132000000Y-75700000D01*
X132500000Y-78050000D02*
X132500000Y-67150000D01*
X128390000Y-78660000D02*
X133110000Y-78660000D01*
X133110000Y-66540000D01*
X128390000Y-66540000D01*
X128390000Y-78660000D01*
%TO.C,C2*%
X131690000Y-91773752D02*
X131690000Y-90351248D01*
X133510000Y-91773752D02*
X133510000Y-90351248D01*
%TO.C,C1*%
X112740000Y-77440000D02*
X112740000Y-80190000D01*
X112740000Y-85960000D02*
X112740000Y-83210000D01*
X120195563Y-77440000D02*
X112740000Y-77440000D01*
X120195563Y-85960000D02*
X112740000Y-85960000D01*
X121260000Y-78504437D02*
X120195563Y-77440000D01*
X121260000Y-78504437D02*
X121260000Y-80190000D01*
X121260000Y-84895563D02*
X120195563Y-85960000D01*
X121260000Y-84895563D02*
X121260000Y-83210000D01*
X122000000Y-84710000D02*
X122000000Y-83710000D01*
X122500000Y-84210000D02*
X121500000Y-84210000D01*
%TO.C,\u0085*%
X115700000Y-101550000D02*
X115700000Y-106450000D01*
X115700000Y-103900000D02*
X116200000Y-103900000D01*
X115700000Y-104000000D02*
X116200000Y-104000000D01*
X115700000Y-106450000D02*
X119200000Y-106450000D01*
X116200000Y-103900000D02*
X116200000Y-104100000D01*
X116200000Y-104100000D02*
X115700000Y-104100000D01*
X117200000Y-100940000D02*
X117200000Y-101550000D01*
X117200000Y-107060000D02*
X117200000Y-106450000D01*
X118500000Y-100940000D02*
X118500000Y-101550000D01*
X118500000Y-107060000D02*
X118500000Y-106450000D01*
X119200000Y-101550000D02*
X115700000Y-101550000D01*
X119200000Y-103500000D02*
X119200000Y-101550000D01*
X119200000Y-104500000D02*
X119810000Y-104500000D01*
X119200000Y-106450000D02*
X119200000Y-104500000D01*
X119810000Y-102700000D02*
X120010000Y-102700000D01*
X119810000Y-103500000D02*
X119200000Y-103500000D01*
X119910000Y-102700000D02*
X119910000Y-102400000D01*
X120010000Y-102400000D02*
X119810000Y-102400000D01*
X120010000Y-102700000D02*
X120010000Y-102400000D01*
X120110000Y-100640000D02*
X118860000Y-100640000D01*
X120110000Y-101890000D02*
X120110000Y-100640000D01*
X119810000Y-100940000D02*
X115090000Y-100940000D01*
X115090000Y-107060000D01*
X119810000Y-107060000D01*
X119810000Y-100940000D01*
%TO.C,DAC*%
X123800000Y-102400000D02*
X123800000Y-105400000D01*
X123800000Y-102400000D02*
X131900000Y-102400000D01*
X131900000Y-105400000D02*
X123800000Y-105400000D01*
X131900000Y-105400000D02*
X131900000Y-102400000D01*
%TO.C,C4*%
X126811252Y-89990000D02*
X125388748Y-89990000D01*
X126811252Y-91810000D02*
X125388748Y-91810000D01*
%TO.C,AUX GPIO*%
X166700000Y-104550000D02*
X166700000Y-115450000D01*
X166700000Y-106900000D02*
X167200000Y-106900000D01*
X166700000Y-107000000D02*
X167200000Y-107000000D01*
X166700000Y-108900000D02*
X167200000Y-108900000D01*
X166700000Y-109000000D02*
X167200000Y-109000000D01*
X166700000Y-110900000D02*
X167200000Y-110900000D01*
X166700000Y-111000000D02*
X167200000Y-111000000D01*
X166700000Y-112900000D02*
X167200000Y-112900000D01*
X166700000Y-113000000D02*
X167200000Y-113000000D01*
X166700000Y-115450000D02*
X170200000Y-115450000D01*
X167200000Y-106900000D02*
X167200000Y-107100000D01*
X167200000Y-107100000D02*
X166700000Y-107100000D01*
X167200000Y-108900000D02*
X167200000Y-109100000D01*
X167200000Y-109100000D02*
X166700000Y-109100000D01*
X167200000Y-110900000D02*
X167200000Y-111100000D01*
X167200000Y-111100000D02*
X166700000Y-111100000D01*
X167200000Y-112900000D02*
X167200000Y-113100000D01*
X167200000Y-113100000D02*
X166700000Y-113100000D01*
X168200000Y-103940000D02*
X168200000Y-104550000D01*
X168200000Y-116060000D02*
X168200000Y-115450000D01*
X169500000Y-103940000D02*
X169500000Y-104550000D01*
X169500000Y-116060000D02*
X169500000Y-115450000D01*
X170200000Y-104550000D02*
X166700000Y-104550000D01*
X170200000Y-106500000D02*
X170200000Y-104550000D01*
X170200000Y-113500000D02*
X170810000Y-113500000D01*
X170200000Y-115450000D02*
X170200000Y-113500000D01*
X170810000Y-105700000D02*
X171010000Y-105700000D01*
X170810000Y-106500000D02*
X170200000Y-106500000D01*
X170910000Y-105700000D02*
X170910000Y-105400000D01*
X171010000Y-105400000D02*
X170810000Y-105400000D01*
X171010000Y-105700000D02*
X171010000Y-105400000D01*
X171110000Y-103640000D02*
X169860000Y-103640000D01*
X171110000Y-104890000D02*
X171110000Y-103640000D01*
X170810000Y-103940000D02*
X166090000Y-103940000D01*
X166090000Y-116060000D01*
X170810000Y-116060000D01*
X170810000Y-103940000D01*
%TO.C,SPK*%
X123720000Y-96700000D02*
X123720000Y-99700000D01*
X123720000Y-96700000D02*
X131820000Y-96700000D01*
X131820000Y-99700000D02*
X123720000Y-99700000D01*
X131820000Y-99700000D02*
X131820000Y-96700000D01*
%TD*%
M02*
